<mxfile host="app.diagrams.net" modified="2023-05-31T16:07:59.293Z" agent="Mozilla/5.0 (Windows NT 10.0; Win64; x64; rv:109.0) Gecko/20100101 Firefox/113.0" etag="G_mH6EeqWDzf8FtVyOND" version="21.3.3" type="device">
  <diagram name="1 oldal" id="efUGQUTGYi6EQR7r4Sqp">
    <mxGraphModel dx="2333" dy="1682" grid="1" gridSize="10" guides="1" tooltips="1" connect="1" arrows="1" fold="1" page="0" pageScale="1" pageWidth="827" pageHeight="1169" math="0" shadow="0">
      <root>
        <mxCell id="0" />
        <mxCell id="1" parent="0" />
        <mxCell id="qI7ad0C5QOCOGanBFrG0-22" value="&lt;p style=&quot;margin:0px;margin-top:4px;text-align:center;&quot;&gt;&lt;i&gt;&amp;lt;&amp;lt;abstract&amp;gt;&amp;gt;&lt;/i&gt;&lt;b&gt;&lt;br&gt;&lt;/b&gt;&lt;/p&gt;&lt;p style=&quot;margin:0px;margin-top:4px;text-align:center;&quot;&gt;&lt;b&gt;Vetitoterem&lt;/b&gt;&lt;br&gt;&lt;b&gt;&lt;/b&gt;&lt;/p&gt;&lt;hr size=&quot;1&quot;&gt;&lt;div&gt;&amp;nbsp;+ alapAr : int&amp;nbsp; &amp;nbsp; {readonly}&lt;br&gt;&lt;/div&gt;&lt;div&gt;&amp;nbsp;+ sorokSzama : int&amp;nbsp; &amp;nbsp; {readonly}&lt;/div&gt;&lt;div&gt;&amp;nbsp;+ ulesSorban : int&amp;nbsp; &amp;nbsp; {readonly}&lt;/div&gt;&lt;hr size=&quot;1&quot;&gt;&lt;p style=&quot;margin:0px;margin-left:4px;&quot;&gt;+ Vetitoterem(alapAr:int, sorokSzama:int, ulesSorban:int)&lt;/p&gt;&lt;p style=&quot;margin:0px;margin-left:4px;&quot;&gt;+ Gyerek() : int&amp;nbsp;&amp;nbsp;&amp;nbsp; {query}&lt;br&gt;&lt;/p&gt;&lt;p style=&quot;margin:0px;margin-left:4px;&quot;&gt;+ Diak() : int&amp;nbsp;&amp;nbsp;&amp;nbsp; {query}&lt;/p&gt;&lt;p style=&quot;margin:0px;margin-left:4px;&quot;&gt;+ Felnott() : int&amp;nbsp;&amp;nbsp;&amp;nbsp; {query}&lt;/p&gt;&lt;p style=&quot;margin:0px;margin-left:4px;&quot;&gt;+ Nyugdijas() : int&amp;nbsp;&amp;nbsp;&amp;nbsp; {query}&lt;/p&gt;&lt;p style=&quot;margin:0px;margin-left:4px;&quot;&gt;+ Torzstag() : int&amp;nbsp;&amp;nbsp;&amp;nbsp; {query}&lt;/p&gt;&lt;p style=&quot;margin:0px;margin-left:4px;&quot;&gt;+ Kozepes() : boolean&amp;nbsp;&amp;nbsp;&amp;nbsp; {query}&lt;/p&gt;&lt;p style=&quot;margin:0px;margin-left:4px;&quot;&gt;+ Nagy() : boolean&amp;nbsp;&amp;nbsp;&amp;nbsp; {query}&lt;/p&gt;&lt;p style=&quot;margin:0px;margin-left:4px;&quot;&gt;+ Vip() : Boolean&amp;nbsp;&amp;nbsp;&amp;nbsp; {query}&lt;/p&gt;&lt;p style=&quot;margin:0px;margin-left:4px;&quot;&gt;+ KeresettEloadas(cim:string, ido:Ido, terem:Terem) : Film&amp;nbsp;&amp;nbsp;&amp;nbsp; {query}&lt;/p&gt;&lt;p style=&quot;margin:0px;margin-left:4px;&quot;&gt;+ UjEloadas(eloadas:Film)&lt;/p&gt;&lt;p style=&quot;margin:0px;margin-left:4px;&quot;&gt;+ ValosUles(ules:Ules)&amp;nbsp;&amp;nbsp;&amp;nbsp; {query}&lt;/p&gt;" style="verticalAlign=top;align=left;overflow=fill;fontSize=12;fontFamily=Helvetica;html=1;whiteSpace=wrap;" parent="1" vertex="1">
          <mxGeometry x="613.75" y="325" width="362.5" height="290" as="geometry" />
        </mxCell>
        <mxCell id="qI7ad0C5QOCOGanBFrG0-23" value="&lt;p style=&quot;margin:0px;margin-top:4px;text-align:center;&quot;&gt;&lt;b&gt;Szinhaz&lt;/b&gt;&lt;br&gt;&lt;/p&gt;&lt;hr size=&quot;1&quot;&gt;&amp;nbsp;+ legtobbetNezettFilm {get; set;} : string&amp;nbsp; &amp;nbsp; {readonly, query}&lt;hr size=&quot;1&quot;&gt;&lt;div&gt;&lt;div&gt;&amp;nbsp;+ Szinhaz()&lt;/div&gt;&amp;nbsp;+ Ar(vetito:Vetitoterem, tipus:Tipus) : int&amp;nbsp;&amp;nbsp;&amp;nbsp; {singleton, query}&lt;/div&gt;&lt;div&gt;&amp;nbsp;+ JegyEladas(nev:string, cim:string, ido:Ido, terem:Terem, tipus:Tipus, penz:int) : int&lt;/div&gt;&lt;div&gt;&amp;nbsp;+ Lemondas(nev:string, cim:string, ido:Ido, terem:Terem, tipus:Tipus, ules:Ules)&lt;/div&gt;&lt;div&gt;&amp;nbsp;+ Lefoglal(nev:string, cim:string, ido:Ido, terem:Terem, tipus:Tipus, ules:Ules)&lt;/div&gt;&lt;div&gt;&amp;nbsp;+ TeremNyitas(vetito:Vetitoterem)&lt;br&gt;&lt;/div&gt;" style="verticalAlign=top;align=left;overflow=fill;fontSize=12;fontFamily=Helvetica;html=1;whiteSpace=wrap;" parent="1" vertex="1">
          <mxGeometry x="560" y="55" width="470" height="150" as="geometry" />
        </mxCell>
        <mxCell id="qI7ad0C5QOCOGanBFrG0-24" value="&lt;p style=&quot;margin:0px;margin-top:4px;text-align:center;&quot;&gt;&lt;b&gt;KozepesTerem&lt;/b&gt;&lt;br&gt;&lt;/p&gt;&lt;hr size=&quot;1&quot;&gt;&lt;p style=&quot;margin:0px;margin-left:4px;&quot;&gt;+ KozepesTerem(alapAr:int, sorokSzama:int, ulesSorban:int)&lt;br&gt;&lt;/p&gt;&lt;p style=&quot;margin:0px;margin-left:4px;&quot;&gt;+ Gyerek() : int &amp;nbsp;&amp;nbsp; {override, query}&lt;br&gt;&lt;/p&gt;&lt;p style=&quot;margin:0px;margin-left:4px;&quot;&gt;+ Diak() : int &amp;nbsp;&amp;nbsp; {override, query}&lt;/p&gt;&lt;p style=&quot;margin:0px;margin-left:4px;&quot;&gt;+ Felnott() : int &amp;nbsp;&amp;nbsp; {override, query}&lt;/p&gt;&lt;p style=&quot;margin:0px;margin-left:4px;&quot;&gt;+ Nyugdijas() : int &amp;nbsp; &amp;nbsp;{override, query}&lt;/p&gt;&lt;p style=&quot;margin:0px;margin-left:4px;&quot;&gt;+ Torzstag() : int &amp;nbsp;&amp;nbsp; {override, query}&lt;/p&gt;&lt;p style=&quot;margin:0px;margin-left:4px;&quot;&gt;+ Kozepes() : boolean &amp;nbsp;&amp;nbsp; {override, query}&lt;/p&gt;&lt;p style=&quot;margin:0px;margin-left:4px;&quot;&gt;&lt;/p&gt;" style="verticalAlign=top;align=left;overflow=fill;fontSize=12;fontFamily=Helvetica;html=1;whiteSpace=wrap;" parent="1" vertex="1">
          <mxGeometry x="250" y="770.21" width="330" height="140" as="geometry" />
        </mxCell>
        <mxCell id="qI7ad0C5QOCOGanBFrG0-25" value="" style="endArrow=block;dashed=1;endFill=0;endSize=12;html=1;rounded=0;entryX=0.5;entryY=1;entryDx=0;entryDy=0;edgeStyle=elbowEdgeStyle;elbow=vertical;exitX=0.5;exitY=0;exitDx=0;exitDy=0;" parent="1" source="qI7ad0C5QOCOGanBFrG0-24" target="qI7ad0C5QOCOGanBFrG0-22" edge="1">
          <mxGeometry width="160" relative="1" as="geometry">
            <mxPoint x="390" y="730" as="sourcePoint" />
            <mxPoint x="950" y="620" as="targetPoint" />
            <Array as="points">
              <mxPoint x="700" y="710" />
              <mxPoint x="760" y="680" />
              <mxPoint x="770" y="680" />
              <mxPoint x="600" y="680" />
            </Array>
          </mxGeometry>
        </mxCell>
        <mxCell id="qI7ad0C5QOCOGanBFrG0-26" value="&lt;p style=&quot;margin:0px;margin-top:4px;text-align:center;&quot;&gt;&lt;b&gt;NagyTerem&lt;/b&gt;&lt;br&gt;&lt;/p&gt;&lt;hr size=&quot;1&quot;&gt;&lt;p style=&quot;margin:0px;margin-left:4px;&quot;&gt;+ NagyTerem(alapAr:int, sorokSzama:int, ulesSorban:int)&lt;br&gt;&lt;/p&gt;&lt;p style=&quot;margin:0px;margin-left:4px;&quot;&gt;+ Gyerek() : int &amp;nbsp;&amp;nbsp; {override, query}&lt;br&gt;&lt;/p&gt;&lt;p style=&quot;margin:0px;margin-left:4px;&quot;&gt;+ Diak() : int &amp;nbsp;&amp;nbsp; {override, query}&lt;/p&gt;&lt;p style=&quot;margin:0px;margin-left:4px;&quot;&gt;+ Nyugdijas() : int &amp;nbsp; &amp;nbsp;{override, query}&lt;/p&gt;&lt;p style=&quot;margin:0px;margin-left:4px;&quot;&gt;+ Torzstag() : int &amp;nbsp;&amp;nbsp; {override, query}&lt;/p&gt;&lt;p style=&quot;margin:0px;margin-left:4px;&quot;&gt;+ Nagy() : boolean &amp;nbsp;&amp;nbsp; {override, query}&lt;/p&gt;&lt;p style=&quot;margin:0px;margin-left:4px;&quot;&gt;&lt;/p&gt;" style="verticalAlign=top;align=left;overflow=fill;fontSize=12;fontFamily=Helvetica;html=1;whiteSpace=wrap;" parent="1" vertex="1">
          <mxGeometry x="641.25" y="770.21" width="307.5" height="130" as="geometry" />
        </mxCell>
        <mxCell id="qI7ad0C5QOCOGanBFrG0-27" value="&lt;p style=&quot;margin:0px;margin-top:4px;text-align:center;&quot;&gt;&lt;b&gt;VipTerem&lt;/b&gt;&lt;br&gt;&lt;/p&gt;&lt;hr size=&quot;1&quot;&gt;&lt;p style=&quot;margin:0px;margin-left:4px;&quot;&gt;+ VipTerem(alapAr:int, sorokSzama:int, ulesSorban:int)&lt;/p&gt;&lt;p style=&quot;margin:0px;margin-left:4px;&quot;&gt;+ Vip() : boolean &amp;nbsp;&amp;nbsp; {override, query}&lt;/p&gt;&lt;p style=&quot;margin:0px;margin-left:4px;&quot;&gt;&lt;/p&gt;" style="verticalAlign=top;align=left;overflow=fill;fontSize=12;fontFamily=Helvetica;html=1;whiteSpace=wrap;" parent="1" vertex="1">
          <mxGeometry x="1010" y="770.21" width="300" height="70" as="geometry" />
        </mxCell>
        <mxCell id="qI7ad0C5QOCOGanBFrG0-30" value="" style="endArrow=block;dashed=1;endFill=0;endSize=12;html=1;rounded=0;entryX=0.5;entryY=1;entryDx=0;entryDy=0;exitX=0.5;exitY=0;exitDx=0;exitDy=0;edgeStyle=elbowEdgeStyle;elbow=vertical;" parent="1" source="qI7ad0C5QOCOGanBFrG0-27" target="qI7ad0C5QOCOGanBFrG0-22" edge="1">
          <mxGeometry width="160" relative="1" as="geometry">
            <mxPoint x="790" y="620" as="sourcePoint" />
            <mxPoint x="950" y="620" as="targetPoint" />
            <Array as="points">
              <mxPoint x="910" y="710" />
              <mxPoint x="990" y="680" />
            </Array>
          </mxGeometry>
        </mxCell>
        <mxCell id="qI7ad0C5QOCOGanBFrG0-31" value="" style="endArrow=block;dashed=1;endFill=0;endSize=12;html=1;rounded=0;entryX=0.5;entryY=1;entryDx=0;entryDy=0;exitX=0.5;exitY=0;exitDx=0;exitDy=0;edgeStyle=elbowEdgeStyle;elbow=vertical;" parent="1" source="qI7ad0C5QOCOGanBFrG0-26" target="qI7ad0C5QOCOGanBFrG0-22" edge="1">
          <mxGeometry width="160" relative="1" as="geometry">
            <mxPoint x="830" y="660" as="sourcePoint" />
            <mxPoint x="990" y="660" as="targetPoint" />
          </mxGeometry>
        </mxCell>
        <mxCell id="qI7ad0C5QOCOGanBFrG0-32" value="&lt;p style=&quot;margin:0px;margin-top:4px;text-align:center;&quot;&gt;&lt;b&gt;Eloadas&lt;/b&gt;&lt;br&gt;&lt;/p&gt;&lt;hr size=&quot;1&quot;&gt;&lt;p style=&quot;margin:0px;margin-left:4px;&quot;&gt;+ filmcim : string&amp;nbsp; &amp;nbsp; {readonly}&lt;/p&gt;&lt;p style=&quot;margin:0px;margin-left:4px;&quot;&gt;+ maxHely : int&amp;nbsp;&amp;nbsp;&amp;nbsp; {readonly}&lt;/p&gt;&lt;p style=&quot;margin:0px;margin-left:4px;&quot;&gt;+ helyekSzama : int&lt;sup&gt;3&lt;/sup&gt;&amp;nbsp;&amp;nbsp;&amp;nbsp; {readonly, query}&lt;/p&gt;&lt;hr size=&quot;1&quot;&gt;&lt;p style=&quot;margin:0px;margin-left:4px;&quot;&gt;+ Eloadas(cim:string, ido:Ido)&lt;/p&gt;&lt;p style=&quot;margin:0px;margin-left:4px;&quot;&gt;+ Szabadda(a:Allapot)&amp;nbsp;&amp;nbsp;&amp;nbsp; {singleton}&lt;/p&gt;&lt;p style=&quot;margin:0px;margin-left:4px;&quot;&gt;+ Foglaltta(a:Allapot)&amp;nbsp;&amp;nbsp;&amp;nbsp; {singleton}&lt;/p&gt;&lt;p style=&quot;margin:0px;margin-left:4px;&quot;&gt;+ Eladotta(a:Allapot)&amp;nbsp;&amp;nbsp;&amp;nbsp; {singleton}&lt;br&gt;&lt;/p&gt;&lt;p style=&quot;margin:0px;margin-left:4px;&quot;&gt;+ FoglalttaAllitas(nev:string, tipus:Tipus, ules:Ules)&lt;/p&gt;&lt;p style=&quot;margin:0px;margin-left:4px;&quot;&gt;+ EladottaAllitas(nev:string, tipus:Tipus)&lt;/p&gt;&lt;p style=&quot;margin:0px;margin-left:4px;&quot;&gt;+ SzabaddaAllitas(nev:string, tipus:Tipus, ules:Ules)&lt;/p&gt;" style="verticalAlign=top;align=left;overflow=fill;fontSize=12;fontFamily=Helvetica;html=1;whiteSpace=wrap;" parent="1" vertex="1">
          <mxGeometry x="1105" y="316.25" width="300" height="210" as="geometry" />
        </mxCell>
        <mxCell id="qI7ad0C5QOCOGanBFrG0-33" value="&lt;p style=&quot;margin:0px;margin-top:4px;text-align:center;&quot;&gt;&lt;b&gt;Foglalas&lt;/b&gt;&lt;br&gt;&lt;/p&gt;&lt;hr size=&quot;1&quot;&gt;&lt;p style=&quot;margin:0px;margin-left:4px;&quot;&gt;+ allapot : Allapot&amp;nbsp; &amp;nbsp; {readonly}&lt;/p&gt;&lt;p style=&quot;margin:0px;margin-left:4px;&quot;&gt;+ nev : string&amp;nbsp; &amp;nbsp; {readonly}&lt;/p&gt;&lt;p style=&quot;margin:0px;margin-left:4px;&quot;&gt;+ tipus : Tipus {readonly}&lt;br&gt;&lt;/p&gt;&lt;hr size=&quot;1&quot;&gt;&lt;p style=&quot;margin:0px;margin-left:4px;&quot;&gt;+ Foglalas(nev:string, ules:Ules)&lt;br&gt;&lt;/p&gt;" style="verticalAlign=top;align=left;overflow=fill;fontSize=12;fontFamily=Helvetica;html=1;whiteSpace=wrap;" parent="1" vertex="1">
          <mxGeometry x="1160" y="580" width="190" height="110" as="geometry" />
        </mxCell>
        <mxCell id="qI7ad0C5QOCOGanBFrG0-36" value="" style="endArrow=diamondThin;endFill=0;endSize=24;html=1;rounded=0;entryX=0.5;entryY=1;entryDx=0;entryDy=0;exitX=0.5;exitY=0;exitDx=0;exitDy=0;" parent="1" source="qI7ad0C5QOCOGanBFrG0-33" target="qI7ad0C5QOCOGanBFrG0-32" edge="1">
          <mxGeometry width="160" relative="1" as="geometry">
            <mxPoint x="1320" y="500" as="sourcePoint" />
            <mxPoint x="1480" y="500" as="targetPoint" />
          </mxGeometry>
        </mxCell>
        <mxCell id="qI7ad0C5QOCOGanBFrG0-38" value="&lt;p style=&quot;margin:0px;margin-top:4px;text-align:center;&quot;&gt;&lt;b&gt;Szemely&lt;/b&gt;&lt;/p&gt;&lt;hr size=&quot;1&quot;&gt;&lt;div&gt;&amp;nbsp;+ nev : string &amp;nbsp;&amp;nbsp; {readonly}&lt;/div&gt;&amp;nbsp;- penz : int&lt;br&gt;&lt;hr size=&quot;1&quot;&gt;&lt;div&gt;&amp;nbsp;+ Szemely(nev:string, penz:int) &lt;br&gt;&lt;/div&gt;&lt;div&gt;&amp;nbsp;+ Fizet(szinhaz:Szinhaz, cim:string, ido:Ido, terem:Terem, tipus:Tipus)&lt;/div&gt;&lt;div&gt;&amp;nbsp;+ Fizet(szinhaz:Szinhaz, cim:string, ido:Ido, terem:Terem, tipus:Tipus, ules:Ules)&lt;/div&gt;&lt;div&gt;&amp;nbsp;+ Foglal(szinhaz:Szinhaz, cim:string, ido:Ido, terem:Terem, tipus:Tipus, ules:Ules)&lt;div&gt;&amp;nbsp;+ Lemond(szinhaz:Szinhaz, cim:string, ido:Ido, terem:Terem, tipus:Tipus, ules:Ules)&lt;/div&gt;&lt;/div&gt;" style="verticalAlign=top;align=left;overflow=fill;fontSize=12;fontFamily=Helvetica;html=1;whiteSpace=wrap;" parent="1" vertex="1">
          <mxGeometry x="40" y="55" width="445" height="150" as="geometry" />
        </mxCell>
        <mxCell id="wcJDTHLtC0xWf3YLXLJS-3" value="&lt;div align=&quot;left&quot;&gt;*&amp;nbsp;&amp;nbsp;&amp;nbsp;&amp;nbsp; + vetitotermek {readonly}&lt;br&gt;&lt;/div&gt;" style="text;html=1;strokeColor=none;fillColor=none;align=left;verticalAlign=middle;whiteSpace=wrap;rounded=0;" parent="1" vertex="1">
          <mxGeometry x="780" y="290" width="170" height="30" as="geometry" />
        </mxCell>
        <mxCell id="wcJDTHLtC0xWf3YLXLJS-5" value="&lt;p style=&quot;margin:0px;margin-top:4px;text-align:center;&quot;&gt;&lt;b&gt;Film&lt;/b&gt;&lt;br&gt;&lt;/p&gt;&lt;hr size=&quot;1&quot;&gt;&lt;p style=&quot;margin:0px;margin-left:4px;&quot;&gt;+ cim : string&lt;/p&gt;&lt;p style=&quot;margin:0px;margin-left:4px;&quot;&gt;+ nezettseg : int&amp;nbsp;&amp;nbsp;&amp;nbsp; {readonly}&lt;br&gt;&lt;/p&gt;&lt;hr size=&quot;1&quot;&gt;&lt;p style=&quot;margin:0px;margin-left:4px;&quot;&gt;+Film(cim:string)&lt;/p&gt;&lt;p style=&quot;margin:0px;margin-left:4px;&quot;&gt;+ PluszNezettseg()&lt;br&gt;&lt;/p&gt;" style="verticalAlign=top;align=left;overflow=fill;fontSize=12;fontFamily=Helvetica;html=1;whiteSpace=wrap;" parent="1" vertex="1">
          <mxGeometry x="1110" y="75" width="160" height="110" as="geometry" />
        </mxCell>
        <mxCell id="wcJDTHLtC0xWf3YLXLJS-6" value="&lt;p style=&quot;margin:0px;margin-top:4px;text-align:center;&quot;&gt;&lt;b&gt;Ido&lt;/b&gt;&lt;br&gt;&lt;/p&gt;&lt;hr size=&quot;1&quot;&gt;&lt;p style=&quot;margin:0px;margin-left:4px;&quot;&gt;+ kezdet : time&lt;/p&gt;&lt;p style=&quot;margin:0px;margin-left:4px;&quot;&gt;+ veg : time&lt;br&gt;&lt;/p&gt;&lt;hr size=&quot;1&quot;&gt;&lt;p style=&quot;margin:0px;margin-left:4px;&quot;&gt;+ Ido(kezdet:time, veg:time)&lt;/p&gt;&lt;p style=&quot;margin:0px;margin-left:4px;&quot;&gt;+ =(a:Ido, b:Ido)&amp;nbsp;&amp;nbsp;&amp;nbsp; {query}&lt;/p&gt;" style="verticalAlign=top;align=left;overflow=fill;fontSize=12;fontFamily=Helvetica;html=1;whiteSpace=wrap;" parent="1" vertex="1">
          <mxGeometry x="1510" y="365" width="160" height="110" as="geometry" />
        </mxCell>
        <mxCell id="mAAy-k8h5P1W6E8aGdol-2" value="" style="endArrow=none;endFill=0;endSize=12;html=1;rounded=0;exitX=1;exitY=0.5;exitDx=0;exitDy=0;entryX=0;entryY=0.5;entryDx=0;entryDy=0;startArrow=diamondThin;startFill=0;startSize=24;" parent="1" source="qI7ad0C5QOCOGanBFrG0-23" target="wcJDTHLtC0xWf3YLXLJS-5" edge="1">
          <mxGeometry width="160" relative="1" as="geometry">
            <mxPoint x="1060" y="190" as="sourcePoint" />
            <mxPoint x="1070" y="90" as="targetPoint" />
          </mxGeometry>
        </mxCell>
        <mxCell id="mAAy-k8h5P1W6E8aGdol-3" value="" style="endArrow=diamondThin;endFill=1;endSize=24;html=1;rounded=0;entryX=1;entryY=0.5;entryDx=0;entryDy=0;exitX=0;exitY=0.5;exitDx=0;exitDy=0;" parent="1" source="wcJDTHLtC0xWf3YLXLJS-6" target="qI7ad0C5QOCOGanBFrG0-32" edge="1">
          <mxGeometry width="160" relative="1" as="geometry">
            <mxPoint x="1390" y="450" as="sourcePoint" />
            <mxPoint x="1550" y="450" as="targetPoint" />
          </mxGeometry>
        </mxCell>
        <mxCell id="mAAy-k8h5P1W6E8aGdol-8" value="&lt;p style=&quot;margin:0px;margin-top:4px;text-align:center;&quot;&gt;&lt;b&gt;Ules&lt;/b&gt;&lt;br&gt;&lt;/p&gt;&lt;hr size=&quot;1&quot;&gt;&lt;p style=&quot;margin:0px;margin-left:4px;&quot;&gt;+ sor : int&lt;br&gt;&lt;/p&gt;&lt;p style=&quot;margin:0px;margin-left:4px;&quot;&gt;+ szam : int&lt;br&gt;&lt;/p&gt;&lt;hr size=&quot;1&quot;&gt;&lt;p style=&quot;margin:0px;margin-left:4px;&quot;&gt;+ Ules(sor:char, szam:int)&lt;/p&gt;&lt;p style=&quot;margin:0px;margin-left:4px;&quot;&gt;+ =(a:Ules, b:Sor)&amp;nbsp;&amp;nbsp;&amp;nbsp; {query}&lt;/p&gt;" style="verticalAlign=top;align=left;overflow=fill;fontSize=12;fontFamily=Helvetica;html=1;whiteSpace=wrap;" parent="1" vertex="1">
          <mxGeometry x="1510" y="580" width="160" height="110" as="geometry" />
        </mxCell>
        <mxCell id="mAAy-k8h5P1W6E8aGdol-9" value="" style="endArrow=diamondThin;endFill=1;endSize=24;html=1;rounded=0;entryX=1;entryY=0.5;entryDx=0;entryDy=0;exitX=0;exitY=0.5;exitDx=0;exitDy=0;" parent="1" source="mAAy-k8h5P1W6E8aGdol-8" target="qI7ad0C5QOCOGanBFrG0-33" edge="1">
          <mxGeometry width="160" relative="1" as="geometry">
            <mxPoint x="1490" y="740" as="sourcePoint" />
            <mxPoint x="1650" y="740" as="targetPoint" />
          </mxGeometry>
        </mxCell>
        <mxCell id="mAAy-k8h5P1W6E8aGdol-10" value="" style="endArrow=none;endSize=12;dashed=1;html=1;rounded=0;entryX=1;entryY=0.5;entryDx=0;entryDy=0;exitX=0;exitY=0.5;exitDx=0;exitDy=0;endFill=0;startArrow=open;startFill=0;startSize=12;" parent="1" source="qI7ad0C5QOCOGanBFrG0-23" target="qI7ad0C5QOCOGanBFrG0-38" edge="1">
          <mxGeometry x="-0.125" y="100" width="160" relative="1" as="geometry">
            <mxPoint x="460" y="250" as="sourcePoint" />
            <mxPoint x="620" y="250" as="targetPoint" />
            <mxPoint as="offset" />
          </mxGeometry>
        </mxCell>
        <mxCell id="mAAy-k8h5P1W6E8aGdol-11" value="&lt;div align=&quot;left&quot;&gt;*&amp;nbsp;&amp;nbsp;&amp;nbsp;&amp;nbsp; + foglaltHelyek {readonly}&lt;br&gt;&lt;/div&gt;" style="text;html=1;strokeColor=none;fillColor=none;align=left;verticalAlign=middle;whiteSpace=wrap;rounded=0;" parent="1" vertex="1">
          <mxGeometry x="1240" y="555" width="170" height="30" as="geometry" />
        </mxCell>
        <mxCell id="mAAy-k8h5P1W6E8aGdol-12" value="&lt;div align=&quot;center&quot;&gt;+ ules&lt;br&gt;&lt;/div&gt;&lt;div align=&quot;center&quot;&gt;{readonly}&lt;/div&gt;" style="text;html=1;strokeColor=none;fillColor=none;align=center;verticalAlign=middle;whiteSpace=wrap;rounded=0;" parent="1" vertex="1">
          <mxGeometry x="1447.5" y="635" width="55" height="40" as="geometry" />
        </mxCell>
        <mxCell id="mAAy-k8h5P1W6E8aGdol-13" value="&lt;div align=&quot;center&quot;&gt;+ ido&lt;br&gt;{readonly}&lt;/div&gt;" style="text;html=1;strokeColor=none;fillColor=none;align=center;verticalAlign=middle;whiteSpace=wrap;rounded=0;" parent="1" vertex="1">
          <mxGeometry x="1440" y="420" width="70" height="30" as="geometry" />
        </mxCell>
        <mxCell id="mAAy-k8h5P1W6E8aGdol-16" value="Színház" style="shape=umlActor;verticalLabelPosition=bottom;verticalAlign=top;html=1;" parent="1" vertex="1">
          <mxGeometry x="1950" y="230" width="30" height="60" as="geometry" />
        </mxCell>
        <mxCell id="mAAy-k8h5P1W6E8aGdol-20" style="rounded=0;orthogonalLoop=1;jettySize=auto;html=1;exitX=0;exitY=0.5;exitDx=0;exitDy=0;endArrow=none;endFill=0;" parent="1" source="mAAy-k8h5P1W6E8aGdol-17" edge="1">
          <mxGeometry relative="1" as="geometry">
            <mxPoint x="1980" y="260" as="targetPoint" />
          </mxGeometry>
        </mxCell>
        <mxCell id="mAAy-k8h5P1W6E8aGdol-23" style="edgeStyle=orthogonalEdgeStyle;rounded=0;orthogonalLoop=1;jettySize=auto;html=1;exitX=0.5;exitY=1;exitDx=0;exitDy=0;endArrow=open;endFill=0;dashed=1;dashPattern=8 8;entryX=0.5;entryY=0;entryDx=0;entryDy=0;" parent="1" source="mAAy-k8h5P1W6E8aGdol-17" target="mAAy-k8h5P1W6E8aGdol-18" edge="1">
          <mxGeometry relative="1" as="geometry">
            <mxPoint x="2140" y="230" as="targetPoint" />
          </mxGeometry>
        </mxCell>
        <mxCell id="mAAy-k8h5P1W6E8aGdol-42" style="rounded=0;orthogonalLoop=1;jettySize=auto;html=1;exitX=1;exitY=0.5;exitDx=0;exitDy=0;entryX=0;entryY=0.5;entryDx=0;entryDy=0;dashed=1;dashPattern=8 8;endArrow=open;endFill=0;" parent="1" source="mAAy-k8h5P1W6E8aGdol-17" target="mAAy-k8h5P1W6E8aGdol-41" edge="1">
          <mxGeometry relative="1" as="geometry" />
        </mxCell>
        <mxCell id="mAAy-k8h5P1W6E8aGdol-44" style="rounded=0;orthogonalLoop=1;jettySize=auto;html=1;exitX=1;exitY=0.5;exitDx=0;exitDy=0;entryX=0;entryY=0.5;entryDx=0;entryDy=0;dashed=1;dashPattern=8 8;endArrow=open;endFill=0;" parent="1" source="mAAy-k8h5P1W6E8aGdol-17" target="mAAy-k8h5P1W6E8aGdol-43" edge="1">
          <mxGeometry relative="1" as="geometry" />
        </mxCell>
        <mxCell id="mAAy-k8h5P1W6E8aGdol-17" value="Vetítőterem megnyitása" style="ellipse;whiteSpace=wrap;html=1;" parent="1" vertex="1">
          <mxGeometry x="2070" y="90" width="140" height="70" as="geometry" />
        </mxCell>
        <mxCell id="mAAy-k8h5P1W6E8aGdol-21" style="rounded=0;orthogonalLoop=1;jettySize=auto;html=1;exitX=0;exitY=0.5;exitDx=0;exitDy=0;endArrow=none;endFill=0;" parent="1" source="mAAy-k8h5P1W6E8aGdol-18" edge="1">
          <mxGeometry relative="1" as="geometry">
            <mxPoint x="1980" y="260" as="targetPoint" />
          </mxGeometry>
        </mxCell>
        <mxCell id="mAAy-k8h5P1W6E8aGdol-32" style="rounded=0;orthogonalLoop=1;jettySize=auto;html=1;exitX=1;exitY=0.5;exitDx=0;exitDy=0;entryX=0;entryY=0.5;entryDx=0;entryDy=0;dashed=1;dashPattern=8 8;endArrow=open;endFill=0;" parent="1" source="mAAy-k8h5P1W6E8aGdol-37" target="mAAy-k8h5P1W6E8aGdol-31" edge="1">
          <mxGeometry relative="1" as="geometry" />
        </mxCell>
        <mxCell id="mAAy-k8h5P1W6E8aGdol-18" value="Filmek eltervezése" style="ellipse;whiteSpace=wrap;html=1;" parent="1" vertex="1">
          <mxGeometry x="2070" y="220" width="140" height="70" as="geometry" />
        </mxCell>
        <mxCell id="mAAy-k8h5P1W6E8aGdol-22" style="rounded=0;orthogonalLoop=1;jettySize=auto;html=1;exitX=0;exitY=0.5;exitDx=0;exitDy=0;endArrow=none;endFill=0;" parent="1" source="mAAy-k8h5P1W6E8aGdol-19" edge="1">
          <mxGeometry relative="1" as="geometry">
            <mxPoint x="1980" y="260" as="targetPoint" />
          </mxGeometry>
        </mxCell>
        <mxCell id="mAAy-k8h5P1W6E8aGdol-56" style="rounded=0;orthogonalLoop=1;jettySize=auto;html=1;exitX=0;exitY=0.5;exitDx=0;exitDy=0;endArrow=none;endFill=0;" parent="1" source="mAAy-k8h5P1W6E8aGdol-19" edge="1">
          <mxGeometry relative="1" as="geometry">
            <mxPoint x="1980" y="710" as="targetPoint" />
          </mxGeometry>
        </mxCell>
        <mxCell id="mAAy-k8h5P1W6E8aGdol-59" style="rounded=0;orthogonalLoop=1;jettySize=auto;html=1;exitX=1;exitY=0.5;exitDx=0;exitDy=0;entryX=0;entryY=0.5;entryDx=0;entryDy=0;endArrow=open;endFill=0;dashed=1;dashPattern=8 8;" parent="1" source="mAAy-k8h5P1W6E8aGdol-19" target="mAAy-k8h5P1W6E8aGdol-58" edge="1">
          <mxGeometry relative="1" as="geometry" />
        </mxCell>
        <mxCell id="mAAy-k8h5P1W6E8aGdol-66" style="edgeStyle=orthogonalEdgeStyle;rounded=0;orthogonalLoop=1;jettySize=auto;html=1;exitX=1;exitY=0;exitDx=0;exitDy=0;entryX=1;entryY=1;entryDx=0;entryDy=0;endArrow=open;endFill=0;dashed=1;dashPattern=8 8;" parent="1" source="mAAy-k8h5P1W6E8aGdol-19" target="mAAy-k8h5P1W6E8aGdol-27" edge="1">
          <mxGeometry relative="1" as="geometry" />
        </mxCell>
        <mxCell id="mAAy-k8h5P1W6E8aGdol-19" value="Jegyek eladása" style="ellipse;whiteSpace=wrap;html=1;" parent="1" vertex="1">
          <mxGeometry x="2070" y="830.21" width="140" height="70" as="geometry" />
        </mxCell>
        <mxCell id="mAAy-k8h5P1W6E8aGdol-25" value="&amp;lt;precedes&amp;gt;" style="text;html=1;strokeColor=none;fillColor=none;align=center;verticalAlign=middle;whiteSpace=wrap;rounded=0;" parent="1" vertex="1">
          <mxGeometry x="2130" y="170" width="100" height="30" as="geometry" />
        </mxCell>
        <mxCell id="mAAy-k8h5P1W6E8aGdol-28" value="" style="edgeStyle=orthogonalEdgeStyle;rounded=0;orthogonalLoop=1;jettySize=auto;html=1;exitX=0.5;exitY=1;exitDx=0;exitDy=0;endArrow=open;endFill=0;dashed=1;dashPattern=8 8;" parent="1" source="mAAy-k8h5P1W6E8aGdol-18" target="mAAy-k8h5P1W6E8aGdol-27" edge="1">
          <mxGeometry relative="1" as="geometry">
            <mxPoint x="2140" y="305" as="sourcePoint" />
            <mxPoint x="2140" y="470" as="targetPoint" />
          </mxGeometry>
        </mxCell>
        <mxCell id="mAAy-k8h5P1W6E8aGdol-30" style="rounded=0;orthogonalLoop=1;jettySize=auto;html=1;exitX=0;exitY=0.5;exitDx=0;exitDy=0;endArrow=none;endFill=0;" parent="1" source="mAAy-k8h5P1W6E8aGdol-27" edge="1">
          <mxGeometry relative="1" as="geometry">
            <mxPoint x="1980" y="260" as="targetPoint" />
          </mxGeometry>
        </mxCell>
        <mxCell id="mAAy-k8h5P1W6E8aGdol-47" style="rounded=0;orthogonalLoop=1;jettySize=auto;html=1;exitX=1;exitY=0.5;exitDx=0;exitDy=0;entryX=0;entryY=0.5;entryDx=0;entryDy=0;dashed=1;dashPattern=8 8;endArrow=open;endFill=0;" parent="1" source="mAAy-k8h5P1W6E8aGdol-27" target="mAAy-k8h5P1W6E8aGdol-46" edge="1">
          <mxGeometry relative="1" as="geometry">
            <mxPoint x="2449.9999999999964" y="485" as="sourcePoint" />
          </mxGeometry>
        </mxCell>
        <mxCell id="mAAy-k8h5P1W6E8aGdol-49" style="rounded=0;orthogonalLoop=1;jettySize=auto;html=1;exitX=1;exitY=0.5;exitDx=0;exitDy=0;entryX=0;entryY=0.5;entryDx=0;entryDy=0;dashed=1;dashPattern=8 8;endArrow=open;endFill=0;" parent="1" source="mAAy-k8h5P1W6E8aGdol-27" target="mAAy-k8h5P1W6E8aGdol-48" edge="1">
          <mxGeometry relative="1" as="geometry">
            <mxPoint x="2449.9999999999964" y="485" as="sourcePoint" />
          </mxGeometry>
        </mxCell>
        <mxCell id="mAAy-k8h5P1W6E8aGdol-53" style="rounded=0;orthogonalLoop=1;jettySize=auto;html=1;exitX=1;exitY=0.5;exitDx=0;exitDy=0;entryX=0;entryY=0.5;entryDx=0;entryDy=0;dashed=1;dashPattern=8 8;endArrow=open;endFill=0;" parent="1" source="mAAy-k8h5P1W6E8aGdol-27" target="mAAy-k8h5P1W6E8aGdol-52" edge="1">
          <mxGeometry relative="1" as="geometry">
            <mxPoint x="2449.9999999999964" y="485" as="sourcePoint" />
          </mxGeometry>
        </mxCell>
        <mxCell id="mAAy-k8h5P1W6E8aGdol-55" style="rounded=0;orthogonalLoop=1;jettySize=auto;html=1;exitX=0;exitY=0.5;exitDx=0;exitDy=0;endArrow=none;endFill=0;" parent="1" source="mAAy-k8h5P1W6E8aGdol-27" edge="1">
          <mxGeometry relative="1" as="geometry">
            <mxPoint x="1980" y="710" as="targetPoint" />
          </mxGeometry>
        </mxCell>
        <mxCell id="mAAy-k8h5P1W6E8aGdol-69" style="rounded=0;orthogonalLoop=1;jettySize=auto;html=1;exitX=1;exitY=1;exitDx=0;exitDy=0;entryX=0;entryY=0.5;entryDx=0;entryDy=0;endArrow=open;endFill=0;dashed=1;dashPattern=8 8;" parent="1" source="mAAy-k8h5P1W6E8aGdol-27" target="mAAy-k8h5P1W6E8aGdol-58" edge="1">
          <mxGeometry relative="1" as="geometry" />
        </mxCell>
        <mxCell id="Cp1J3vhHp7di8gAdqNgf-50" style="edgeStyle=orthogonalEdgeStyle;rounded=0;orthogonalLoop=1;jettySize=auto;html=1;exitX=0;exitY=1;exitDx=0;exitDy=0;entryX=0;entryY=0;entryDx=0;entryDy=0;dashed=1;dashPattern=8 8;endArrow=open;endFill=0;" parent="1" source="mAAy-k8h5P1W6E8aGdol-27" target="mAAy-k8h5P1W6E8aGdol-19" edge="1">
          <mxGeometry relative="1" as="geometry" />
        </mxCell>
        <mxCell id="Cp1J3vhHp7di8gAdqNgf-77" style="rounded=0;orthogonalLoop=1;jettySize=auto;html=1;exitX=1;exitY=0.5;exitDx=0;exitDy=0;entryX=0;entryY=0.5;entryDx=0;entryDy=0;dashed=1;dashPattern=8 8;endArrow=open;endFill=0;" parent="1" source="mAAy-k8h5P1W6E8aGdol-27" target="Cp1J3vhHp7di8gAdqNgf-74" edge="1">
          <mxGeometry relative="1" as="geometry" />
        </mxCell>
        <mxCell id="7cZMRGCg5zAJAYEofahR-9" style="edgeStyle=orthogonalEdgeStyle;rounded=0;orthogonalLoop=1;jettySize=auto;html=1;exitX=0.714;exitY=0.953;exitDx=0;exitDy=0;exitPerimeter=0;entryX=0.708;entryY=0.048;entryDx=0;entryDy=0;entryPerimeter=0;dashed=1;dashPattern=8 8;endArrow=open;endFill=0;" parent="1" source="mAAy-k8h5P1W6E8aGdol-27" target="7cZMRGCg5zAJAYEofahR-7" edge="1">
          <mxGeometry relative="1" as="geometry" />
        </mxCell>
        <mxCell id="mAAy-k8h5P1W6E8aGdol-27" value="Foglalások könyvelése" style="ellipse;whiteSpace=wrap;html=1;" parent="1" vertex="1">
          <mxGeometry x="2070" y="450" width="140" height="70" as="geometry" />
        </mxCell>
        <mxCell id="mAAy-k8h5P1W6E8aGdol-29" value="&amp;lt;precedes&amp;gt;" style="text;html=1;strokeColor=none;fillColor=none;align=center;verticalAlign=middle;whiteSpace=wrap;rounded=0;" parent="1" vertex="1">
          <mxGeometry x="2130" y="360" width="100" height="30" as="geometry" />
        </mxCell>
        <mxCell id="mAAy-k8h5P1W6E8aGdol-31" value="Filmek termekhez rendelése" style="ellipse;whiteSpace=wrap;html=1;" parent="1" vertex="1">
          <mxGeometry x="2550" y="220" width="140" height="70" as="geometry" />
        </mxCell>
        <mxCell id="mAAy-k8h5P1W6E8aGdol-35" value="&amp;lt;include&amp;gt;" style="text;html=1;strokeColor=none;fillColor=none;align=center;verticalAlign=middle;whiteSpace=wrap;rounded=0;" parent="1" vertex="1">
          <mxGeometry x="2210" y="255" width="100" height="30" as="geometry" />
        </mxCell>
        <mxCell id="mAAy-k8h5P1W6E8aGdol-38" value="" style="rounded=0;orthogonalLoop=1;jettySize=auto;html=1;exitX=1;exitY=0.5;exitDx=0;exitDy=0;entryX=0;entryY=0.5;entryDx=0;entryDy=0;dashed=1;dashPattern=8 8;endArrow=open;endFill=0;" parent="1" source="mAAy-k8h5P1W6E8aGdol-18" target="mAAy-k8h5P1W6E8aGdol-37" edge="1">
          <mxGeometry relative="1" as="geometry">
            <mxPoint x="2210" y="255" as="sourcePoint" />
            <mxPoint x="2490" y="255" as="targetPoint" />
          </mxGeometry>
        </mxCell>
        <mxCell id="mAAy-k8h5P1W6E8aGdol-37" value="Filmek beszerzése" style="ellipse;whiteSpace=wrap;html=1;" parent="1" vertex="1">
          <mxGeometry x="2310" y="220" width="140" height="70" as="geometry" />
        </mxCell>
        <mxCell id="mAAy-k8h5P1W6E8aGdol-39" value="&amp;lt;include&amp;gt;" style="text;html=1;strokeColor=none;fillColor=none;align=center;verticalAlign=middle;whiteSpace=wrap;rounded=0;" parent="1" vertex="1">
          <mxGeometry x="2450" y="255" width="100" height="30" as="geometry" />
        </mxCell>
        <mxCell id="mAAy-k8h5P1W6E8aGdol-40" value="&amp;lt;include&amp;gt;" style="text;html=1;strokeColor=none;fillColor=none;align=center;verticalAlign=middle;whiteSpace=wrap;rounded=0;" parent="1" vertex="1">
          <mxGeometry x="2200" y="70" width="100" height="30" as="geometry" />
        </mxCell>
        <mxCell id="mAAy-k8h5P1W6E8aGdol-41" value="Terem alapárának megszabása" style="ellipse;whiteSpace=wrap;html=1;" parent="1" vertex="1">
          <mxGeometry x="2310" y="40" width="140" height="70" as="geometry" />
        </mxCell>
        <mxCell id="mAAy-k8h5P1W6E8aGdol-43" value="Terem sor- és oszlopszámának beállítása" style="ellipse;whiteSpace=wrap;html=1;" parent="1" vertex="1">
          <mxGeometry x="2310" y="130" width="140" height="70" as="geometry" />
        </mxCell>
        <mxCell id="mAAy-k8h5P1W6E8aGdol-45" value="&amp;lt;include&amp;gt;" style="text;html=1;strokeColor=none;fillColor=none;align=center;verticalAlign=middle;whiteSpace=wrap;rounded=0;" parent="1" vertex="1">
          <mxGeometry x="2200" y="140" width="100" height="30" as="geometry" />
        </mxCell>
        <mxCell id="Cp1J3vhHp7di8gAdqNgf-75" style="edgeStyle=orthogonalEdgeStyle;rounded=0;orthogonalLoop=1;jettySize=auto;html=1;exitX=0.5;exitY=1;exitDx=0;exitDy=0;entryX=0.5;entryY=0;entryDx=0;entryDy=0;dashed=1;dashPattern=8 8;endArrow=open;endFill=0;endSize=6;" parent="1" source="mAAy-k8h5P1W6E8aGdol-46" target="Cp1J3vhHp7di8gAdqNgf-74" edge="1">
          <mxGeometry relative="1" as="geometry" />
        </mxCell>
        <mxCell id="mAAy-k8h5P1W6E8aGdol-46" value="Foglalás nevének beállítása" style="ellipse;whiteSpace=wrap;html=1;" parent="1" vertex="1">
          <mxGeometry x="2550" y="490" width="140" height="70" as="geometry" />
        </mxCell>
        <mxCell id="Cp1J3vhHp7di8gAdqNgf-46" style="edgeStyle=orthogonalEdgeStyle;rounded=0;orthogonalLoop=1;jettySize=auto;html=1;exitX=0.5;exitY=1;exitDx=0;exitDy=0;entryX=0.5;entryY=0;entryDx=0;entryDy=0;endArrow=open;endFill=0;dashed=1;dashPattern=8 8;" parent="1" source="mAAy-k8h5P1W6E8aGdol-48" target="mAAy-k8h5P1W6E8aGdol-52" edge="1">
          <mxGeometry relative="1" as="geometry" />
        </mxCell>
        <mxCell id="mAAy-k8h5P1W6E8aGdol-48" value="Ülés lefoglalása" style="ellipse;whiteSpace=wrap;html=1;" parent="1" vertex="1">
          <mxGeometry x="2550" y="310" width="140" height="70" as="geometry" />
        </mxCell>
        <mxCell id="mAAy-k8h5P1W6E8aGdol-50" value="&amp;lt;include&amp;gt;" style="text;html=1;strokeColor=none;fillColor=none;align=center;verticalAlign=middle;whiteSpace=wrap;rounded=0;" parent="1" vertex="1">
          <mxGeometry x="2360" y="406.25" width="100" height="30" as="geometry" />
        </mxCell>
        <mxCell id="mAAy-k8h5P1W6E8aGdol-51" value="&amp;lt;include&amp;gt;" style="text;html=1;strokeColor=none;fillColor=none;align=center;verticalAlign=middle;whiteSpace=wrap;rounded=0;" parent="1" vertex="1">
          <mxGeometry x="2350" y="455" width="100" height="30" as="geometry" />
        </mxCell>
        <mxCell id="mAAy-k8h5P1W6E8aGdol-52" value="Ülés állapotának lejegyzése" style="ellipse;whiteSpace=wrap;html=1;" parent="1" vertex="1">
          <mxGeometry x="2550" y="400" width="140" height="70" as="geometry" />
        </mxCell>
        <mxCell id="mAAy-k8h5P1W6E8aGdol-54" value="Személy" style="shape=umlActor;verticalLabelPosition=bottom;verticalAlign=top;html=1;" parent="1" vertex="1">
          <mxGeometry x="1950" y="685" width="30" height="60" as="geometry" />
        </mxCell>
        <mxCell id="mAAy-k8h5P1W6E8aGdol-57" value="&amp;lt;include&amp;gt;" style="text;html=1;strokeColor=none;fillColor=none;align=center;verticalAlign=middle;whiteSpace=wrap;rounded=0;" parent="1" vertex="1">
          <mxGeometry x="2350" y="480" width="100" height="30" as="geometry" />
        </mxCell>
        <mxCell id="mAAy-k8h5P1W6E8aGdol-62" style="rounded=0;orthogonalLoop=1;jettySize=auto;html=1;exitX=1;exitY=0.5;exitDx=0;exitDy=0;entryX=0;entryY=0.5;entryDx=0;entryDy=0;dashed=1;dashPattern=8 8;endArrow=open;endFill=0;" parent="1" source="mAAy-k8h5P1W6E8aGdol-19" target="mAAy-k8h5P1W6E8aGdol-61" edge="1">
          <mxGeometry relative="1" as="geometry" />
        </mxCell>
        <mxCell id="Cp1J3vhHp7di8gAdqNgf-44" style="rounded=0;orthogonalLoop=1;jettySize=auto;html=1;exitX=1;exitY=0.5;exitDx=0;exitDy=0;entryX=0;entryY=0.5;entryDx=0;entryDy=0;dashed=1;dashPattern=8 8;endArrow=open;endFill=0;" parent="1" source="mAAy-k8h5P1W6E8aGdol-58" target="mAAy-k8h5P1W6E8aGdol-61" edge="1">
          <mxGeometry relative="1" as="geometry" />
        </mxCell>
        <mxCell id="7cZMRGCg5zAJAYEofahR-13" style="rounded=0;orthogonalLoop=1;jettySize=auto;html=1;exitX=1;exitY=0.5;exitDx=0;exitDy=0;entryX=0;entryY=0.5;entryDx=0;entryDy=0;dashed=1;dashPattern=8 8;endArrow=open;endFill=0;" parent="1" source="mAAy-k8h5P1W6E8aGdol-58" target="7cZMRGCg5zAJAYEofahR-12" edge="1">
          <mxGeometry relative="1" as="geometry" />
        </mxCell>
        <mxCell id="mAAy-k8h5P1W6E8aGdol-58" value="Foglalás ellenőrzése" style="ellipse;whiteSpace=wrap;html=1;" parent="1" vertex="1">
          <mxGeometry x="2310" y="750.21" width="140" height="70" as="geometry" />
        </mxCell>
        <mxCell id="mAAy-k8h5P1W6E8aGdol-60" value="&amp;lt;precedes&amp;gt;" style="text;html=1;strokeColor=none;fillColor=none;align=center;verticalAlign=middle;whiteSpace=wrap;rounded=0;" parent="1" vertex="1">
          <mxGeometry x="2328.63" y="860" width="100" height="30" as="geometry" />
        </mxCell>
        <mxCell id="mAAy-k8h5P1W6E8aGdol-61" value="Fizetés" style="ellipse;whiteSpace=wrap;html=1;" parent="1" vertex="1">
          <mxGeometry x="2550" y="830" width="140" height="70" as="geometry" />
        </mxCell>
        <mxCell id="mAAy-k8h5P1W6E8aGdol-64" value="&amp;lt;include&amp;gt;" style="text;html=1;strokeColor=none;fillColor=none;align=center;verticalAlign=middle;whiteSpace=wrap;rounded=0;" parent="1" vertex="1">
          <mxGeometry x="2193.63" y="745" width="100" height="30" as="geometry" />
        </mxCell>
        <mxCell id="mAAy-k8h5P1W6E8aGdol-65" value="&amp;lt;precedes&amp;gt;" style="text;html=1;strokeColor=none;fillColor=none;align=center;verticalAlign=middle;whiteSpace=wrap;rounded=0;" parent="1" vertex="1">
          <mxGeometry x="2480" y="740" width="100" height="30" as="geometry" />
        </mxCell>
        <mxCell id="mAAy-k8h5P1W6E8aGdol-70" value="&amp;lt;precedes&amp;gt;" style="text;html=1;strokeColor=none;fillColor=none;align=center;verticalAlign=middle;whiteSpace=wrap;rounded=0;" parent="1" vertex="1">
          <mxGeometry x="2320" y="680" width="100" height="30" as="geometry" />
        </mxCell>
        <mxCell id="mAAy-k8h5P1W6E8aGdol-71" value="&amp;lt;precedes&amp;gt;" style="text;html=1;strokeColor=none;fillColor=none;align=center;verticalAlign=middle;whiteSpace=wrap;rounded=0;" parent="1" vertex="1">
          <mxGeometry x="2090" y="570" width="100" height="30" as="geometry" />
        </mxCell>
        <mxCell id="mAAy-k8h5P1W6E8aGdol-73" value="&lt;font style=&quot;font-size: 36px;&quot;&gt;Használati eset diagram&lt;br&gt;&lt;/font&gt;" style="rounded=0;whiteSpace=wrap;html=1;" parent="1" vertex="1">
          <mxGeometry x="2140" y="-60" width="480" height="60" as="geometry" />
        </mxCell>
        <mxCell id="mAAy-k8h5P1W6E8aGdol-74" value="&lt;font style=&quot;font-size: 36px;&quot;&gt;Osztály diagram&lt;br&gt;&lt;/font&gt;" style="rounded=0;whiteSpace=wrap;html=1;" parent="1" vertex="1">
          <mxGeometry x="555" y="-60" width="480" height="60" as="geometry" />
        </mxCell>
        <mxCell id="mAAy-k8h5P1W6E8aGdol-75" value="" style="endArrow=diamondThin;endFill=1;endSize=24;html=1;rounded=0;entryX=0.5;entryY=1;entryDx=0;entryDy=0;exitX=0.5;exitY=0;exitDx=0;exitDy=0;" parent="1" source="qI7ad0C5QOCOGanBFrG0-22" target="qI7ad0C5QOCOGanBFrG0-23" edge="1">
          <mxGeometry width="160" relative="1" as="geometry">
            <mxPoint x="610" y="270" as="sourcePoint" />
            <mxPoint x="770" y="270" as="targetPoint" />
          </mxGeometry>
        </mxCell>
        <mxCell id="mAAy-k8h5P1W6E8aGdol-76" value="&lt;font style=&quot;font-size: 36px;&quot;&gt;Objektum&lt;/font&gt;&lt;font style=&quot;font-size: 36px;&quot;&gt; diagram&lt;br&gt;&lt;/font&gt;" style="rounded=0;whiteSpace=wrap;html=1;" parent="1" vertex="1">
          <mxGeometry x="2108.63" y="1010" width="480" height="60" as="geometry" />
        </mxCell>
        <mxCell id="Cp1J3vhHp7di8gAdqNgf-82" style="edgeStyle=orthogonalEdgeStyle;rounded=0;orthogonalLoop=1;jettySize=auto;html=1;exitX=1;exitY=0.5;exitDx=0;exitDy=0;entryX=0;entryY=0.5;entryDx=0;entryDy=0;startArrow=diamondThin;startFill=0;startSize=24;endArrow=none;endFill=0;" parent="1" source="mAAy-k8h5P1W6E8aGdol-78" target="Cp1J3vhHp7di8gAdqNgf-79" edge="1">
          <mxGeometry relative="1" as="geometry" />
        </mxCell>
        <mxCell id="Cp1J3vhHp7di8gAdqNgf-83" style="edgeStyle=orthogonalEdgeStyle;rounded=0;orthogonalLoop=1;jettySize=auto;html=1;exitX=1;exitY=0.5;exitDx=0;exitDy=0;entryX=0;entryY=0.5;entryDx=0;entryDy=0;startArrow=diamondThin;startFill=0;startSize=24;endArrow=none;endFill=0;" parent="1" source="mAAy-k8h5P1W6E8aGdol-78" target="Cp1J3vhHp7di8gAdqNgf-80" edge="1">
          <mxGeometry relative="1" as="geometry" />
        </mxCell>
        <mxCell id="mAAy-k8h5P1W6E8aGdol-78" value="&lt;p style=&quot;margin:0px;margin-top:4px;text-align:center;text-decoration:underline;&quot;&gt;&lt;b&gt;ELTE:Szinhaz&lt;/b&gt;&lt;/p&gt;&lt;hr&gt;" style="verticalAlign=top;align=left;overflow=fill;fontSize=12;fontFamily=Helvetica;html=1;whiteSpace=wrap;" parent="1" vertex="1">
          <mxGeometry x="2028.63" y="1184" width="160" height="40" as="geometry" />
        </mxCell>
        <mxCell id="Cp1J3vhHp7di8gAdqNgf-14" style="rounded=0;orthogonalLoop=1;jettySize=auto;html=1;exitX=1;exitY=0.5;exitDx=0;exitDy=0;entryX=0;entryY=0.5;entryDx=0;entryDy=0;endArrow=open;endFill=0;endSize=12;edgeStyle=elbowEdgeStyle;" parent="1" source="mAAy-k8h5P1W6E8aGdol-79" target="Cp1J3vhHp7di8gAdqNgf-12" edge="1">
          <mxGeometry relative="1" as="geometry">
            <Array as="points">
              <mxPoint x="2273.63" y="1489" />
            </Array>
          </mxGeometry>
        </mxCell>
        <mxCell id="Cp1J3vhHp7di8gAdqNgf-15" style="rounded=0;orthogonalLoop=1;jettySize=auto;html=1;exitX=1;exitY=0.5;exitDx=0;exitDy=0;entryX=0;entryY=0.5;entryDx=0;entryDy=0;endArrow=open;endFill=0;endSize=12;edgeStyle=elbowEdgeStyle;" parent="1" source="mAAy-k8h5P1W6E8aGdol-79" target="Cp1J3vhHp7di8gAdqNgf-13" edge="1">
          <mxGeometry relative="1" as="geometry">
            <Array as="points">
              <mxPoint x="2273.63" y="1419" />
            </Array>
          </mxGeometry>
        </mxCell>
        <mxCell id="mAAy-k8h5P1W6E8aGdol-79" value="&lt;p style=&quot;margin:0px;margin-top:4px;text-align:center;text-decoration:underline;&quot;&gt;&lt;b&gt;Bolyai:NagyTerem&lt;/b&gt;&lt;br&gt;&lt;/p&gt;&lt;hr&gt;&lt;p style=&quot;margin:0px;margin-left:8px;&quot;&gt;alapar = 2000&lt;br&gt;sorokSzama = 10&lt;br&gt;&lt;/p&gt;&lt;p style=&quot;margin:0px;margin-left:8px;&quot;&gt;ulesSorban = 10&lt;/p&gt;" style="verticalAlign=top;align=left;overflow=fill;fontSize=12;fontFamily=Helvetica;html=1;whiteSpace=wrap;" parent="1" vertex="1">
          <mxGeometry x="2028.63" y="1409" width="160" height="90" as="geometry" />
        </mxCell>
        <mxCell id="mAAy-k8h5P1W6E8aGdol-80" value="" style="endArrow=diamondThin;endFill=1;endSize=24;html=1;rounded=0;entryX=0.5;entryY=1;entryDx=0;entryDy=0;exitX=0.5;exitY=0;exitDx=0;exitDy=0;" parent="1" source="mAAy-k8h5P1W6E8aGdol-79" target="mAAy-k8h5P1W6E8aGdol-78" edge="1">
          <mxGeometry width="160" relative="1" as="geometry">
            <mxPoint x="2233.63" y="1379" as="sourcePoint" />
            <mxPoint x="2053.63" y="1329" as="targetPoint" />
          </mxGeometry>
        </mxCell>
        <mxCell id="Cp1J3vhHp7di8gAdqNgf-1" value="&lt;p style=&quot;margin:0px;margin-top:4px;text-align:center;text-decoration:underline;&quot;&gt;&lt;b&gt;D:Szemely&lt;/b&gt;&lt;/p&gt;&lt;hr&gt;&lt;p style=&quot;margin:0px;margin-left:8px;&quot;&gt;nev = &quot;Mekk Elek&quot;&lt;/p&gt;&lt;p style=&quot;margin:0px;margin-left:8px;&quot;&gt;penz = 2000&lt;br&gt;&lt;/p&gt;" style="verticalAlign=top;align=left;overflow=fill;fontSize=12;fontFamily=Helvetica;html=1;whiteSpace=wrap;" parent="1" vertex="1">
          <mxGeometry x="1743.63" y="1104" width="160" height="70" as="geometry" />
        </mxCell>
        <mxCell id="Cp1J3vhHp7di8gAdqNgf-2" value="&lt;p style=&quot;margin:0px;margin-top:4px;text-align:center;text-decoration:underline;&quot;&gt;&lt;b&gt;B:Szemely&lt;/b&gt;&lt;br&gt;&lt;/p&gt;&lt;hr&gt;&lt;p style=&quot;margin:0px;margin-left:8px;&quot;&gt;nev = &quot;Vizi Gizi&quot;&lt;/p&gt;&lt;p style=&quot;margin:0px;margin-left:8px;&quot;&gt;penz = 150&lt;br&gt;&lt;/p&gt;" style="verticalAlign=top;align=left;overflow=fill;fontSize=12;fontFamily=Helvetica;html=1;whiteSpace=wrap;" parent="1" vertex="1">
          <mxGeometry x="1743.63" y="1234" width="160" height="70" as="geometry" />
        </mxCell>
        <mxCell id="Cp1J3vhHp7di8gAdqNgf-6" value="" style="endArrow=open;endFill=0;endSize=12;html=1;rounded=0;exitX=1;exitY=0.5;exitDx=0;exitDy=0;entryX=0;entryY=0.5;entryDx=0;entryDy=0;dashed=1;startSize=12;startArrow=none;startFill=0;" parent="1" source="Cp1J3vhHp7di8gAdqNgf-2" target="mAAy-k8h5P1W6E8aGdol-78" edge="1">
          <mxGeometry width="160" relative="1" as="geometry">
            <mxPoint x="1833.63" y="1364" as="sourcePoint" />
            <mxPoint x="1993.63" y="1364" as="targetPoint" />
          </mxGeometry>
        </mxCell>
        <mxCell id="Cp1J3vhHp7di8gAdqNgf-7" value="" style="endArrow=open;endFill=0;endSize=12;html=1;rounded=0;exitX=1;exitY=0.5;exitDx=0;exitDy=0;entryX=0;entryY=0.5;entryDx=0;entryDy=0;dashed=1;startSize=12;startArrow=none;startFill=0;" parent="1" source="Cp1J3vhHp7di8gAdqNgf-1" target="mAAy-k8h5P1W6E8aGdol-78" edge="1">
          <mxGeometry width="160" relative="1" as="geometry">
            <mxPoint x="1973.63" y="1114" as="sourcePoint" />
            <mxPoint x="2133.63" y="1114" as="targetPoint" />
          </mxGeometry>
        </mxCell>
        <mxCell id="Cp1J3vhHp7di8gAdqNgf-8" value="&lt;div align=&quot;left&quot;&gt;*&lt;br&gt;&lt;/div&gt;" style="text;html=1;strokeColor=none;fillColor=none;align=left;verticalAlign=middle;whiteSpace=wrap;rounded=0;" parent="1" vertex="1">
          <mxGeometry x="490" y="100" width="20" height="30" as="geometry" />
        </mxCell>
        <mxCell id="Cp1J3vhHp7di8gAdqNgf-11" value="&lt;div align=&quot;right&quot;&gt;*&lt;br&gt;&lt;/div&gt;" style="text;html=1;strokeColor=none;fillColor=none;align=right;verticalAlign=middle;whiteSpace=wrap;rounded=0;" parent="1" vertex="1">
          <mxGeometry x="535" y="100" width="20" height="30" as="geometry" />
        </mxCell>
        <mxCell id="Cp1J3vhHp7di8gAdqNgf-18" style="rounded=0;orthogonalLoop=1;jettySize=auto;html=1;exitX=1;exitY=0.25;exitDx=0;exitDy=0;entryX=0;entryY=0.25;entryDx=0;entryDy=0;endSize=12;endArrow=none;endFill=0;startSize=24;startArrow=diamondThin;startFill=1;" parent="1" source="Cp1J3vhHp7di8gAdqNgf-12" target="Cp1J3vhHp7di8gAdqNgf-17" edge="1">
          <mxGeometry relative="1" as="geometry" />
        </mxCell>
        <mxCell id="Cp1J3vhHp7di8gAdqNgf-12" value="&lt;p style=&quot;margin:0px;margin-top:4px;text-align:center;text-decoration:underline;&quot;&gt;&lt;b&gt;FD:Film&lt;/b&gt;&lt;br&gt;&lt;/p&gt;&lt;hr&gt;&lt;p style=&quot;margin:0px;margin-left:8px;&quot;&gt;cim = &quot;Forest Gump&quot;&lt;/p&gt;&lt;p style=&quot;margin:0px;margin-left:8px;&quot;&gt;maxHely = 100&lt;/p&gt;" style="verticalAlign=top;align=left;overflow=fill;fontSize=12;fontFamily=Helvetica;html=1;whiteSpace=wrap;" parent="1" vertex="1">
          <mxGeometry x="2313.63" y="1479" width="160" height="71" as="geometry" />
        </mxCell>
        <mxCell id="Cp1J3vhHp7di8gAdqNgf-19" style="rounded=0;orthogonalLoop=1;jettySize=auto;html=1;exitX=1;exitY=0.75;exitDx=0;exitDy=0;entryX=0;entryY=0.75;entryDx=0;entryDy=0;endArrow=none;endFill=0;endSize=12;startArrow=diamondThin;startFill=1;targetPerimeterSpacing=0;startSize=24;" parent="1" source="Cp1J3vhHp7di8gAdqNgf-13" target="Cp1J3vhHp7di8gAdqNgf-16" edge="1">
          <mxGeometry relative="1" as="geometry" />
        </mxCell>
        <mxCell id="Cp1J3vhHp7di8gAdqNgf-71" style="edgeStyle=orthogonalEdgeStyle;rounded=0;orthogonalLoop=1;jettySize=auto;html=1;exitX=1;exitY=0.25;exitDx=0;exitDy=0;entryX=0;entryY=0.5;entryDx=0;entryDy=0;startArrow=diamondThin;startFill=0;endArrow=none;endFill=0;endSize=6;startSize=24;" parent="1" source="Cp1J3vhHp7di8gAdqNgf-13" target="Cp1J3vhHp7di8gAdqNgf-24" edge="1">
          <mxGeometry relative="1" as="geometry">
            <Array as="points">
              <mxPoint x="2593.63" y="1387" />
              <mxPoint x="2593.63" y="1125" />
            </Array>
          </mxGeometry>
        </mxCell>
        <mxCell id="Cp1J3vhHp7di8gAdqNgf-72" style="edgeStyle=orthogonalEdgeStyle;rounded=0;orthogonalLoop=1;jettySize=auto;html=1;exitX=1;exitY=0.25;exitDx=0;exitDy=0;entryX=0;entryY=0.5;entryDx=0;entryDy=0;startArrow=diamondThin;startFill=0;endArrow=none;endFill=0;endSize=6;startSize=24;" parent="1" source="Cp1J3vhHp7di8gAdqNgf-13" target="Cp1J3vhHp7di8gAdqNgf-25" edge="1">
          <mxGeometry relative="1" as="geometry">
            <Array as="points">
              <mxPoint x="2593.63" y="1387" />
              <mxPoint x="2593.63" y="1269" />
            </Array>
          </mxGeometry>
        </mxCell>
        <mxCell id="Cp1J3vhHp7di8gAdqNgf-13" value="&lt;p style=&quot;margin:0px;margin-top:4px;text-align:center;text-decoration:underline;&quot;&gt;&lt;b&gt;MR:Film&lt;/b&gt;&lt;/p&gt;&lt;hr&gt;&lt;p style=&quot;margin:0px;margin-left:8px;&quot;&gt;cim = &quot;Maugli&quot;&lt;/p&gt;&lt;p style=&quot;margin:0px;margin-left:8px;&quot;&gt;maxHely = 100&lt;br&gt;&lt;/p&gt;" style="verticalAlign=top;align=left;overflow=fill;fontSize=12;fontFamily=Helvetica;html=1;whiteSpace=wrap;" parent="1" vertex="1">
          <mxGeometry x="2313.63" y="1369" width="160" height="71" as="geometry" />
        </mxCell>
        <mxCell id="Cp1J3vhHp7di8gAdqNgf-16" value="&lt;p style=&quot;margin:0px;margin-top:4px;text-align:center;text-decoration:underline;&quot;&gt;&lt;b&gt;Reggel:Ido&lt;/b&gt;&lt;br&gt;&lt;/p&gt;&lt;hr&gt;&lt;p style=&quot;margin:0px;margin-left:8px;&quot;&gt;kezdet = 8:15&lt;/p&gt;&lt;p style=&quot;margin:0px;margin-left:8px;&quot;&gt;veg = 11:00&lt;br&gt;&lt;/p&gt;" style="verticalAlign=top;align=left;overflow=fill;fontSize=12;fontFamily=Helvetica;html=1;whiteSpace=wrap;" parent="1" vertex="1">
          <mxGeometry x="2613.63" y="1370" width="160" height="70" as="geometry" />
        </mxCell>
        <mxCell id="Cp1J3vhHp7di8gAdqNgf-17" value="&lt;p style=&quot;margin:0px;margin-top:4px;text-align:center;text-decoration:underline;&quot;&gt;&lt;b&gt;Delutan:Ido&lt;/b&gt;&lt;br&gt;&lt;/p&gt;&lt;hr&gt;&lt;p style=&quot;margin:0px;margin-left:8px;&quot;&gt;kezdet = 13:15&lt;br&gt;&lt;/p&gt;&lt;p style=&quot;margin:0px;margin-left:8px;&quot;&gt;veg = 16:00&lt;br&gt;&lt;/p&gt;" style="verticalAlign=top;align=left;overflow=fill;fontSize=12;fontFamily=Helvetica;html=1;whiteSpace=wrap;" parent="1" vertex="1">
          <mxGeometry x="2613.63" y="1479" width="160" height="70" as="geometry" />
        </mxCell>
        <mxCell id="Cp1J3vhHp7di8gAdqNgf-20" value="&lt;div align=&quot;left&quot;&gt;vetitotermek&lt;br&gt;&lt;/div&gt;" style="text;html=1;strokeColor=none;fillColor=none;align=left;verticalAlign=middle;whiteSpace=wrap;rounded=0;" parent="1" vertex="1">
          <mxGeometry x="2108.63" y="1384" width="90" height="30" as="geometry" />
        </mxCell>
        <mxCell id="Cp1J3vhHp7di8gAdqNgf-21" value="ido" style="text;html=1;strokeColor=none;fillColor=none;align=left;verticalAlign=middle;whiteSpace=wrap;rounded=0;" parent="1" vertex="1">
          <mxGeometry x="2583.63" y="1419" width="30" height="21" as="geometry" />
        </mxCell>
        <mxCell id="Cp1J3vhHp7di8gAdqNgf-22" value="ido" style="text;html=1;strokeColor=none;fillColor=none;align=left;verticalAlign=middle;whiteSpace=wrap;rounded=0;" parent="1" vertex="1">
          <mxGeometry x="2583.63" y="1490" width="30" height="30" as="geometry" />
        </mxCell>
        <mxCell id="Cp1J3vhHp7di8gAdqNgf-23" value="&lt;div align=&quot;left&quot;&gt;eloadasok&lt;br&gt;&lt;/div&gt;" style="text;html=1;strokeColor=none;fillColor=none;align=left;verticalAlign=middle;whiteSpace=wrap;rounded=0;" parent="1" vertex="1">
          <mxGeometry x="2211.13" y="1450" width="70" height="29" as="geometry" />
        </mxCell>
        <mxCell id="Cp1J3vhHp7di8gAdqNgf-31" style="edgeStyle=orthogonalEdgeStyle;rounded=0;orthogonalLoop=1;jettySize=auto;html=1;exitX=1;exitY=0.5;exitDx=0;exitDy=0;entryX=0;entryY=0.5;entryDx=0;entryDy=0;startSize=24;startArrow=diamondThin;startFill=1;endArrow=none;endFill=0;" parent="1" source="Cp1J3vhHp7di8gAdqNgf-24" target="Cp1J3vhHp7di8gAdqNgf-29" edge="1">
          <mxGeometry relative="1" as="geometry" />
        </mxCell>
        <mxCell id="Cp1J3vhHp7di8gAdqNgf-24" value="&lt;p style=&quot;margin:0px;margin-top:4px;text-align:center;text-decoration:underline;&quot;&gt;&lt;b&gt;:Foglalas&lt;/b&gt;&lt;/p&gt;&lt;hr&gt;&lt;p style=&quot;margin:0px;margin-left:8px;&quot;&gt;allapot = FOGLALT&lt;/p&gt;&lt;p style=&quot;margin:0px;margin-left:8px;&quot;&gt;nev = &quot;Mekk Elek&quot;&lt;/p&gt;&lt;p style=&quot;margin:0px;margin-left:8px;&quot;&gt;tipus = NYUGDIJAS&lt;br&gt;&lt;/p&gt;" style="verticalAlign=top;align=left;overflow=fill;fontSize=12;fontFamily=Helvetica;html=1;whiteSpace=wrap;" parent="1" vertex="1">
          <mxGeometry x="2613.63" y="1080" width="160" height="90" as="geometry" />
        </mxCell>
        <mxCell id="Cp1J3vhHp7di8gAdqNgf-32" style="edgeStyle=orthogonalEdgeStyle;rounded=0;orthogonalLoop=1;jettySize=auto;html=1;exitX=1;exitY=0.5;exitDx=0;exitDy=0;entryX=0;entryY=0.5;entryDx=0;entryDy=0;startSize=24;startArrow=diamondThin;startFill=1;endArrow=none;endFill=0;" parent="1" source="Cp1J3vhHp7di8gAdqNgf-25" target="Cp1J3vhHp7di8gAdqNgf-30" edge="1">
          <mxGeometry relative="1" as="geometry" />
        </mxCell>
        <mxCell id="Cp1J3vhHp7di8gAdqNgf-25" value="&lt;p style=&quot;margin:0px;margin-top:4px;text-align:center;text-decoration:underline;&quot;&gt;&lt;b&gt;:Foglalas&lt;/b&gt;&lt;/p&gt;&lt;hr&gt;&lt;p style=&quot;margin:0px;margin-left:8px;&quot;&gt;allapot = FOGLALT&lt;/p&gt;&lt;p style=&quot;margin:0px;margin-left:8px;&quot;&gt;nev = &quot;Mekk Elek&quot;&lt;/p&gt;&lt;p style=&quot;margin:0px;margin-left:8px;&quot;&gt;tipus = GYEREK&lt;/p&gt;" style="verticalAlign=top;align=left;overflow=fill;fontSize=12;fontFamily=Helvetica;html=1;whiteSpace=wrap;" parent="1" vertex="1">
          <mxGeometry x="2613.63" y="1224" width="160" height="90" as="geometry" />
        </mxCell>
        <mxCell id="Cp1J3vhHp7di8gAdqNgf-28" value="foglaltHelyek" style="text;html=1;strokeColor=none;fillColor=none;align=left;verticalAlign=middle;whiteSpace=wrap;rounded=0;" parent="1" vertex="1">
          <mxGeometry x="2523.63" y="1379" width="70" height="30" as="geometry" />
        </mxCell>
        <mxCell id="Cp1J3vhHp7di8gAdqNgf-29" value="&lt;p style=&quot;margin:0px;margin-top:4px;text-align:center;text-decoration:underline;&quot;&gt;&lt;b&gt;:Ules&lt;/b&gt;&lt;/p&gt;&lt;hr&gt;&lt;p style=&quot;margin:0px;margin-left:8px;&quot;&gt;sor = &#39;A&#39;&lt;/p&gt;&lt;p style=&quot;margin:0px;margin-left:8px;&quot;&gt;szam = 1&lt;br&gt;&lt;/p&gt;" style="verticalAlign=top;align=left;overflow=fill;fontSize=12;fontFamily=Helvetica;html=1;whiteSpace=wrap;" parent="1" vertex="1">
          <mxGeometry x="2873.63" y="1090" width="160" height="70" as="geometry" />
        </mxCell>
        <mxCell id="Cp1J3vhHp7di8gAdqNgf-30" value="&lt;p style=&quot;margin:0px;margin-top:4px;text-align:center;text-decoration:underline;&quot;&gt;&lt;b&gt;:Ules&lt;/b&gt;&lt;/p&gt;&lt;hr&gt;&lt;p style=&quot;margin:0px;margin-left:8px;&quot;&gt;sor = &#39;A&#39;&lt;/p&gt;&lt;p style=&quot;margin:0px;margin-left:8px;&quot;&gt;szam = 2&lt;br&gt;&lt;/p&gt;" style="verticalAlign=top;align=left;overflow=fill;fontSize=12;fontFamily=Helvetica;html=1;whiteSpace=wrap;" parent="1" vertex="1">
          <mxGeometry x="2873.63" y="1234" width="160" height="70" as="geometry" />
        </mxCell>
        <mxCell id="Cp1J3vhHp7di8gAdqNgf-33" value="&lt;div align=&quot;left&quot;&gt;ules&lt;br&gt;&lt;/div&gt;" style="text;html=1;strokeColor=none;fillColor=none;align=left;verticalAlign=middle;whiteSpace=wrap;rounded=0;" parent="1" vertex="1">
          <mxGeometry x="2843.63" y="1120" width="55" height="40" as="geometry" />
        </mxCell>
        <mxCell id="Cp1J3vhHp7di8gAdqNgf-34" value="&lt;div align=&quot;left&quot;&gt;ules&lt;br&gt;&lt;/div&gt;" style="text;html=1;strokeColor=none;fillColor=none;align=left;verticalAlign=middle;whiteSpace=wrap;rounded=0;" parent="1" vertex="1">
          <mxGeometry x="2843.63" y="1259" width="55" height="40" as="geometry" />
        </mxCell>
        <mxCell id="Cp1J3vhHp7di8gAdqNgf-35" value="&lt;p style=&quot;margin:0px;margin-top:4px;text-align:center;text-decoration:underline;&quot;&gt;&lt;b&gt;:Foglalas&lt;/b&gt;&lt;/p&gt;&lt;hr&gt;&lt;p style=&quot;margin:0px;margin-left:8px;&quot;&gt;allapot = ELADOTT&lt;/p&gt;&lt;p style=&quot;margin:0px;margin-left:8px;&quot;&gt;nev = &quot;Vizi Gizi&quot;&lt;/p&gt;&lt;p style=&quot;margin:0px;margin-left:8px;&quot;&gt;tipus = GYEREK&lt;br&gt;&lt;/p&gt;" style="verticalAlign=top;align=left;overflow=fill;fontSize=12;fontFamily=Helvetica;html=1;whiteSpace=wrap;" parent="1" vertex="1">
          <mxGeometry x="2613.63" y="1570" width="160" height="90" as="geometry" />
        </mxCell>
        <mxCell id="Cp1J3vhHp7di8gAdqNgf-36" style="rounded=0;orthogonalLoop=1;jettySize=auto;html=1;entryX=0;entryY=0.5;entryDx=0;entryDy=0;endSize=6;startSize=24;startArrow=diamondThin;startFill=0;endArrow=none;endFill=0;exitX=1;exitY=0.75;exitDx=0;exitDy=0;edgeStyle=elbowEdgeStyle;" parent="1" source="Cp1J3vhHp7di8gAdqNgf-12" target="Cp1J3vhHp7di8gAdqNgf-35" edge="1">
          <mxGeometry relative="1" as="geometry">
            <mxPoint x="2413.63" y="1790" as="sourcePoint" />
            <mxPoint x="2543.63" y="1600" as="targetPoint" />
            <Array as="points">
              <mxPoint x="2593.63" y="1570" />
            </Array>
          </mxGeometry>
        </mxCell>
        <mxCell id="Cp1J3vhHp7di8gAdqNgf-37" value="&lt;div align=&quot;right&quot;&gt;foglaltHelyek&lt;br&gt;&lt;/div&gt;" style="text;html=1;strokeColor=none;fillColor=none;align=left;verticalAlign=middle;whiteSpace=wrap;rounded=0;" parent="1" vertex="1">
          <mxGeometry x="2523.63" y="1530" width="70" height="20" as="geometry" />
        </mxCell>
        <mxCell id="Cp1J3vhHp7di8gAdqNgf-38" style="edgeStyle=orthogonalEdgeStyle;rounded=0;orthogonalLoop=1;jettySize=auto;html=1;exitX=1;exitY=0.5;exitDx=0;exitDy=0;entryX=0;entryY=0.5;entryDx=0;entryDy=0;startSize=24;startArrow=diamondThin;startFill=1;endArrow=none;endFill=0;" parent="1" source="Cp1J3vhHp7di8gAdqNgf-35" target="Cp1J3vhHp7di8gAdqNgf-39" edge="1">
          <mxGeometry relative="1" as="geometry">
            <mxPoint x="2773.63" y="1615" as="sourcePoint" />
          </mxGeometry>
        </mxCell>
        <mxCell id="Cp1J3vhHp7di8gAdqNgf-39" value="&lt;p style=&quot;margin:0px;margin-top:4px;text-align:center;text-decoration:underline;&quot;&gt;&lt;b&gt;:Ules&lt;/b&gt;&lt;/p&gt;&lt;hr&gt;&lt;p style=&quot;margin:0px;margin-left:8px;&quot;&gt;sor = &#39;A&#39;&lt;/p&gt;&lt;p style=&quot;margin:0px;margin-left:8px;&quot;&gt;szam = 1&lt;br&gt;&lt;/p&gt;" style="verticalAlign=top;align=left;overflow=fill;fontSize=12;fontFamily=Helvetica;html=1;whiteSpace=wrap;" parent="1" vertex="1">
          <mxGeometry x="2873.63" y="1580" width="160" height="70" as="geometry" />
        </mxCell>
        <mxCell id="Cp1J3vhHp7di8gAdqNgf-40" value="&lt;div align=&quot;left&quot;&gt;ules&lt;br&gt;&lt;/div&gt;" style="text;html=1;strokeColor=none;fillColor=none;align=left;verticalAlign=middle;whiteSpace=wrap;rounded=0;" parent="1" vertex="1">
          <mxGeometry x="2843.63" y="1610" width="55" height="40" as="geometry" />
        </mxCell>
        <mxCell id="Cp1J3vhHp7di8gAdqNgf-41" value="&lt;font style=&quot;font-size: 36px;&quot;&gt;&lt;span id=&quot;page40R_mcid60&quot; class=&quot;markedContent&quot;&gt;Objektum állapotgép&lt;br&gt;&lt;/span&gt;&lt;/font&gt;" style="rounded=0;whiteSpace=wrap;html=1;" parent="1" vertex="1">
          <mxGeometry x="2140" y="1770" width="480" height="60" as="geometry" />
        </mxCell>
        <mxCell id="Cp1J3vhHp7di8gAdqNgf-42" value="" style="ellipse;whiteSpace=wrap;html=1;aspect=fixed;fillColor=#000000;" parent="1" vertex="1">
          <mxGeometry x="1660" y="1900.49" width="29" height="29" as="geometry" />
        </mxCell>
        <mxCell id="Cp1J3vhHp7di8gAdqNgf-45" value="&amp;lt;precedes&amp;gt;" style="text;html=1;strokeColor=none;fillColor=none;align=center;verticalAlign=middle;whiteSpace=wrap;rounded=0;" parent="1" vertex="1">
          <mxGeometry x="2070" y="760.21" width="100" height="30" as="geometry" />
        </mxCell>
        <mxCell id="Cp1J3vhHp7di8gAdqNgf-47" value="&amp;lt;precedes&amp;gt;" style="text;html=1;strokeColor=none;fillColor=none;align=center;verticalAlign=middle;whiteSpace=wrap;rounded=0;" parent="1" vertex="1">
          <mxGeometry x="2620" y="380" width="80" height="20" as="geometry" />
        </mxCell>
        <mxCell id="Cp1J3vhHp7di8gAdqNgf-48" style="edgeStyle=orthogonalEdgeStyle;rounded=0;orthogonalLoop=1;jettySize=auto;html=1;exitX=0.5;exitY=1;exitDx=0;exitDy=0;endArrow=open;endFill=0;dashed=1;dashPattern=8 8;" parent="1" edge="1">
          <mxGeometry relative="1" as="geometry">
            <mxPoint x="2620" y="470" as="sourcePoint" />
            <mxPoint x="2620" y="490" as="targetPoint" />
          </mxGeometry>
        </mxCell>
        <mxCell id="Cp1J3vhHp7di8gAdqNgf-49" value="&amp;lt;precedes&amp;gt;" style="text;html=1;strokeColor=none;fillColor=none;align=center;verticalAlign=middle;whiteSpace=wrap;rounded=0;" parent="1" vertex="1">
          <mxGeometry x="2620" y="470" width="80" height="20" as="geometry" />
        </mxCell>
        <mxCell id="Cp1J3vhHp7di8gAdqNgf-51" value="&amp;lt;include&amp;gt;" style="text;html=1;strokeColor=none;fillColor=none;align=center;verticalAlign=middle;whiteSpace=wrap;rounded=0;" parent="1" vertex="1">
          <mxGeometry x="2193.63" y="800" width="90" height="30" as="geometry" />
        </mxCell>
        <mxCell id="Cp1J3vhHp7di8gAdqNgf-55" value="" style="ellipse;whiteSpace=wrap;html=1;aspect=fixed;fillColor=#000000;" parent="1" vertex="1">
          <mxGeometry x="3096.88" y="1900.49" width="29" height="29" as="geometry" />
        </mxCell>
        <mxCell id="Cp1J3vhHp7di8gAdqNgf-56" value="" style="ellipse;whiteSpace=wrap;html=1;aspect=fixed;fillColor=none;" parent="1" vertex="1">
          <mxGeometry x="3090" y="1893.6200000000001" width="42.75" height="42.75" as="geometry" />
        </mxCell>
        <mxCell id="Cp1J3vhHp7di8gAdqNgf-61" value="" style="rounded=0;orthogonalLoop=1;jettySize=auto;html=1;exitX=1;exitY=0.5;exitDx=0;exitDy=0;entryX=0;entryY=0.5;entryDx=0;entryDy=0;endArrow=open;endFill=0;endSize=12;" parent="1" source="Cp1J3vhHp7di8gAdqNgf-64" target="Cp1J3vhHp7di8gAdqNgf-56" edge="1">
          <mxGeometry relative="1" as="geometry">
            <mxPoint x="2490" y="1915.51" as="sourcePoint" />
            <mxPoint x="2540" y="1914.9999999999998" as="targetPoint" />
          </mxGeometry>
        </mxCell>
        <mxCell id="Cp1J3vhHp7di8gAdqNgf-65" value="" style="rounded=0;orthogonalLoop=1;jettySize=auto;html=1;exitX=1;exitY=0.5;exitDx=0;exitDy=0;entryX=0;entryY=0.5;entryDx=0;entryDy=0;endArrow=open;endFill=0;endSize=12;" parent="1" source="Cp1J3vhHp7di8gAdqNgf-42" target="Cp1J3vhHp7di8gAdqNgf-62" edge="1">
          <mxGeometry relative="1" as="geometry">
            <mxPoint x="1707.63" y="1915.49" as="sourcePoint" />
            <mxPoint x="2268.63" y="1914.49" as="targetPoint" />
          </mxGeometry>
        </mxCell>
        <mxCell id="Cp1J3vhHp7di8gAdqNgf-62" value="szabad" style="rounded=1;whiteSpace=wrap;html=1;arcSize=27;" parent="1" vertex="1">
          <mxGeometry x="1768.63" y="1884.99" width="120" height="60" as="geometry" />
        </mxCell>
        <mxCell id="Cp1J3vhHp7di8gAdqNgf-66" value="" style="rounded=0;orthogonalLoop=1;jettySize=auto;html=1;exitX=1;exitY=0.5;exitDx=0;exitDy=0;entryX=0;entryY=0.5;entryDx=0;entryDy=0;endArrow=open;endFill=0;endSize=12;" parent="1" source="Cp1J3vhHp7di8gAdqNgf-62" target="Cp1J3vhHp7di8gAdqNgf-63" edge="1">
          <mxGeometry relative="1" as="geometry">
            <mxPoint x="1988.63" y="1915.99" as="sourcePoint" />
            <mxPoint x="2388.63" y="1914.99" as="targetPoint" />
          </mxGeometry>
        </mxCell>
        <mxCell id="7cZMRGCg5zAJAYEofahR-6" style="edgeStyle=orthogonalEdgeStyle;rounded=0;orthogonalLoop=1;jettySize=auto;html=1;exitX=0.5;exitY=1;exitDx=0;exitDy=0;entryX=0.5;entryY=1;entryDx=0;entryDy=0;endSize=12;endArrow=open;endFill=0;" parent="1" source="Cp1J3vhHp7di8gAdqNgf-63" target="Cp1J3vhHp7di8gAdqNgf-62" edge="1">
          <mxGeometry relative="1" as="geometry">
            <Array as="points">
              <mxPoint x="2389" y="2020" />
              <mxPoint x="1829" y="2020" />
            </Array>
          </mxGeometry>
        </mxCell>
        <mxCell id="Cp1J3vhHp7di8gAdqNgf-63" value="foglalt" style="rounded=1;whiteSpace=wrap;html=1;arcSize=27;" parent="1" vertex="1">
          <mxGeometry x="2328.63" y="1885" width="120" height="60" as="geometry" />
        </mxCell>
        <mxCell id="Cp1J3vhHp7di8gAdqNgf-67" value="" style="rounded=0;orthogonalLoop=1;jettySize=auto;html=1;exitX=1;exitY=0.5;exitDx=0;exitDy=0;entryX=0;entryY=0.5;entryDx=0;entryDy=0;endArrow=open;endFill=0;endSize=12;" parent="1" source="Cp1J3vhHp7di8gAdqNgf-63" target="Cp1J3vhHp7di8gAdqNgf-64" edge="1">
          <mxGeometry relative="1" as="geometry">
            <mxPoint x="2318.63" y="1914.5" as="sourcePoint" />
            <mxPoint x="2568.63" y="1914.5" as="targetPoint" />
          </mxGeometry>
        </mxCell>
        <mxCell id="Cp1J3vhHp7di8gAdqNgf-64" value="eladott" style="rounded=1;whiteSpace=wrap;html=1;arcSize=27;" parent="1" vertex="1">
          <mxGeometry x="2890" y="1885" width="120" height="60" as="geometry" />
        </mxCell>
        <mxCell id="Cp1J3vhHp7di8gAdqNgf-69" value="foglal / eloadas.foglaltHelyek[i].Foglaltta(foglaltHelyek[i].allapot) " style="text;html=1;align=center;verticalAlign=middle;resizable=0;points=[];autosize=1;strokeColor=none;fillColor=none;" parent="1" vertex="1">
          <mxGeometry x="1928.63" y="1889.99" width="340" height="30" as="geometry" />
        </mxCell>
        <mxCell id="Cp1J3vhHp7di8gAdqNgf-70" value="" style="endArrow=open;endFill=1;endSize=12;html=1;rounded=0;elbow=vertical;exitX=1;exitY=0.331;exitDx=0;exitDy=0;exitPerimeter=0;entryX=0;entryY=0.5;entryDx=0;entryDy=0;" parent="1" source="qI7ad0C5QOCOGanBFrG0-22" target="qI7ad0C5QOCOGanBFrG0-32" edge="1">
          <mxGeometry width="160" relative="1" as="geometry">
            <mxPoint x="957" y="419" as="sourcePoint" />
            <mxPoint x="1160" y="421" as="targetPoint" />
          </mxGeometry>
        </mxCell>
        <mxCell id="mAAy-k8h5P1W6E8aGdol-14" value="&lt;div&gt;&lt;br&gt;&lt;/div&gt;&lt;div align=&quot;right&quot;&gt;*&lt;br&gt;&lt;/div&gt;&lt;div&gt;&lt;br&gt;&lt;/div&gt;&lt;div align=&quot;left&quot;&gt;+ eloadasok&lt;br&gt;&amp;nbsp; {readonly}&lt;br&gt;&lt;/div&gt;" style="text;html=1;strokeColor=none;fillColor=none;align=left;verticalAlign=middle;whiteSpace=wrap;rounded=0;" parent="1" vertex="1">
          <mxGeometry x="1030" y="380" width="70" height="80" as="geometry" />
        </mxCell>
        <mxCell id="Cp1J3vhHp7di8gAdqNgf-74" value="Foglalás típusának beállítása" style="ellipse;whiteSpace=wrap;html=1;" parent="1" vertex="1">
          <mxGeometry x="2550" y="580" width="140" height="70" as="geometry" />
        </mxCell>
        <mxCell id="Cp1J3vhHp7di8gAdqNgf-76" value="&amp;lt;precedes&amp;gt;" style="text;html=1;strokeColor=none;fillColor=none;align=center;verticalAlign=middle;whiteSpace=wrap;rounded=0;" parent="1" vertex="1">
          <mxGeometry x="2620" y="560" width="80" height="20" as="geometry" />
        </mxCell>
        <mxCell id="Cp1J3vhHp7di8gAdqNgf-78" value="&amp;lt;include&amp;gt;" style="text;html=1;strokeColor=none;fillColor=none;align=center;verticalAlign=middle;whiteSpace=wrap;rounded=0;" parent="1" vertex="1">
          <mxGeometry x="2360" y="530" width="100" height="30" as="geometry" />
        </mxCell>
        <mxCell id="Cp1J3vhHp7di8gAdqNgf-79" value="&lt;p style=&quot;margin:0px;margin-top:4px;text-align:center;text-decoration:underline;&quot;&gt;&lt;b&gt;:Film&lt;/b&gt;&lt;/p&gt;&lt;hr&gt;&lt;p style=&quot;margin:0px;margin-left:8px;&quot;&gt;cim = &quot;Maugli&quot;&lt;/p&gt;&lt;p style=&quot;margin:0px;margin-left:8px;&quot;&gt;nazettseg : int&amp;nbsp;&amp;nbsp;&amp;nbsp; {readonly}&lt;/p&gt;" style="verticalAlign=top;align=left;overflow=fill;fontSize=12;fontFamily=Helvetica;html=1;whiteSpace=wrap;" parent="1" vertex="1">
          <mxGeometry x="2313.63" y="1119.5" width="160" height="71" as="geometry" />
        </mxCell>
        <mxCell id="Cp1J3vhHp7di8gAdqNgf-80" value="&lt;p style=&quot;margin:0px;margin-top:4px;text-align:center;text-decoration:underline;&quot;&gt;&lt;b&gt;:Film&lt;/b&gt;&lt;/p&gt;&lt;hr&gt;&lt;p style=&quot;margin:0px;margin-left:8px;&quot;&gt;cim = &quot;Forest Gump&quot;&lt;/p&gt;&lt;p style=&quot;margin:0px;margin-left:8px;&quot;&gt;nazettseg : int&amp;nbsp;&amp;nbsp;&amp;nbsp; {readonly}&lt;/p&gt;" style="verticalAlign=top;align=left;overflow=fill;fontSize=12;fontFamily=Helvetica;html=1;whiteSpace=wrap;" parent="1" vertex="1">
          <mxGeometry x="2313.63" y="1228" width="160" height="71" as="geometry" />
        </mxCell>
        <mxCell id="Cp1J3vhHp7di8gAdqNgf-81" value="&lt;div align=&quot;right&quot;&gt;*&lt;br&gt;&lt;/div&gt;&lt;div&gt;&lt;br&gt;&lt;/div&gt;&lt;div align=&quot;left&quot;&gt;- filmtar&lt;br&gt;&lt;/div&gt;" style="text;html=1;strokeColor=none;fillColor=none;align=left;verticalAlign=middle;whiteSpace=wrap;rounded=0;" parent="1" vertex="1">
          <mxGeometry x="1060" y="105" width="70" height="50" as="geometry" />
        </mxCell>
        <mxCell id="7cZMRGCg5zAJAYEofahR-1" value="megvesz / eloadas.foglaltHelyek[i].Eladotta(foglaltHelyek[i].allapot) " style="text;html=1;align=center;verticalAlign=middle;resizable=0;points=[];autosize=1;strokeColor=none;fillColor=none;" parent="1" vertex="1">
          <mxGeometry x="2490" y="1890" width="380" height="30" as="geometry" />
        </mxCell>
        <mxCell id="7cZMRGCg5zAJAYEofahR-5" value="lemond / eloadas.foglaltHelyek[i].Szabadda(foglaltHelyek[i].allapot) " style="text;html=1;align=center;verticalAlign=middle;resizable=0;points=[];autosize=1;strokeColor=none;fillColor=none;" parent="1" vertex="1">
          <mxGeometry x="1903.63" y="1994" width="390" height="30" as="geometry" />
        </mxCell>
        <mxCell id="7cZMRGCg5zAJAYEofahR-8" style="rounded=0;orthogonalLoop=1;jettySize=auto;html=1;exitX=0;exitY=0.5;exitDx=0;exitDy=0;endArrow=none;endFill=0;" parent="1" source="7cZMRGCg5zAJAYEofahR-7" edge="1">
          <mxGeometry relative="1" as="geometry">
            <mxPoint x="1980" y="710" as="targetPoint" />
          </mxGeometry>
        </mxCell>
        <mxCell id="7cZMRGCg5zAJAYEofahR-11" style="rounded=0;orthogonalLoop=1;jettySize=auto;html=1;exitX=1;exitY=0.5;exitDx=0;exitDy=0;entryX=0;entryY=0.5;entryDx=0;entryDy=0;dashed=1;dashPattern=8 8;endArrow=open;endFill=0;" parent="1" source="7cZMRGCg5zAJAYEofahR-7" target="mAAy-k8h5P1W6E8aGdol-58" edge="1">
          <mxGeometry relative="1" as="geometry" />
        </mxCell>
        <mxCell id="7cZMRGCg5zAJAYEofahR-14" style="rounded=0;orthogonalLoop=1;jettySize=auto;html=1;exitX=1;exitY=0.5;exitDx=0;exitDy=0;entryX=0;entryY=0.5;entryDx=0;entryDy=0;dashed=1;dashPattern=8 8;endArrow=open;endFill=0;" parent="1" source="7cZMRGCg5zAJAYEofahR-7" target="7cZMRGCg5zAJAYEofahR-12" edge="1">
          <mxGeometry relative="1" as="geometry" />
        </mxCell>
        <mxCell id="7cZMRGCg5zAJAYEofahR-18" style="rounded=0;orthogonalLoop=1;jettySize=auto;html=1;exitX=0;exitY=0.5;exitDx=0;exitDy=0;endArrow=none;endFill=0;" parent="1" source="7cZMRGCg5zAJAYEofahR-7" edge="1">
          <mxGeometry relative="1" as="geometry">
            <mxPoint x="1980" y="259.9999999999998" as="targetPoint" />
          </mxGeometry>
        </mxCell>
        <mxCell id="7cZMRGCg5zAJAYEofahR-7" value="Foglalás lemondása" style="ellipse;whiteSpace=wrap;html=1;" parent="1" vertex="1">
          <mxGeometry x="2070" y="675" width="140" height="70" as="geometry" />
        </mxCell>
        <mxCell id="7cZMRGCg5zAJAYEofahR-10" value="&amp;lt;precedes&amp;gt;" style="text;html=1;strokeColor=none;fillColor=none;align=center;verticalAlign=middle;whiteSpace=wrap;rounded=0;" parent="1" vertex="1">
          <mxGeometry x="2230" y="620" width="100" height="30" as="geometry" />
        </mxCell>
        <mxCell id="7cZMRGCg5zAJAYEofahR-12" value="Foglalás törlése" style="ellipse;whiteSpace=wrap;html=1;" parent="1" vertex="1">
          <mxGeometry x="2550" y="670" width="140" height="70" as="geometry" />
        </mxCell>
        <mxCell id="7cZMRGCg5zAJAYEofahR-15" value="&amp;lt;precedes&amp;gt;" style="text;html=1;strokeColor=none;fillColor=none;align=center;verticalAlign=middle;whiteSpace=wrap;rounded=0;" parent="1" vertex="1">
          <mxGeometry x="2480" y="800.21" width="100" height="30" as="geometry" />
        </mxCell>
        <mxCell id="7cZMRGCg5zAJAYEofahR-16" value="&amp;lt;include&amp;gt;" style="text;html=1;strokeColor=none;fillColor=none;align=center;verticalAlign=middle;whiteSpace=wrap;rounded=0;" parent="1" vertex="1">
          <mxGeometry x="2120" y="790.21" width="90" height="30" as="geometry" />
        </mxCell>
        <mxCell id="7cZMRGCg5zAJAYEofahR-19" value="&lt;font style=&quot;font-size: 36px;&quot;&gt;&amp;nbsp;Függvények&lt;br&gt;&lt;/font&gt;" style="rounded=0;whiteSpace=wrap;html=1;" parent="1" vertex="1">
          <mxGeometry x="555" y="1010" width="480" height="60" as="geometry" />
        </mxCell>
        <mxCell id="7cZMRGCg5zAJAYEofahR-20" value="Szemely:" style="text;html=1;align=left;verticalAlign=middle;resizable=0;points=[];autosize=1;strokeColor=none;fillColor=none;fontSize=24;" parent="1" vertex="1">
          <mxGeometry x="120" y="1110" width="120" height="40" as="geometry" />
        </mxCell>
        <mxCell id="7cZMRGCg5zAJAYEofahR-22" value="&lt;div&gt;&lt;span style=&quot;white-space: pre;&quot;&gt; &lt;/span&gt; &lt;span style=&quot;white-space: pre;&quot;&gt; &lt;/span&gt;&amp;nbsp;&amp;nbsp;&amp;nbsp; &lt;u&gt;Szemely&lt;/u&gt;&lt;/div&gt;&lt;div&gt;...&lt;br&gt;&lt;/div&gt;" style="shape=note;size=14;whiteSpace=wrap;html=1;verticalAlign=top;align=left;" parent="1" vertex="1">
          <mxGeometry x="120" y="1150" width="180" height="49.5" as="geometry" />
        </mxCell>
        <mxCell id="7cZMRGCg5zAJAYEofahR-23" value="&lt;div&gt;&lt;span style=&quot;white-space: pre;&quot;&gt; &lt;span style=&quot;white-space: pre;&quot;&gt; &lt;/span&gt;&lt;span style=&quot;white-space: pre;&quot;&gt; &lt;/span&gt;&lt;span style=&quot;white-space: pre;&quot;&gt; &lt;/span&gt;&lt;span style=&quot;white-space: pre;&quot;&gt; &lt;/span&gt;&lt;span style=&quot;white-space: pre;&quot;&gt; &lt;/span&gt;   &lt;/span&gt;&lt;u&gt;Fizet&lt;/u&gt;&lt;/div&gt;&lt;div&gt;penz = penz - szinhaz.JegyEladas(nev, cim, ido, terem, tipus, penz)&lt;br&gt;&lt;/div&gt;" style="shape=note;size=14;whiteSpace=wrap;html=1;verticalAlign=top;align=left;" parent="1" vertex="1">
          <mxGeometry x="120" y="1224" width="360" height="45.5" as="geometry" />
        </mxCell>
        <mxCell id="7cZMRGCg5zAJAYEofahR-24" value="&lt;div&gt;&lt;span style=&quot;white-space: pre;&quot;&gt; &lt;span style=&quot;white-space: pre;&quot;&gt; &lt;/span&gt;&lt;span style=&quot;white-space: pre;&quot;&gt; &lt;/span&gt;&lt;span style=&quot;white-space: pre;&quot;&gt; &lt;/span&gt;&lt;span style=&quot;white-space: pre;&quot;&gt; &lt;/span&gt;&lt;/span&gt;&lt;u&gt;Fizet (overloaded)&lt;br&gt;&lt;/u&gt;&lt;/div&gt;&lt;div&gt;szinhaz.Lefoglal(nev, cim, ido, terem, tipus, ules)&lt;br&gt;&lt;/div&gt;&lt;div&gt;penz = penz - szinhaz.JegyEladas(nev, cim, ido, terem, tipus, penz)&lt;br&gt;&lt;/div&gt;" style="shape=note;size=14;whiteSpace=wrap;html=1;verticalAlign=top;align=left;" parent="1" vertex="1">
          <mxGeometry x="120" y="1294" width="360" height="55.5" as="geometry" />
        </mxCell>
        <mxCell id="7cZMRGCg5zAJAYEofahR-25" value="&lt;div&gt;&lt;span style=&quot;white-space: pre;&quot;&gt; &lt;span style=&quot;white-space: pre;&quot;&gt; &lt;/span&gt;&lt;span style=&quot;white-space: pre;&quot;&gt; &lt;/span&gt;&lt;span style=&quot;white-space: pre;&quot;&gt;   &lt;/span&gt;&lt;/span&gt;&lt;u&gt;Foglal&lt;br&gt;&lt;/u&gt;&lt;/div&gt;&lt;div&gt;szinhaz.Lefoglal(nev, cim, ido, terem, tipus, ules)&lt;/div&gt;" style="shape=note;size=14;whiteSpace=wrap;html=1;verticalAlign=top;align=left;" parent="1" vertex="1">
          <mxGeometry x="120" y="1373.5" width="260" height="46" as="geometry" />
        </mxCell>
        <mxCell id="7cZMRGCg5zAJAYEofahR-26" value="&lt;div&gt;&lt;span style=&quot;white-space: pre;&quot;&gt; &lt;/span&gt;&lt;span style=&quot;&quot;&gt;&lt;span style=&quot;white-space: pre;&quot;&gt;&amp;nbsp;&amp;nbsp;&amp;nbsp;&amp;nbsp;&lt;/span&gt;&lt;span style=&quot;&quot;&gt;&lt;span style=&quot;white-space: pre;&quot;&gt;&amp;nbsp;&amp;nbsp;&amp;nbsp;&amp;nbsp;&lt;/span&gt;&lt;/span&gt;&lt;span style=&quot;&quot;&gt;&lt;span style=&quot;white-space: pre;&quot;&gt;&amp;nbsp;&amp;nbsp;&amp;nbsp;&amp;nbsp;&lt;/span&gt;&lt;/span&gt;&lt;span style=&quot;&quot;&gt;&lt;span style=&quot;white-space: pre;&quot;&gt;&amp;nbsp;&amp;nbsp;&amp;nbsp;&amp;nbsp;&lt;/span&gt;&lt;/span&gt;&lt;span style=&quot;&quot;&gt;&lt;span style=&quot;&quot;&gt;&lt;span style=&quot;white-space: pre;&quot;&gt;&amp;nbsp;&amp;nbsp;&amp;nbsp;&amp;nbsp;&lt;/span&gt;&lt;/span&gt;&lt;span style=&quot;white-space: pre;&quot;&gt;&amp;nbsp;&amp;nbsp;&amp;nbsp;&amp;nbsp;&lt;/span&gt;&lt;/span&gt;&lt;/span&gt;&lt;u&gt;Lemond&lt;/u&gt;&lt;u&gt;&lt;br&gt;&lt;/u&gt;&lt;div&gt;szinhaz.Lemondas(nev, cim, ido, terem, tipus, ules)&lt;/div&gt;&lt;/div&gt;" style="shape=note;size=14;whiteSpace=wrap;html=1;verticalAlign=top;align=left;" parent="1" vertex="1">
          <mxGeometry x="120" y="1438.5" width="280" height="41" as="geometry" />
        </mxCell>
        <mxCell id="7cZMRGCg5zAJAYEofahR-28" value="&lt;div align=&quot;left&quot;&gt;Szinhaz:&lt;/div&gt;" style="text;html=1;align=left;verticalAlign=middle;resizable=0;points=[];autosize=1;strokeColor=none;fillColor=none;fontSize=24;" parent="1" vertex="1">
          <mxGeometry x="120" y="1519.5" width="120" height="40" as="geometry" />
        </mxCell>
        <mxCell id="7cZMRGCg5zAJAYEofahR-29" value="&lt;div&gt;&lt;span style=&quot;&quot;&gt;&lt;span style=&quot;white-space: pre;&quot;&gt;&lt;span style=&quot;white-space: pre;&quot;&gt; &lt;/span&gt;&lt;span style=&quot;white-space: pre;&quot;&gt; &lt;/span&gt;&lt;span style=&quot;white-space: pre;&quot;&gt;&lt;span style=&quot;white-space: pre;&quot;&gt; &lt;/span&gt;&lt;span style=&quot;white-space: pre;&quot;&gt; &lt;/span&gt;&lt;span style=&quot;white-space: pre;&quot;&gt; &lt;/span&gt; &lt;/span&gt;&lt;/span&gt;&lt;/span&gt;&lt;u&gt;legtobbetNezettFilm&lt;/u&gt;&lt;/div&gt;&lt;div&gt;get {&lt;/div&gt;&lt;div&gt;&lt;span style=&quot;&quot;&gt;&lt;span style=&quot;white-space: pre;&quot;&gt;&amp;nbsp;&amp;nbsp;&amp;nbsp;&amp;nbsp;&lt;/span&gt;&lt;/span&gt;&lt;span style=&quot;&quot;&gt;&lt;span style=&quot;white-space: pre;&quot;&gt;&amp;nbsp;&amp;nbsp;&amp;nbsp;&amp;nbsp;&lt;/span&gt;&lt;/span&gt;&lt;sub&gt;&amp;nbsp;&amp;nbsp;&amp;nbsp; &lt;span style=&quot;white-space: pre;&quot;&gt; &lt;/span&gt;&amp;nbsp;&amp;nbsp;&amp;nbsp;&amp;nbsp; |filmtar|&lt;/sub&gt;&lt;br&gt;&lt;/div&gt;&lt;div&gt;&amp;nbsp;&amp;nbsp; (max, ind):=MAX (filmtar[n].nezettseg)&lt;br&gt;&lt;/div&gt;&lt;div&gt;&lt;span style=&quot;&quot;&gt;&lt;span style=&quot;white-space: pre;&quot;&gt;&amp;nbsp;&amp;nbsp;&amp;nbsp;&amp;nbsp;&lt;/span&gt;&lt;/span&gt;&lt;span style=&quot;&quot;&gt;&lt;span style=&quot;white-space: pre;&quot;&gt;&amp;nbsp;&amp;nbsp;&lt;span style=&quot;white-space: pre;&quot;&gt; &lt;/span&gt;&lt;span style=&quot;white-space: pre;&quot;&gt; &lt;/span&gt;&lt;span style=&quot;white-space: pre;&quot;&gt; &lt;/span&gt;&lt;/span&gt;&lt;/span&gt;&lt;sup&gt;n=0&lt;/sup&gt;&lt;br&gt;&lt;/div&gt;&lt;div&gt;&amp;nbsp;&amp;nbsp; if (max = NULL) then return &quot;Nincs film a filmtárban&quot;&lt;/div&gt;&lt;div&gt;&amp;nbsp;&amp;nbsp; else if (max.nezettseg = 0) then return&quot;Nincsenek még nézettségi adatok&quot;&lt;/div&gt;&lt;div&gt;&amp;nbsp;&amp;nbsp; else return max.cim endif&lt;br&gt;&lt;/div&gt;&lt;div&gt;}&lt;/div&gt;&lt;div&gt;private set { }&lt;br&gt;&lt;/div&gt;" style="shape=note;size=14;whiteSpace=wrap;html=1;verticalAlign=top;align=left;" parent="1" vertex="1">
          <mxGeometry x="120" y="1639" width="400" height="157.5" as="geometry" />
        </mxCell>
        <mxCell id="7cZMRGCg5zAJAYEofahR-30" value="&lt;div&gt;&lt;span style=&quot;&quot;&gt;&lt;span style=&quot;white-space: pre;&quot;&gt;&amp;nbsp;&amp;nbsp;&amp;nbsp;&amp;nbsp;&lt;/span&gt;&lt;span style=&quot;&quot;&gt;&lt;span style=&quot;white-space: pre;&quot;&gt;&amp;nbsp;&amp;nbsp;&amp;nbsp;&amp;nbsp;&lt;/span&gt;&lt;/span&gt;&lt;span style=&quot;&quot;&gt;&lt;span style=&quot;white-space: pre;&quot;&gt;&amp;nbsp;&amp;nbsp;&amp;nbsp;&amp;nbsp;&lt;/span&gt;&lt;/span&gt;&lt;span style=&quot;&quot;&gt;&lt;span style=&quot;white-space: pre;&quot;&gt;&amp;nbsp;&amp;nbsp;&amp;nbsp;&amp;nbsp;&lt;/span&gt;&lt;/span&gt;&lt;span style=&quot;&quot;&gt;&lt;span style=&quot;&quot;&gt;&lt;span style=&quot;white-space: pre;&quot;&gt;&amp;nbsp;&amp;nbsp;&amp;nbsp;&amp;nbsp;&lt;/span&gt;&lt;/span&gt;&lt;span style=&quot;white-space: pre;&quot;&gt;&amp;nbsp;&amp;nbsp;&amp;nbsp;&amp;nbsp;&lt;span style=&quot;white-space: pre;&quot;&gt;             &lt;/span&gt;&lt;/span&gt;&lt;/span&gt;&lt;/span&gt;&lt;u&gt;TeremNyitas&lt;br&gt;&lt;/u&gt;&lt;/div&gt;&lt;div&gt;vetitoterem.Add(vetito)&lt;u&gt;&lt;br&gt;&lt;/u&gt;&lt;/div&gt;&lt;div&gt;foreach (Vetitotermek v in vetitotermek) loop&lt;/div&gt;&lt;div&gt;&amp;nbsp;&amp;nbsp; foreach (Eloadas e in eloadasok) loop&lt;/div&gt;&lt;div&gt;&lt;span style=&quot;white-space: pre;&quot;&gt; &lt;/span&gt;&amp;nbsp;&amp;nbsp; &lt;sub&gt;|filmtar|&lt;/sub&gt;&lt;br&gt;&lt;/div&gt;&lt;div&gt;&amp;nbsp;&amp;nbsp;&amp;nbsp;&amp;nbsp;&amp;nbsp; l:=SEARCH (filmtar[n].cim = e.filmcim)&lt;br&gt;&lt;/div&gt;&lt;div&gt;&lt;span style=&quot;white-space: pre;&quot;&gt; &lt;/span&gt;&amp;nbsp;&amp;nbsp;&amp;nbsp;&amp;nbsp; &lt;sup&gt;n=0&lt;/sup&gt;&lt;/div&gt;&lt;div&gt;&amp;nbsp;&amp;nbsp;&amp;nbsp;&amp;nbsp;&amp;nbsp; if (l = false) then filmtar.Add(new Film(e.filmcim)) endif&lt;/div&gt;&lt;div&gt;&amp;nbsp;&amp;nbsp; endloop&lt;/div&gt;&lt;div&gt;endloop&lt;br&gt;&lt;/div&gt;&lt;div&gt;&lt;br&gt;&lt;/div&gt;" style="shape=note;size=14;whiteSpace=wrap;html=1;verticalAlign=top;align=left;" parent="1" vertex="1">
          <mxGeometry x="120" y="1817.75" width="310" height="158.75" as="geometry" />
        </mxCell>
        <mxCell id="7cZMRGCg5zAJAYEofahR-31" value="&lt;span style=&quot;&quot;&gt;&lt;span style=&quot;white-space: pre;&quot;&gt;&amp;nbsp;&amp;nbsp;&amp;nbsp;&lt;/span&gt;&lt;span style=&quot;&quot;&gt;&lt;span style=&quot;white-space: pre;&quot;&gt;&amp;nbsp;&amp;nbsp;&amp;nbsp;&amp;nbsp;&lt;/span&gt;&lt;/span&gt;&lt;span style=&quot;&quot;&gt;&lt;span style=&quot;white-space: pre;&quot;&gt;&amp;nbsp;&amp;nbsp;&amp;nbsp;&amp;nbsp;&lt;/span&gt;&lt;/span&gt;&lt;span style=&quot;&quot;&gt;&lt;span style=&quot;white-space: pre;&quot;&gt;&amp;nbsp;&amp;nbsp;&amp;nbsp;&amp;nbsp;&lt;/span&gt;&lt;/span&gt;&lt;span style=&quot;&quot;&gt;&lt;span style=&quot;&quot;&gt;&lt;span style=&quot;white-space: pre;&quot;&gt;&amp;nbsp;&amp;nbsp;&amp;nbsp;&amp;nbsp;&lt;/span&gt;&lt;/span&gt;&lt;span style=&quot;white-space: pre;&quot;&gt;&amp;nbsp;&amp;nbsp;&amp;nbsp;&amp;nbsp;&lt;span style=&quot;white-space: pre;&quot;&gt; &lt;span style=&quot;white-space: pre;&quot;&gt; &lt;/span&gt;&lt;/span&gt;&lt;/span&gt;&lt;/span&gt;&lt;/span&gt;&lt;u&gt;Lefoglal&lt;/u&gt;&lt;div&gt;foreach (Vetitotermek v in vetitotermek) loop&lt;/div&gt;&lt;div&gt;&amp;nbsp;&amp;nbsp; keresett:=v.KeresettEloadas(cim, ido, terem)&lt;br&gt;&lt;/div&gt;&lt;div&gt;&amp;nbsp;&amp;nbsp; if (keresett != NULL) then&lt;/div&gt;&lt;div&gt;&amp;nbsp; &amp;nbsp; &amp;nbsp; v.ValosUles(ules)&lt;/div&gt;&lt;div&gt;&amp;nbsp; &amp;nbsp; &amp;nbsp; keresett.FoglalttaAllitas(nev, tipus, ules)&lt;/div&gt;&lt;div&gt;&amp;nbsp;&amp;nbsp;&amp;nbsp;&amp;nbsp;&amp;nbsp; return&lt;br&gt;&lt;/div&gt;&lt;div&gt;&amp;nbsp;&amp;nbsp; endif&lt;/div&gt;&lt;div&gt;endloop&lt;/div&gt;&lt;div&gt;error&lt;br&gt;&lt;/div&gt;&lt;div&gt;&lt;br&gt;&lt;/div&gt;" style="shape=note;size=14;whiteSpace=wrap;html=1;verticalAlign=top;align=left;" parent="1" vertex="1">
          <mxGeometry x="120" y="1997.13" width="250" height="158.75" as="geometry" />
        </mxCell>
        <mxCell id="7cZMRGCg5zAJAYEofahR-32" value="&lt;span style=&quot;&quot;&gt;&lt;span style=&quot;white-space: pre;&quot;&gt;&amp;nbsp;&amp;nbsp;&amp;nbsp;&lt;/span&gt;&lt;span style=&quot;&quot;&gt;&lt;span style=&quot;white-space: pre;&quot;&gt;&amp;nbsp;&amp;nbsp;&amp;nbsp;&amp;nbsp;&lt;/span&gt;&lt;/span&gt;&lt;span style=&quot;&quot;&gt;&lt;span style=&quot;white-space: pre;&quot;&gt;&amp;nbsp;&amp;nbsp;&amp;nbsp;&amp;nbsp;&lt;/span&gt;&lt;/span&gt;&lt;span style=&quot;&quot;&gt;&lt;span style=&quot;white-space: pre;&quot;&gt;&amp;nbsp;&amp;nbsp;&amp;nbsp;&amp;nbsp;&lt;/span&gt;&lt;/span&gt;&lt;span style=&quot;&quot;&gt;&lt;span style=&quot;&quot;&gt;&lt;span style=&quot;white-space: pre;&quot;&gt;&amp;nbsp;&amp;nbsp;&amp;nbsp;&amp;nbsp;&lt;/span&gt;&lt;/span&gt;&lt;span style=&quot;white-space: pre;&quot;&gt;&amp;nbsp;&amp;nbsp;&amp;nbsp;&amp;nbsp;&lt;span style=&quot;white-space: pre;&quot;&gt;       &lt;/span&gt;&lt;/span&gt;&lt;/span&gt;&lt;/span&gt;&lt;u&gt;Lemondas&lt;/u&gt;&lt;div&gt;foreach (Vetitotermek v in vetitotermek) loop&lt;/div&gt;&lt;div&gt;&amp;nbsp;&amp;nbsp; keresett:=v.KeresettEloadas(cim, ido, terem)&lt;br&gt;&lt;/div&gt;&lt;div&gt;&amp;nbsp;&amp;nbsp; if (keresett != NULL) then&lt;/div&gt;&lt;div&gt;&amp;nbsp; &amp;nbsp; &amp;nbsp; v.ValosUles(ules)&lt;/div&gt;&lt;div&gt;&amp;nbsp; &amp;nbsp; &amp;nbsp; keresett.SzabaddaAllitas(nev, tipus, ules)&lt;/div&gt;&lt;div&gt;&amp;nbsp;&amp;nbsp;&amp;nbsp;&amp;nbsp;&amp;nbsp; return&lt;br&gt;&lt;/div&gt;&lt;div&gt;&amp;nbsp;&amp;nbsp; endif&lt;/div&gt;&lt;div&gt;endloop&lt;/div&gt;&lt;div&gt;error&lt;br&gt;&lt;/div&gt;&lt;div&gt;&lt;br&gt;&lt;/div&gt;" style="shape=note;size=14;whiteSpace=wrap;html=1;verticalAlign=top;align=left;" parent="1" vertex="1">
          <mxGeometry x="120" y="2177.7400000000002" width="250" height="158.75" as="geometry" />
        </mxCell>
        <mxCell id="7cZMRGCg5zAJAYEofahR-33" value="&lt;span style=&quot;&quot;&gt;&lt;span style=&quot;&quot;&gt;&amp;nbsp;&amp;nbsp;&amp;nbsp;&lt;/span&gt;&lt;span style=&quot;&quot;&gt;&lt;span style=&quot;&quot;&gt;&amp;nbsp;&amp;nbsp;&amp;nbsp;&amp;nbsp;&lt;/span&gt;&lt;/span&gt;&lt;span style=&quot;&quot;&gt;&lt;span style=&quot;&quot;&gt;&amp;nbsp;&amp;nbsp;&amp;nbsp;&amp;nbsp;&lt;/span&gt;&lt;/span&gt;&lt;span style=&quot;&quot;&gt;&lt;span style=&quot;&quot;&gt;&amp;nbsp;&amp;nbsp;&amp;nbsp;&amp;nbsp;&lt;/span&gt;&lt;/span&gt;&lt;span style=&quot;&quot;&gt;&lt;span style=&quot;&quot;&gt;&lt;span style=&quot;&quot;&gt;&amp;nbsp;&amp;nbsp;&amp;nbsp;&amp;nbsp;&lt;/span&gt;&lt;/span&gt;&lt;span style=&quot;&quot;&gt;&amp;nbsp;&amp;nbsp;&amp;nbsp;&amp;nbsp;&lt;span style=&quot;&quot;&gt;&lt;span style=&quot;white-space: pre;&quot;&gt;&amp;nbsp;&amp;nbsp;&amp;nbsp;&amp;nbsp;&lt;/span&gt;      &lt;/span&gt;&lt;/span&gt;&lt;/span&gt;&lt;/span&gt;&lt;u&gt;JegyEladas&lt;/u&gt;&lt;div&gt;foreach (Vetitotermek v in vetitotermek) loop&lt;/div&gt;&lt;div&gt;&amp;nbsp;&amp;nbsp; keresett:=v.KeresettEloadas(cim, ido, terem)&lt;br&gt;&lt;/div&gt;&lt;div&gt;&amp;nbsp;&amp;nbsp; if (keresett != NULL) then&lt;/div&gt;&lt;div&gt;&amp;nbsp;&amp;nbsp;&amp;nbsp;&amp;nbsp;&amp;nbsp; ar:=Ar(vetito, tipus)&lt;/div&gt;&lt;div&gt;&amp;nbsp;&amp;nbsp;&amp;nbsp;&amp;nbsp;&amp;nbsp; if (ar &amp;gt; penz) then error endif&lt;/div&gt;&lt;div&gt;&amp;nbsp; &amp;nbsp; &amp;nbsp; keresett.EladottaAllitas(nev, tipus)&amp;nbsp;&amp;nbsp;&amp;nbsp;&amp;nbsp;&amp;nbsp; &lt;br&gt;&lt;div&gt;&lt;span style=&quot;white-space: pre;&quot;&gt;&amp;nbsp;&amp;nbsp;&amp;nbsp;&amp;nbsp;&lt;/span&gt;&amp;nbsp;&amp;nbsp; &lt;span style=&quot;white-space: pre;&quot;&gt; &lt;/span&gt;&lt;span style=&quot;white-space: pre;&quot;&gt; &lt;/span&gt;&lt;span style=&quot;white-space: pre;&quot;&gt; &lt;/span&gt;&lt;sub&gt;|filmtar|&lt;/sub&gt;&lt;br&gt;&lt;/div&gt;&lt;div&gt;&amp;nbsp;&amp;nbsp;&amp;nbsp;&amp;nbsp;&amp;nbsp; (l,elem):=SELECT(filmtar[n].cim = cim)&lt;br&gt;&lt;/div&gt;&lt;div&gt;&lt;span style=&quot;&quot;&gt;&lt;span style=&quot;white-space: pre;&quot;&gt;&amp;nbsp;&amp;nbsp;&amp;nbsp;&amp;nbsp;&lt;/span&gt;&lt;/span&gt;&amp;nbsp;&amp;nbsp;&amp;nbsp;&amp;nbsp; &lt;span style=&quot;white-space: pre;&quot;&gt; &lt;/span&gt;&lt;span style=&quot;white-space: pre;&quot;&gt; &lt;/span&gt;&amp;nbsp; &lt;sup&gt;n=0&lt;/sup&gt;&lt;/div&gt;&lt;/div&gt;&lt;div&gt;&amp;nbsp;&amp;nbsp;&amp;nbsp;&amp;nbsp;&amp;nbsp; elem.PluszNezettseg()&lt;br&gt;&lt;/div&gt;&lt;div&gt;&amp;nbsp;&amp;nbsp;&amp;nbsp;&amp;nbsp;&amp;nbsp; return ar&lt;br&gt;&lt;/div&gt;&lt;div&gt;&amp;nbsp;&amp;nbsp; endif&lt;/div&gt;&lt;div&gt;endloop&lt;/div&gt;&lt;div&gt;error&lt;br&gt;&lt;/div&gt;&lt;div&gt;&lt;br&gt;&lt;/div&gt;" style="shape=note;size=14;whiteSpace=wrap;html=1;verticalAlign=top;align=left;" parent="1" vertex="1">
          <mxGeometry x="120" y="2356.5" width="250" height="230" as="geometry" />
        </mxCell>
        <mxCell id="7cZMRGCg5zAJAYEofahR-34" value="&lt;span style=&quot;&quot;&gt;&lt;span style=&quot;&quot;&gt;&amp;nbsp;&amp;nbsp;&amp;nbsp;&lt;/span&gt;&lt;span style=&quot;&quot;&gt;&lt;span style=&quot;&quot;&gt;&amp;nbsp;&amp;nbsp;&amp;nbsp;&amp;nbsp;&lt;/span&gt;&lt;/span&gt;&lt;span style=&quot;&quot;&gt;&lt;span style=&quot;&quot;&gt;&amp;nbsp;&amp;nbsp;&amp;nbsp;&amp;nbsp;&lt;/span&gt;&lt;/span&gt;&lt;span style=&quot;&quot;&gt;&lt;span style=&quot;&quot;&gt;&amp;nbsp;&amp;nbsp;&amp;nbsp;&amp;nbsp;&lt;/span&gt;&lt;/span&gt;&lt;span style=&quot;&quot;&gt;&lt;span style=&quot;&quot;&gt;&lt;span style=&quot;&quot;&gt;&amp;nbsp;&amp;nbsp;&amp;nbsp;&amp;nbsp;&lt;/span&gt;&lt;/span&gt;&lt;span style=&quot;&quot;&gt;&amp;nbsp;&amp;nbsp;&amp;nbsp;&amp;nbsp;&lt;span style=&quot;&quot;&gt;&lt;span style=&quot;&quot;&gt;&amp;nbsp;&amp;nbsp;&amp;nbsp;&amp;nbsp;&lt;/span&gt;&lt;span style=&quot;&quot;&gt;&lt;span style=&quot;&quot;&gt;&amp;nbsp;&amp;nbsp;&amp;nbsp;&amp;nbsp;&lt;/span&gt;&lt;/span&gt;&amp;nbsp; &amp;nbsp;&amp;nbsp;&lt;span style=&quot;&quot;&gt;&lt;span style=&quot;&quot;&gt;&amp;nbsp;&amp;nbsp;&amp;nbsp;&amp;nbsp;&lt;/span&gt;&lt;/span&gt;&lt;span style=&quot;&quot;&gt;&lt;span style=&quot;&quot;&gt;&amp;nbsp;&amp;nbsp;&amp;nbsp;&lt;span style=&quot;white-space: pre;&quot;&gt; &lt;/span&gt;&lt;span style=&quot;white-space: pre;&quot;&gt; &lt;/span&gt;&lt;/span&gt;&lt;/span&gt;&lt;/span&gt;&lt;/span&gt;&lt;/span&gt;&lt;/span&gt;&lt;u&gt;Ar&lt;/u&gt;&lt;div&gt;szazalek:=0&lt;/div&gt;&lt;div&gt;if (tipus = Tipus.GYEREK) then szazalek:=vetito.Gyerek()&lt;/div&gt;&lt;div&gt;else if (tipus = Tipus.DIAK) then szazalek:=vetito.Diak()&lt;/div&gt;&lt;div&gt;&lt;div&gt;else if (tipus = Tipus.FELNOTT) then szazalek:=vetito.Felnott()&lt;/div&gt;&lt;div&gt;&lt;div&gt;else if (tipus = Tipus.NYUGDIJAS) then szazalek:=vetito.Nyugdijas()&lt;/div&gt;&lt;div&gt;&lt;div&gt;else if (tipus = Tipus.TORZSTAG) then szazalek:=vetito.Torzstag()&lt;/div&gt;&lt;div&gt;else error endif&lt;/div&gt;&lt;div&gt;return (vetito.alapar * ((100 - szazalek) / 100))&lt;br&gt;&lt;/div&gt;&lt;br&gt;&lt;br&gt;&lt;/div&gt;&lt;br&gt;&lt;br&gt;&lt;/div&gt;&lt;/div&gt;" style="shape=note;size=14;whiteSpace=wrap;html=1;verticalAlign=top;align=left;" parent="1" vertex="1">
          <mxGeometry x="120" y="2606.5" width="370" height="140" as="geometry" />
        </mxCell>
        <mxCell id="7cZMRGCg5zAJAYEofahR-35" value="&lt;div&gt;&lt;span style=&quot;white-space: pre;&quot;&gt; &lt;/span&gt;&lt;u&gt; Szinhaz&lt;br&gt;&lt;/u&gt;&lt;/div&gt;&lt;div&gt;vetitotermek:=new List&amp;lt;Vetitotermek&amp;gt;()&lt;br&gt;&lt;/div&gt;&lt;div&gt;filmtar:=new List&amp;lt;Film&amp;gt;()&lt;br&gt;&lt;/div&gt;" style="shape=note;size=14;whiteSpace=wrap;html=1;verticalAlign=top;align=left;" parent="1" vertex="1">
          <mxGeometry x="120" y="1559.5" width="220" height="59.5" as="geometry" />
        </mxCell>
        <mxCell id="7cZMRGCg5zAJAYEofahR-36" value="&lt;div align=&quot;left&quot;&gt;Eloadas:&lt;/div&gt;" style="text;html=1;align=left;verticalAlign=middle;resizable=0;points=[];autosize=1;strokeColor=none;fillColor=none;fontSize=24;" parent="1" vertex="1">
          <mxGeometry x="600" y="2055.25" width="120" height="40" as="geometry" />
        </mxCell>
        <mxCell id="7cZMRGCg5zAJAYEofahR-37" value="&lt;div&gt;&lt;span style=&quot;&quot;&gt;&lt;span style=&quot;&quot;&gt;&lt;span style=&quot;&quot;&gt;&lt;span style=&quot;&quot;&gt;&amp;nbsp;&amp;nbsp;&amp;nbsp;&amp;nbsp;&lt;/span&gt;&lt;/span&gt;&lt;span style=&quot;&quot;&gt;&lt;span style=&quot;&quot;&gt;&amp;nbsp;&amp;nbsp;&amp;nbsp;&amp;nbsp;&lt;/span&gt;&lt;/span&gt;&lt;span style=&quot;&quot;&gt;&lt;span style=&quot;&quot;&gt;&lt;span style=&quot;&quot;&gt;&amp;nbsp;&amp;nbsp;&amp;nbsp;&amp;nbsp;&lt;/span&gt;&lt;/span&gt;&lt;span style=&quot;&quot;&gt;&lt;span style=&quot;&quot;&gt;&amp;nbsp;&amp;nbsp;&amp;nbsp;&amp;nbsp;&lt;/span&gt;&lt;/span&gt;&lt;span style=&quot;&quot;&gt;&lt;span style=&quot;&quot;&gt;&amp;nbsp;&amp;nbsp;&amp;nbsp;&amp;nbsp;&lt;/span&gt;&lt;/span&gt;&lt;span style=&quot;&quot;&gt;&amp;nbsp;&amp;nbsp;&amp;nbsp;&amp;nbsp;&lt;/span&gt;&lt;/span&gt;&lt;/span&gt;&lt;/span&gt;&lt;span style=&quot;white-space: pre;&quot;&gt; &lt;/span&gt;&lt;span style=&quot;white-space: pre;&quot;&gt; &lt;/span&gt;&lt;span style=&quot;white-space: pre;&quot;&gt; &lt;/span&gt;&lt;u&gt;legtobbetNezettFilm&lt;/u&gt;&lt;/div&gt;&lt;div&gt;get {&lt;/div&gt;&lt;div&gt;&amp;nbsp;&amp;nbsp; return new int[] {&lt;/div&gt;&lt;div&gt;&amp;nbsp;&amp;nbsp;&amp;nbsp;&amp;nbsp;&amp;nbsp; maxHely,&lt;br&gt;&lt;/div&gt;&lt;div&gt;&lt;span style=&quot;&quot;&gt;&lt;span style=&quot;&quot;&gt;&amp;nbsp;&amp;nbsp;&amp;nbsp;&amp;nbsp;&lt;/span&gt;&lt;/span&gt;&lt;span style=&quot;&quot;&gt;&lt;span style=&quot;&quot;&gt;&amp;nbsp;&amp;nbsp;&amp;nbsp;&amp;nbsp;&lt;/span&gt;&lt;/span&gt;&lt;sub&gt;&amp;nbsp;&amp;nbsp;&amp;nbsp; &lt;span style=&quot;&quot;&gt;&lt;span style=&quot;&quot;&gt;&amp;nbsp;&amp;nbsp;&amp;nbsp;&lt;/span&gt;&lt;/span&gt;&amp;nbsp;&amp;nbsp; |foglaltHelyek|&lt;/sub&gt;&lt;br&gt;&lt;/div&gt;&lt;div&gt;&amp;nbsp;&amp;nbsp;&amp;nbsp;&amp;nbsp;&amp;nbsp; (max, ind):=Σ (foglaltHelyek[n].allapot = Allapot.FOGLALT),&lt;br&gt;&lt;/div&gt;&lt;div&gt;&lt;span style=&quot;&quot;&gt;&lt;span style=&quot;&quot;&gt;&amp;nbsp;&amp;nbsp;&amp;nbsp;&amp;nbsp;&lt;/span&gt;&lt;/span&gt;&lt;span style=&quot;&quot;&gt;&lt;span style=&quot;&quot;&gt;&amp;nbsp;&amp;nbsp;&lt;span style=&quot;&quot;&gt;&lt;span style=&quot;&quot;&gt;&amp;nbsp;&amp;nbsp;&amp;nbsp;&amp;nbsp;&lt;/span&gt;&lt;/span&gt;&lt;span style=&quot;&quot;&gt;&lt;span style=&quot;&quot;&gt;&amp;nbsp;&amp;nbsp;&amp;nbsp;&amp;nbsp;&lt;/span&gt;&lt;/span&gt;&lt;span style=&quot;&quot;&gt;&lt;span style=&quot;&quot;&gt;&amp;nbsp;&amp;nbsp;&amp;nbsp;&amp;nbsp; &amp;nbsp; &amp;nbsp;&amp;nbsp;     &lt;/span&gt;&lt;/span&gt;&lt;/span&gt;&lt;/span&gt;&lt;sup&gt;n=0&lt;/sup&gt;&lt;br&gt;&lt;div&gt;&lt;span style=&quot;&quot;&gt;&lt;/span&gt;&lt;span style=&quot;&quot;&gt;&lt;span style=&quot;&quot;&gt;&amp;nbsp;&amp;nbsp;&amp;nbsp;&amp;nbsp;&lt;/span&gt;&lt;/span&gt;&lt;sub&gt;&amp;nbsp;&amp;nbsp;&amp;nbsp; &lt;span style=&quot;&quot;&gt;&lt;span style=&quot;&quot;&gt;&amp;nbsp;&amp;nbsp;&amp;nbsp;&lt;/span&gt;&lt;/span&gt;&amp;nbsp;&amp;nbsp;&amp;nbsp;&amp;nbsp;&amp;nbsp; |foglaltHelyek|&lt;/sub&gt;&lt;br&gt;&lt;/div&gt;&lt;div&gt;&amp;nbsp;&amp;nbsp;&amp;nbsp;&amp;nbsp;&amp;nbsp; (max, ind):=Σ (foglaltHelyek[n].allapot = Allapot.ELADOTT)&lt;br&gt;&lt;/div&gt;&lt;span style=&quot;&quot;&gt;&lt;span style=&quot;&quot;&gt;&amp;nbsp;&amp;nbsp;&amp;nbsp;&amp;nbsp;&lt;/span&gt;&lt;/span&gt;&lt;span style=&quot;&quot;&gt;&lt;span style=&quot;&quot;&gt;&amp;nbsp;&amp;nbsp;&lt;span style=&quot;&quot;&gt;&lt;span style=&quot;&quot;&gt;&amp;nbsp;&amp;nbsp;&amp;nbsp;&amp;nbsp;&lt;/span&gt;&lt;/span&gt;&lt;span style=&quot;&quot;&gt;&lt;span style=&quot;&quot;&gt;&amp;nbsp;&amp;nbsp;&amp;nbsp;&amp;nbsp;&lt;/span&gt;&lt;/span&gt;&lt;span style=&quot;&quot;&gt;&lt;span style=&quot;&quot;&gt;&amp;nbsp;&amp;nbsp;&amp;nbsp;&amp;nbsp;&amp;nbsp;&amp;nbsp;&amp;nbsp;&amp;nbsp;&amp;nbsp; &lt;/span&gt;&lt;/span&gt;&lt;/span&gt;&lt;/span&gt;&lt;sup&gt;n=0&lt;/sup&gt;&lt;/div&gt;&lt;div&gt;&lt;sup&gt;&amp;nbsp;&amp;nbsp; }&lt;/sup&gt;&lt;/div&gt;&lt;div&gt;}&lt;/div&gt;&lt;div&gt;private set { }&lt;br&gt;&lt;/div&gt;" style="shape=note;size=14;whiteSpace=wrap;html=1;verticalAlign=top;align=left;" parent="1" vertex="1">
          <mxGeometry x="600" y="2095.25" width="400" height="209.75" as="geometry" />
        </mxCell>
        <mxCell id="7cZMRGCg5zAJAYEofahR-38" value="&lt;div&gt;&lt;span style=&quot;white-space: pre;&quot;&gt; &lt;span style=&quot;white-space: pre;&quot;&gt; &lt;/span&gt;&lt;span style=&quot;white-space: pre;&quot;&gt; &lt;/span&gt;&lt;span style=&quot;white-space: pre;&quot;&gt;   &lt;/span&gt;&lt;/span&gt;&lt;u&gt;Szabadda&lt;br&gt;&lt;/u&gt;&lt;/div&gt;&lt;div&gt;if (a = Allapot.FOGLALT) then a:=Allapot.SZABAD&lt;/div&gt;&lt;div&gt;else error endif&lt;br&gt;&lt;/div&gt;" style="shape=note;size=14;whiteSpace=wrap;html=1;verticalAlign=top;align=left;" parent="1" vertex="1">
          <mxGeometry x="600" y="2332.5" width="270" height="52.5" as="geometry" />
        </mxCell>
        <mxCell id="7cZMRGCg5zAJAYEofahR-39" value="&lt;div&gt;&lt;span style=&quot;white-space: pre;&quot;&gt; &lt;span style=&quot;white-space: pre;&quot;&gt; &lt;/span&gt;&lt;span style=&quot;white-space: pre;&quot;&gt; &lt;/span&gt;&lt;span style=&quot;white-space: pre;&quot;&gt;   &lt;/span&gt;&lt;/span&gt;&lt;u&gt;Foglaltta&lt;br&gt;&lt;/u&gt;&lt;/div&gt;&lt;div&gt;if (a = Allapot.SZABAD) then a:=Allapot.FOGLALT&lt;/div&gt;&lt;div&gt;else error endif&lt;br&gt;&lt;/div&gt;" style="shape=note;size=14;whiteSpace=wrap;html=1;verticalAlign=top;align=left;" parent="1" vertex="1">
          <mxGeometry x="600" y="2406.88" width="270" height="52.5" as="geometry" />
        </mxCell>
        <mxCell id="7cZMRGCg5zAJAYEofahR-40" value="&lt;div&gt;&lt;span style=&quot;white-space: pre;&quot;&gt; &lt;span style=&quot;white-space: pre;&quot;&gt; &lt;/span&gt;&lt;span style=&quot;white-space: pre;&quot;&gt; &lt;/span&gt;&lt;span style=&quot;white-space: pre;&quot;&gt;   &lt;/span&gt;&lt;/span&gt;&lt;u&gt;Eladotta&lt;br&gt;&lt;/u&gt;&lt;/div&gt;&lt;div&gt;if (a = Allapot.FOGLALT) then a:=Allapot.ELADOTT&lt;/div&gt;&lt;div&gt;else error endif&lt;br&gt;&lt;/div&gt;" style="shape=note;size=14;whiteSpace=wrap;html=1;verticalAlign=top;align=left;" parent="1" vertex="1">
          <mxGeometry x="600" y="2480.63" width="270" height="52.5" as="geometry" />
        </mxCell>
        <mxCell id="7cZMRGCg5zAJAYEofahR-41" value="&lt;div&gt;&lt;span style=&quot;&quot;&gt;&lt;span style=&quot;white-space: pre;&quot;&gt;&amp;nbsp;&amp;nbsp;&amp;nbsp;&amp;nbsp;&lt;/span&gt;&lt;span style=&quot;&quot;&gt;&lt;span style=&quot;white-space: pre;&quot;&gt;&amp;nbsp;&amp;nbsp;&amp;nbsp;&amp;nbsp;&lt;/span&gt;&lt;/span&gt;&lt;span style=&quot;&quot;&gt;&lt;span style=&quot;white-space: pre;&quot;&gt;&amp;nbsp;&amp;nbsp;&amp;nbsp;&amp;nbsp;&lt;/span&gt;&lt;/span&gt;&lt;span style=&quot;&quot;&gt;&lt;span style=&quot;white-space: pre;&quot;&gt;&amp;nbsp;&amp;nbsp;&amp;nbsp;&amp;nbsp;&lt;/span&gt;  &lt;/span&gt;&lt;/span&gt;&lt;u&gt;FoglalttaAllitas&lt;br&gt;&lt;/u&gt;&lt;/div&gt;&lt;div&gt;&lt;div&gt;&lt;span style=&quot;white-space: pre;&quot;&gt;&amp;nbsp;&amp;nbsp;&amp;nbsp;&amp;nbsp;&lt;/span&gt;&lt;sub&gt;&amp;nbsp;&amp;nbsp; |filmtar|&lt;/sub&gt;&lt;br&gt;&lt;/div&gt;&lt;div&gt;l:=SEARCH (filmtar[n].cim = e.filmcim)&lt;br&gt;&lt;/div&gt;&lt;div&gt;&lt;span style=&quot;&quot;&gt;&lt;span style=&quot;white-space: pre;&quot;&gt;&amp;nbsp;&amp;nbsp;&amp;nbsp;&amp;nbsp;&lt;/span&gt;&lt;/span&gt;&amp;nbsp;&amp;nbsp;&amp;nbsp;&amp;nbsp; &lt;sup&gt;n=0&lt;/sup&gt;&lt;/div&gt;&lt;/div&gt;&lt;div&gt;if (l) then error&lt;/div&gt;&lt;div&gt;else&lt;/div&gt;&lt;div&gt;&amp;nbsp;&amp;nbsp; f:=new Foglalas(nev, ules, tipus)&lt;/div&gt;&lt;div&gt;&amp;nbsp;&amp;nbsp; foglalthelyek.Add(f)&lt;/div&gt;&lt;div&gt;&amp;nbsp;&amp;nbsp; Foglaltta(f.allapot)&lt;br&gt;&lt;/div&gt;&lt;div&gt;endif&lt;br&gt;&lt;/div&gt;" style="shape=note;size=14;whiteSpace=wrap;html=1;verticalAlign=top;align=left;" parent="1" vertex="1">
          <mxGeometry x="600" y="2555" width="210" height="160" as="geometry" />
        </mxCell>
        <mxCell id="7cZMRGCg5zAJAYEofahR-42" value="&lt;div&gt;&lt;span style=&quot;&quot;&gt;&lt;span style=&quot;&quot;&gt;&amp;nbsp;&amp;nbsp;&amp;nbsp;&amp;nbsp;&lt;/span&gt;&lt;span style=&quot;&quot;&gt;&lt;span style=&quot;&quot;&gt;&amp;nbsp;&amp;nbsp;&amp;nbsp;&amp;nbsp;&lt;/span&gt;&lt;/span&gt;&lt;span style=&quot;&quot;&gt;&lt;span style=&quot;&quot;&gt;&amp;nbsp;&amp;nbsp;&amp;nbsp;&amp;nbsp;&lt;/span&gt;&lt;/span&gt;&lt;span style=&quot;&quot;&gt;&lt;span style=&quot;&quot;&gt;&amp;nbsp;&amp;nbsp;&amp;nbsp;&amp;nbsp;&lt;/span&gt;&lt;/span&gt;&lt;/span&gt;&lt;span style=&quot;white-space: pre;&quot;&gt; &lt;/span&gt;&lt;span style=&quot;white-space: pre;&quot;&gt; &lt;/span&gt;&lt;span style=&quot;white-space: pre;&quot;&gt; &lt;/span&gt;&lt;span style=&quot;white-space: pre;&quot;&gt; &lt;/span&gt;&lt;span style=&quot;white-space: pre;&quot;&gt; &lt;/span&gt;&lt;span style=&quot;white-space: pre;&quot;&gt; &lt;/span&gt;&lt;span style=&quot;white-space: pre;&quot;&gt; &lt;/span&gt;&lt;span style=&quot;white-space: pre;&quot;&gt; &lt;/span&gt;&amp;nbsp; &lt;u&gt;EladottaAllitas&lt;br&gt;&lt;/u&gt;&lt;/div&gt;&lt;div&gt;for i=0..|foglaltHelyek| loop&lt;/div&gt;&lt;div&gt;&amp;nbsp;&amp;nbsp; if (foglaltHelyek[i].nev = nev ∧ foglaltHelyek[i].tipus = tipus ∧ foglaltHelyek[i].allapot = Allapot.FOGLALT) then&lt;/div&gt;&lt;div&gt;&amp;nbsp;&amp;nbsp;&amp;nbsp;&amp;nbsp;&amp;nbsp; Eladotta(foglalthelyek[i].allapot)&lt;/div&gt;&lt;div&gt;&amp;nbsp;&amp;nbsp;&amp;nbsp;&amp;nbsp;&amp;nbsp; return&lt;/div&gt;&lt;div&gt;&amp;nbsp;&amp;nbsp; endif&lt;br&gt;&lt;/div&gt;&lt;div&gt;endloop&lt;br&gt;&lt;/div&gt;&lt;div&gt;error&lt;br&gt;&lt;/div&gt;" style="shape=note;size=14;whiteSpace=wrap;html=1;verticalAlign=top;align=left;" parent="1" vertex="1">
          <mxGeometry x="600" y="2737.49" width="600" height="127.51" as="geometry" />
        </mxCell>
        <mxCell id="7cZMRGCg5zAJAYEofahR-43" value="&lt;div&gt;&lt;span style=&quot;&quot;&gt;&lt;span style=&quot;&quot;&gt;&amp;nbsp;&amp;nbsp;&amp;nbsp;&amp;nbsp;&lt;/span&gt;&lt;span style=&quot;&quot;&gt;&lt;span style=&quot;&quot;&gt;&amp;nbsp;&amp;nbsp;&amp;nbsp;&amp;nbsp;&lt;/span&gt;&lt;/span&gt;&lt;span style=&quot;&quot;&gt;&lt;span style=&quot;&quot;&gt;&amp;nbsp;&amp;nbsp;&amp;nbsp;&amp;nbsp;&lt;/span&gt;&lt;/span&gt;&lt;span style=&quot;&quot;&gt;&lt;span style=&quot;&quot;&gt;&amp;nbsp;&amp;nbsp;&amp;nbsp; &lt;/span&gt;&lt;/span&gt;&lt;/span&gt;&lt;span style=&quot;&quot;&gt;&lt;span style=&quot;&quot;&gt;&amp;nbsp;&amp;nbsp;&amp;nbsp;&amp;nbsp;&lt;/span&gt;&lt;/span&gt;&lt;span style=&quot;&quot;&gt;&lt;span style=&quot;&quot;&gt;&amp;nbsp;&amp;nbsp;&amp;nbsp;&amp;nbsp;&lt;/span&gt;&lt;/span&gt;&lt;span style=&quot;&quot;&gt;&lt;span style=&quot;&quot;&gt;&amp;nbsp;&amp;nbsp;&amp;nbsp;&amp;nbsp;&lt;/span&gt;&lt;/span&gt;&lt;span style=&quot;&quot;&gt;&lt;span style=&quot;&quot;&gt;&amp;nbsp;&amp;nbsp;&amp;nbsp;&amp;nbsp;&lt;/span&gt;&lt;/span&gt;&lt;span style=&quot;&quot;&gt;&lt;span style=&quot;&quot;&gt;&amp;nbsp;&amp;nbsp;&amp;nbsp;&amp;nbsp;&lt;/span&gt;&lt;/span&gt;&lt;span style=&quot;&quot;&gt;&lt;span style=&quot;&quot;&gt;&amp;nbsp;&amp;nbsp;&amp;nbsp;&amp;nbsp;&lt;/span&gt;&lt;/span&gt;&lt;span style=&quot;&quot;&gt;&lt;span style=&quot;&quot;&gt;&amp;nbsp;&amp;nbsp;&amp;nbsp;&amp;nbsp;&lt;span style=&quot;&quot;&gt; &lt;/span&gt;&lt;span style=&quot;&quot;&gt; &lt;/span&gt;&lt;span style=&quot;&quot;&gt; &lt;/span&gt;&lt;span style=&quot;&quot;&gt; &lt;/span&gt;&lt;span style=&quot;&quot;&gt; &lt;/span&gt;&lt;span style=&quot;&quot;&gt; &lt;/span&gt;&lt;span style=&quot;&quot;&gt; &lt;/span&gt;&lt;/span&gt;&lt;/span&gt;&lt;span style=&quot;&quot;&gt;&lt;span style=&quot;&quot;&gt;&amp;nbsp;&amp;nbsp;&amp;nbsp;&amp;nbsp;&lt;/span&gt;&lt;/span&gt;&lt;u&gt;SzabaddaAllitas&lt;br&gt;&lt;/u&gt;&lt;/div&gt;&lt;div&gt;for i=0..|foglaltHelyek| loop&lt;/div&gt;&lt;div&gt;&amp;nbsp;&amp;nbsp; if (foglaltHelyek[i].nev = nev ∧ foglaltHelyek[i].tipus = tipus ∧ foglaltHelyek[i].ules = ules ∧ foglaltHelyek[i].allapot = Allapot.FOGLALT) then&lt;/div&gt;&lt;div&gt;&amp;nbsp;&amp;nbsp;&amp;nbsp;&amp;nbsp;&amp;nbsp; Eladotta(foglalthelyek[i].allapot)&lt;/div&gt;&lt;div&gt;&amp;nbsp;&amp;nbsp;&amp;nbsp;&amp;nbsp;&amp;nbsp; FoglaltHelyek.Remove(foglalthelyek[i])&lt;/div&gt;&lt;div&gt;&amp;nbsp;&amp;nbsp;&amp;nbsp;&amp;nbsp;&amp;nbsp; return&lt;/div&gt;&lt;div&gt;&amp;nbsp;&amp;nbsp; endif&lt;br&gt;&lt;/div&gt;&lt;div&gt;endloop&lt;/div&gt;&lt;div&gt;error&lt;br&gt;&lt;/div&gt;" style="shape=note;size=14;whiteSpace=wrap;html=1;verticalAlign=top;align=left;" parent="1" vertex="1">
          <mxGeometry x="600" y="2885" width="730" height="145" as="geometry" />
        </mxCell>
        <mxCell id="7cZMRGCg5zAJAYEofahR-44" value="Vetitoterem:" style="text;html=1;align=left;verticalAlign=middle;resizable=0;points=[];autosize=1;strokeColor=none;fillColor=none;fontSize=24;" parent="1" vertex="1">
          <mxGeometry x="600" y="1134" width="150" height="40" as="geometry" />
        </mxCell>
        <mxCell id="7cZMRGCg5zAJAYEofahR-45" value="&lt;div&gt;&lt;span style=&quot;white-space: pre;&quot;&gt; &lt;/span&gt;&lt;span style=&quot;white-space: pre;&quot;&gt; &lt;/span&gt; &lt;u&gt;Vetitoterem&lt;br&gt;&lt;/u&gt;&lt;/div&gt;&lt;div&gt;...&lt;/div&gt;&lt;div&gt;eloadasok:=new List&amp;lt;Eloadas&amp;gt;()&lt;br&gt;&lt;/div&gt;" style="shape=note;size=14;whiteSpace=wrap;html=1;verticalAlign=top;align=left;" parent="1" vertex="1">
          <mxGeometry x="600" y="1174" width="180" height="59.5" as="geometry" />
        </mxCell>
        <mxCell id="7cZMRGCg5zAJAYEofahR-46" value="&lt;div&gt;&lt;span style=&quot;white-space: pre;&quot;&gt; &lt;/span&gt;&lt;span style=&quot;white-space: pre;&quot;&gt; &lt;/span&gt;&amp;nbsp; &amp;nbsp; &lt;u&gt;Kozepes&lt;br&gt;&lt;/u&gt;&lt;/div&gt;return false" style="shape=note;size=14;whiteSpace=wrap;html=1;verticalAlign=top;align=left;" parent="1" vertex="1">
          <mxGeometry x="600" y="1258.5" width="180" height="45" as="geometry" />
        </mxCell>
        <mxCell id="7cZMRGCg5zAJAYEofahR-47" value="&lt;div&gt;&lt;span style=&quot;white-space: pre;&quot;&gt; &lt;/span&gt;&lt;span style=&quot;white-space: pre;&quot;&gt; &lt;/span&gt;&amp;nbsp;&amp;nbsp;&amp;nbsp;&amp;nbsp;&amp;nbsp;&amp;nbsp; &lt;u&gt;Nagy&lt;br&gt;&lt;/u&gt;&lt;/div&gt;return false" style="shape=note;size=14;whiteSpace=wrap;html=1;verticalAlign=top;align=left;" parent="1" vertex="1">
          <mxGeometry x="790" y="1258.5" width="180" height="45" as="geometry" />
        </mxCell>
        <mxCell id="7cZMRGCg5zAJAYEofahR-48" value="&lt;div&gt;&lt;span style=&quot;white-space: pre;&quot;&gt; &lt;/span&gt;&lt;span style=&quot;white-space: pre;&quot;&gt; &lt;/span&gt;&amp;nbsp;&amp;nbsp;&amp;nbsp;&amp;nbsp;&amp;nbsp;&amp;nbsp;&amp;nbsp; &lt;u&gt;Vip&lt;br&gt;&lt;/u&gt;&lt;/div&gt;return false" style="shape=note;size=14;whiteSpace=wrap;html=1;verticalAlign=top;align=left;" parent="1" vertex="1">
          <mxGeometry x="600" y="1308.5" width="180" height="45" as="geometry" />
        </mxCell>
        <mxCell id="7cZMRGCg5zAJAYEofahR-49" value="&lt;div&gt;&lt;span style=&quot;white-space: pre;&quot;&gt; &lt;/span&gt;&lt;span style=&quot;white-space: pre;&quot;&gt; &lt;/span&gt;&amp;nbsp;&amp;nbsp;&amp;nbsp;&amp;nbsp; &lt;u&gt;Gyerek&lt;br&gt;&lt;/u&gt;&lt;/div&gt;return 0" style="shape=note;size=14;whiteSpace=wrap;html=1;verticalAlign=top;align=left;" parent="1" vertex="1">
          <mxGeometry x="600" y="1373.5" width="180" height="45" as="geometry" />
        </mxCell>
        <mxCell id="7cZMRGCg5zAJAYEofahR-50" value="&lt;div&gt;&lt;span style=&quot;white-space: pre;&quot;&gt; &lt;/span&gt;&lt;span style=&quot;white-space: pre;&quot;&gt; &lt;/span&gt;&lt;span style=&quot;white-space: pre;&quot;&gt; &lt;/span&gt;&lt;u&gt;Diak&lt;br&gt;&lt;/u&gt;&lt;/div&gt;return 0" style="shape=note;size=14;whiteSpace=wrap;html=1;verticalAlign=top;align=left;" parent="1" vertex="1">
          <mxGeometry x="790" y="1373.5" width="180" height="45" as="geometry" />
        </mxCell>
        <mxCell id="7cZMRGCg5zAJAYEofahR-51" value="&lt;div&gt;&lt;span style=&quot;white-space: pre;&quot;&gt; &lt;/span&gt;&lt;span style=&quot;white-space: pre;&quot;&gt; &lt;/span&gt;&amp;nbsp;&amp;nbsp;&amp;nbsp;&amp;nbsp;&amp;nbsp; &lt;u&gt;Felnott&lt;br&gt;&lt;/u&gt;&lt;/div&gt;return 0" style="shape=note;size=14;whiteSpace=wrap;html=1;verticalAlign=top;align=left;" parent="1" vertex="1">
          <mxGeometry x="600" y="1423.5" width="180" height="45" as="geometry" />
        </mxCell>
        <mxCell id="7cZMRGCg5zAJAYEofahR-52" value="&lt;div&gt;&lt;span style=&quot;white-space: pre;&quot;&gt; &lt;/span&gt;&lt;span style=&quot;white-space: pre;&quot;&gt; &lt;/span&gt;&amp;nbsp;&amp;nbsp;&amp;nbsp; &lt;u&gt;Nyugdijas&lt;br&gt;&lt;/u&gt;&lt;/div&gt;return 0" style="shape=note;size=14;whiteSpace=wrap;html=1;verticalAlign=top;align=left;" parent="1" vertex="1">
          <mxGeometry x="790" y="1423.5" width="180" height="45" as="geometry" />
        </mxCell>
        <mxCell id="7cZMRGCg5zAJAYEofahR-53" value="&lt;div&gt;&lt;span style=&quot;white-space: pre;&quot;&gt; &lt;/span&gt;&lt;span style=&quot;white-space: pre;&quot;&gt; &lt;/span&gt;&amp;nbsp;&amp;nbsp;&amp;nbsp;&amp;nbsp; &lt;u&gt;Torzstag&lt;br&gt;&lt;/u&gt;&lt;/div&gt;return 0" style="shape=note;size=14;whiteSpace=wrap;html=1;verticalAlign=top;align=left;" parent="1" vertex="1">
          <mxGeometry x="600" y="1473.5" width="180" height="45" as="geometry" />
        </mxCell>
        <mxCell id="7cZMRGCg5zAJAYEofahR-54" value="&lt;div&gt;&lt;span style=&quot;&quot;&gt;&lt;span style=&quot;&quot;&gt;&amp;nbsp;&amp;nbsp;&amp;nbsp;&amp;nbsp;&lt;/span&gt;&lt;/span&gt;&lt;span style=&quot;&quot;&gt;&lt;span style=&quot;&quot;&gt;&amp;nbsp;&amp;nbsp;&amp;nbsp;&amp;nbsp;&lt;/span&gt;&lt;/span&gt;&amp;nbsp;&amp;nbsp;&amp;nbsp;&amp;nbsp; &lt;u&gt;UjEloadas&lt;br&gt;&lt;/u&gt;&lt;/div&gt;&lt;div&gt;&lt;div&gt;&amp;nbsp;&amp;nbsp; &lt;sub&gt;|eloadasok|&lt;/sub&gt;&lt;br&gt;&lt;/div&gt;&lt;div&gt;l:=SEARCH (eloadasok[n].kezdet ≤ e.filmcim ∧ eloadasok[n].ido.veg ≥ e.ido.kezdet)&lt;br&gt;&lt;/div&gt;&lt;div&gt;&lt;span style=&quot;&quot;&gt;&lt;span style=&quot;&quot;&gt;&amp;nbsp;&amp;nbsp;&amp;nbsp;&amp;nbsp;&lt;/span&gt;&lt;/span&gt;&amp;nbsp;&amp;nbsp;&amp;nbsp;&amp;nbsp; &lt;sup&gt;n=0&lt;/sup&gt;&lt;/div&gt;&lt;/div&gt;&lt;div&gt;if (l) then error&lt;/div&gt;&lt;div&gt;else&lt;/div&gt;&lt;div&gt;&amp;nbsp;&amp;nbsp; e.maxHely = sorokSzama * ulesSorban&lt;/div&gt;&lt;div&gt;&amp;nbsp;&amp;nbsp; eloadas.Add(e)&lt;/div&gt;&lt;div&gt;endif&lt;br&gt;&lt;/div&gt;" style="shape=note;size=14;whiteSpace=wrap;html=1;verticalAlign=top;align=left;" parent="1" vertex="1">
          <mxGeometry x="600" y="1543.5" width="460" height="150" as="geometry" />
        </mxCell>
        <mxCell id="7cZMRGCg5zAJAYEofahR-55" value="&lt;div&gt;&lt;span style=&quot;&quot;&gt;&lt;span style=&quot;&quot;&gt;&amp;nbsp;&amp;nbsp;&amp;nbsp;&amp;nbsp;&lt;/span&gt;&lt;/span&gt;&lt;span style=&quot;&quot;&gt;&lt;span style=&quot;&quot;&gt;&amp;nbsp;&amp;nbsp;&amp;nbsp;&amp;nbsp;&lt;/span&gt;&lt;/span&gt;&amp;nbsp;&amp;nbsp;&amp;nbsp;&amp;nbsp; &lt;u&gt;ValosUles&lt;br&gt;&lt;/u&gt;&lt;/div&gt;&lt;div&gt;if (ules.sor &amp;lt; 1 ∨ ules.sor &amp;gt; sorokSzama ∨ ules.szam &amp;lt; 1 ∨ ules.szam &amp;gt; ulesSorban)&lt;/div&gt;&lt;div&gt;then error endif&lt;br&gt;&lt;/div&gt;" style="shape=note;size=14;whiteSpace=wrap;html=1;verticalAlign=top;align=left;" parent="1" vertex="1">
          <mxGeometry x="600" y="1713.5" width="480" height="60" as="geometry" />
        </mxCell>
        <mxCell id="7cZMRGCg5zAJAYEofahR-56" value="&lt;span style=&quot;&quot;&gt;&lt;span style=&quot;&quot;&gt;&amp;nbsp;&amp;nbsp;&amp;nbsp;&lt;/span&gt;&lt;span style=&quot;&quot;&gt;&lt;span style=&quot;&quot;&gt;&amp;nbsp;&amp;nbsp;&amp;nbsp;&amp;nbsp;&lt;/span&gt;&lt;/span&gt;&lt;span style=&quot;&quot;&gt;&lt;span style=&quot;&quot;&gt;&amp;nbsp;&amp;nbsp;&amp;nbsp;&amp;nbsp;&lt;/span&gt;&lt;/span&gt;&lt;span style=&quot;&quot;&gt;&lt;span style=&quot;&quot;&gt;&amp;nbsp;&amp;nbsp;&amp;nbsp;&amp;nbsp;&lt;/span&gt;&lt;/span&gt;&lt;span style=&quot;&quot;&gt;&lt;span style=&quot;&quot;&gt;&lt;span style=&quot;&quot;&gt;&amp;nbsp;&amp;nbsp;&amp;nbsp;&amp;nbsp;&lt;/span&gt;&lt;/span&gt;&lt;span style=&quot;&quot;&gt;&amp;nbsp;&amp;nbsp;&amp;nbsp;&amp;nbsp;&lt;span style=&quot;&quot;&gt;&lt;span style=&quot;&quot;&gt;&amp;nbsp;&amp;nbsp;&amp;nbsp;&amp;nbsp;&lt;/span&gt;&lt;span style=&quot;&quot;&gt;&lt;span style=&quot;&quot;&gt;&amp;nbsp;&amp;nbsp;&amp;nbsp;&amp;nbsp;&lt;/span&gt;&lt;/span&gt;&amp;nbsp; &amp;nbsp;&amp;nbsp;&lt;span style=&quot;&quot;&gt;&lt;span style=&quot;&quot;&gt;&amp;nbsp;&amp;nbsp;&amp;nbsp;&amp;nbsp;&lt;/span&gt;&lt;/span&gt;&lt;span style=&quot;&quot;&gt;&lt;span style=&quot;&quot;&gt;&amp;nbsp;&amp;nbsp;&amp;nbsp;&amp;nbsp; &lt;/span&gt;&lt;/span&gt;&lt;/span&gt;&lt;/span&gt;&lt;/span&gt;&lt;/span&gt;&lt;u&gt;KeresettEloadas&lt;/u&gt;&lt;div&gt;joTerem:=0&lt;/div&gt;&lt;div&gt;if (terem = Terem.KOZEPES) then joTerem:=Kozepes()&lt;/div&gt;&lt;div&gt;else if (terem = Terem.NAGY) then joTerem:=Nagy()&lt;/div&gt;&lt;div&gt;&lt;div&gt;else if (terem = Terem.VIP) then joTerem:=VIP()&lt;div&gt;else error endif&lt;/div&gt;&lt;div&gt;if (joTerem) then&lt;br&gt;&lt;div&gt;&lt;div&gt;&amp;nbsp;&amp;nbsp;&amp;nbsp;&amp;nbsp;&lt;sub&gt;&amp;nbsp;&amp;nbsp; &lt;span style=&quot;&quot;&gt;&lt;span style=&quot;&quot;&gt;&amp;nbsp;&amp;nbsp;&amp;nbsp;&amp;nbsp;&lt;/span&gt;&lt;/span&gt;&lt;span style=&quot;&quot;&gt;&lt;span style=&quot;&quot;&gt;&amp;nbsp;&amp;nbsp;&amp;nbsp;&amp;nbsp;&lt;/span&gt;&lt;/span&gt;&amp;nbsp;&amp;nbsp;&amp;nbsp; |eloadasok|&lt;/sub&gt;&lt;br&gt;&lt;/div&gt;&lt;div&gt;&amp;nbsp;&amp;nbsp; (_, elem):=SEARCH (eloadasok[n].filmcim = cim ∧ eloadasok[n].ido = ido)&lt;br&gt;&lt;/div&gt;&lt;div&gt;&lt;span style=&quot;&quot;&gt;&lt;span style=&quot;&quot;&gt;&amp;nbsp;&amp;nbsp;&amp;nbsp;&amp;nbsp;&lt;/span&gt;&lt;/span&gt;&amp;nbsp;&amp;nbsp;&amp;nbsp;&amp;nbsp; &lt;span style=&quot;&quot;&gt;&lt;span style=&quot;&quot;&gt;&amp;nbsp;&amp;nbsp;&amp;nbsp;&amp;nbsp;&lt;/span&gt;&lt;/span&gt;&lt;sup&gt;&amp;nbsp;&amp;nbsp;&amp;nbsp;&amp;nbsp;&amp;nbsp;&amp;nbsp;&amp;nbsp;&amp;nbsp; n=0&lt;/sup&gt;&lt;/div&gt;&lt;div&gt;&amp;nbsp;&amp;nbsp; return elem&lt;sup&gt;&lt;br&gt;&lt;/sup&gt;&lt;/div&gt;&lt;/div&gt;&lt;/div&gt;&lt;div&gt;else return NULL endif&lt;br&gt;&lt;/div&gt;&lt;br&gt;&lt;br&gt;&lt;/div&gt;&lt;div&gt;&lt;br&gt;&lt;br&gt;&lt;/div&gt;&lt;/div&gt;" style="shape=note;size=14;whiteSpace=wrap;html=1;verticalAlign=top;align=left;" parent="1" vertex="1">
          <mxGeometry x="600" y="1791.6899999999998" width="470" height="193.63" as="geometry" />
        </mxCell>
        <mxCell id="7cZMRGCg5zAJAYEofahR-57" value="&lt;div&gt;&lt;span style=&quot;white-space: pre;&quot;&gt; &lt;/span&gt;&lt;span style=&quot;white-space: pre;&quot;&gt; &lt;/span&gt;&amp;nbsp; &amp;nbsp; &lt;u&gt;Kozepes&lt;br&gt;&lt;/u&gt;&lt;/div&gt;return true" style="shape=note;size=14;whiteSpace=wrap;html=1;verticalAlign=top;align=left;" parent="1" vertex="1">
          <mxGeometry x="1160" y="1233.5" width="180" height="45" as="geometry" />
        </mxCell>
        <mxCell id="7cZMRGCg5zAJAYEofahR-58" value="&lt;div&gt;&lt;span style=&quot;white-space: pre;&quot;&gt; &lt;/span&gt;&lt;span style=&quot;white-space: pre;&quot;&gt; &lt;/span&gt;&amp;nbsp;&amp;nbsp;&amp;nbsp;&amp;nbsp; &lt;u&gt;Gyerek&lt;br&gt;&lt;/u&gt;&lt;/div&gt;return 40" style="shape=note;size=14;whiteSpace=wrap;html=1;verticalAlign=top;align=left;" parent="1" vertex="1">
          <mxGeometry x="1160" y="1302" width="180" height="45" as="geometry" />
        </mxCell>
        <mxCell id="7cZMRGCg5zAJAYEofahR-59" value="&lt;div&gt;&lt;span style=&quot;white-space: pre;&quot;&gt; &lt;/span&gt;&lt;span style=&quot;white-space: pre;&quot;&gt; &lt;/span&gt;&amp;nbsp;&amp;nbsp;&amp;nbsp;&amp;nbsp;&amp;nbsp; &lt;u&gt;Felnott&lt;br&gt;&lt;/u&gt;&lt;/div&gt;return 10" style="shape=note;size=14;whiteSpace=wrap;html=1;verticalAlign=top;align=left;" parent="1" vertex="1">
          <mxGeometry x="1160" y="1352" width="180" height="45" as="geometry" />
        </mxCell>
        <mxCell id="7cZMRGCg5zAJAYEofahR-60" value="&lt;div&gt;&lt;span style=&quot;white-space: pre;&quot;&gt; &lt;/span&gt;&lt;span style=&quot;white-space: pre;&quot;&gt; &lt;/span&gt;&amp;nbsp;&amp;nbsp;&amp;nbsp;&amp;nbsp; &lt;u&gt;Torzstag&lt;br&gt;&lt;/u&gt;&lt;/div&gt;return 30" style="shape=note;size=14;whiteSpace=wrap;html=1;verticalAlign=top;align=left;" parent="1" vertex="1">
          <mxGeometry x="1160" y="1402" width="180" height="45" as="geometry" />
        </mxCell>
        <mxCell id="7cZMRGCg5zAJAYEofahR-61" value="&lt;div&gt;&lt;span style=&quot;white-space: pre;&quot;&gt; &lt;/span&gt;&lt;span style=&quot;white-space: pre;&quot;&gt; &lt;/span&gt;&lt;span style=&quot;white-space: pre;&quot;&gt; &lt;/span&gt;&lt;u&gt;Diak&lt;br&gt;&lt;/u&gt;&lt;/div&gt;return 30" style="shape=note;size=14;whiteSpace=wrap;html=1;verticalAlign=top;align=left;" parent="1" vertex="1">
          <mxGeometry x="1350" y="1302" width="180" height="45" as="geometry" />
        </mxCell>
        <mxCell id="7cZMRGCg5zAJAYEofahR-62" value="&lt;div&gt;&lt;span style=&quot;white-space: pre;&quot;&gt; &lt;/span&gt;&lt;span style=&quot;white-space: pre;&quot;&gt; &lt;/span&gt;&amp;nbsp;&amp;nbsp;&amp;nbsp; &lt;u&gt;Nyugdijas&lt;br&gt;&lt;/u&gt;&lt;/div&gt;return 30" style="shape=note;size=14;whiteSpace=wrap;html=1;verticalAlign=top;align=left;" parent="1" vertex="1">
          <mxGeometry x="1350" y="1352" width="180" height="45" as="geometry" />
        </mxCell>
        <mxCell id="7cZMRGCg5zAJAYEofahR-63" value="KozepesTerem:" style="text;html=1;align=left;verticalAlign=middle;resizable=0;points=[];autosize=1;strokeColor=none;fillColor=none;fontSize=24;" parent="1" vertex="1">
          <mxGeometry x="1160" y="1134" width="190" height="40" as="geometry" />
        </mxCell>
        <mxCell id="7cZMRGCg5zAJAYEofahR-64" value="&lt;div&gt;&lt;span style=&quot;white-space: pre;&quot;&gt; &lt;/span&gt;&lt;span style=&quot;white-space: pre;&quot;&gt; &lt;/span&gt; &lt;u&gt;KozepesTerem&lt;br&gt;&lt;/u&gt;&lt;/div&gt;&lt;div&gt;...&lt;/div&gt;" style="shape=note;size=14;whiteSpace=wrap;html=1;verticalAlign=top;align=left;" parent="1" vertex="1">
          <mxGeometry x="1160" y="1174" width="180" height="39.5" as="geometry" />
        </mxCell>
        <mxCell id="7cZMRGCg5zAJAYEofahR-65" value="&lt;div&gt;&lt;span style=&quot;white-space: pre;&quot;&gt; &lt;/span&gt;&lt;span style=&quot;white-space: pre;&quot;&gt; &lt;/span&gt;&amp;nbsp; &amp;nbsp;&amp;nbsp;&amp;nbsp;&amp;nbsp; &lt;u&gt;Nagy&lt;br&gt;&lt;/u&gt;&lt;/div&gt;return true" style="shape=note;size=14;whiteSpace=wrap;html=1;verticalAlign=top;align=left;" parent="1" vertex="1">
          <mxGeometry x="1160" y="1589.5" width="180" height="45" as="geometry" />
        </mxCell>
        <mxCell id="7cZMRGCg5zAJAYEofahR-66" value="&lt;div&gt;&lt;span style=&quot;white-space: pre;&quot;&gt; &lt;/span&gt;&lt;span style=&quot;white-space: pre;&quot;&gt; &lt;/span&gt;&amp;nbsp;&amp;nbsp;&amp;nbsp;&amp;nbsp; &lt;u&gt;Gyerek&lt;br&gt;&lt;/u&gt;&lt;/div&gt;return 40" style="shape=note;size=14;whiteSpace=wrap;html=1;verticalAlign=top;align=left;" parent="1" vertex="1">
          <mxGeometry x="1160" y="1658" width="180" height="45" as="geometry" />
        </mxCell>
        <mxCell id="7cZMRGCg5zAJAYEofahR-68" value="&lt;div&gt;&lt;span style=&quot;white-space: pre;&quot;&gt; &lt;/span&gt;&lt;span style=&quot;white-space: pre;&quot;&gt; &lt;/span&gt;&amp;nbsp;&amp;nbsp;&amp;nbsp;&amp;nbsp; &lt;u&gt;Torzstag&lt;br&gt;&lt;/u&gt;&lt;/div&gt;return 30" style="shape=note;size=14;whiteSpace=wrap;html=1;verticalAlign=top;align=left;" parent="1" vertex="1">
          <mxGeometry x="1350" y="1713" width="180" height="45" as="geometry" />
        </mxCell>
        <mxCell id="7cZMRGCg5zAJAYEofahR-69" value="&lt;div&gt;&lt;span style=&quot;white-space: pre;&quot;&gt; &lt;/span&gt;&lt;span style=&quot;white-space: pre;&quot;&gt; &lt;/span&gt;&lt;span style=&quot;white-space: pre;&quot;&gt; &lt;/span&gt;&lt;u&gt;Diak&lt;br&gt;&lt;/u&gt;&lt;/div&gt;return 20" style="shape=note;size=14;whiteSpace=wrap;html=1;verticalAlign=top;align=left;" parent="1" vertex="1">
          <mxGeometry x="1350" y="1658" width="180" height="45" as="geometry" />
        </mxCell>
        <mxCell id="7cZMRGCg5zAJAYEofahR-70" value="&lt;div&gt;&lt;span style=&quot;white-space: pre;&quot;&gt; &lt;/span&gt;&lt;span style=&quot;white-space: pre;&quot;&gt; &lt;/span&gt;&amp;nbsp;&amp;nbsp;&amp;nbsp; &lt;u&gt;Nyugdijas&lt;br&gt;&lt;/u&gt;&lt;/div&gt;return 20" style="shape=note;size=14;whiteSpace=wrap;html=1;verticalAlign=top;align=left;" parent="1" vertex="1">
          <mxGeometry x="1160" y="1713" width="180" height="45" as="geometry" />
        </mxCell>
        <mxCell id="7cZMRGCg5zAJAYEofahR-71" value="NagyTerem:" style="text;html=1;align=left;verticalAlign=middle;resizable=0;points=[];autosize=1;strokeColor=none;fillColor=none;fontSize=24;" parent="1" vertex="1">
          <mxGeometry x="1160" y="1490" width="150" height="40" as="geometry" />
        </mxCell>
        <mxCell id="7cZMRGCg5zAJAYEofahR-72" value="&lt;div&gt;&lt;span style=&quot;white-space: pre;&quot;&gt; &lt;/span&gt;&lt;span style=&quot;white-space: pre;&quot;&gt; &lt;/span&gt;&amp;nbsp;&amp;nbsp;&amp;nbsp; &lt;u&gt;NagyTerem&lt;br&gt;&lt;/u&gt;&lt;/div&gt;&lt;div&gt;...&lt;/div&gt;" style="shape=note;size=14;whiteSpace=wrap;html=1;verticalAlign=top;align=left;" parent="1" vertex="1">
          <mxGeometry x="1160" y="1530" width="180" height="39.5" as="geometry" />
        </mxCell>
        <mxCell id="7cZMRGCg5zAJAYEofahR-80" value="&lt;div&gt;&lt;span style=&quot;white-space: pre;&quot;&gt; &lt;/span&gt;&lt;span style=&quot;white-space: pre;&quot;&gt; &lt;/span&gt;&amp;nbsp;&amp;nbsp;&amp;nbsp; &lt;u&gt;VipTerem&lt;br&gt;&lt;/u&gt;&lt;/div&gt;&lt;div&gt;...&lt;/div&gt;" style="shape=note;size=14;whiteSpace=wrap;html=1;verticalAlign=top;align=left;" parent="1" vertex="1">
          <mxGeometry x="1160" y="1840.5" width="180" height="39.5" as="geometry" />
        </mxCell>
        <mxCell id="7cZMRGCg5zAJAYEofahR-81" value="&lt;div&gt;&lt;span style=&quot;white-space: pre;&quot;&gt; &lt;/span&gt;&lt;span style=&quot;white-space: pre;&quot;&gt; &lt;span style=&quot;white-space: pre;&quot;&gt; &lt;/span&gt;&lt;/span&gt;&lt;u&gt;Vip&lt;/u&gt;&amp;nbsp; &amp;nbsp;&amp;nbsp;&amp;nbsp;&amp;nbsp; &lt;u&gt;&lt;br&gt;&lt;/u&gt;&lt;/div&gt;return true" style="shape=note;size=14;whiteSpace=wrap;html=1;verticalAlign=top;align=left;" parent="1" vertex="1">
          <mxGeometry x="1160" y="1900" width="180" height="45" as="geometry" />
        </mxCell>
        <mxCell id="7cZMRGCg5zAJAYEofahR-82" value="VipTerem:" style="text;html=1;align=left;verticalAlign=middle;resizable=0;points=[];autosize=1;strokeColor=none;fillColor=none;fontSize=24;" parent="1" vertex="1">
          <mxGeometry x="1160" y="1800.5" width="130" height="40" as="geometry" />
        </mxCell>
        <mxCell id="7cZMRGCg5zAJAYEofahR-83" value="Ules:" style="text;html=1;align=left;verticalAlign=middle;resizable=0;points=[];autosize=1;strokeColor=none;fillColor=none;fontSize=24;" parent="1" vertex="1">
          <mxGeometry x="1160" y="1985.3200000000002" width="80" height="40" as="geometry" />
        </mxCell>
        <mxCell id="7cZMRGCg5zAJAYEofahR-84" value="&lt;div&gt;&lt;span style=&quot;white-space: pre;&quot;&gt; &lt;/span&gt;&lt;span style=&quot;white-space: pre;&quot;&gt; &lt;/span&gt;&amp;nbsp;&amp;nbsp;&amp;nbsp;&amp;nbsp;&amp;nbsp;&amp;nbsp;&amp;nbsp; &lt;u&gt;Ules&lt;br&gt;&lt;/u&gt;&lt;/div&gt;&lt;div&gt;this.sor:= sor - &#39;@&#39;&lt;/div&gt;&lt;div&gt;this.szam:=szam&lt;br&gt;&lt;/div&gt;" style="shape=note;size=14;whiteSpace=wrap;html=1;verticalAlign=top;align=left;" parent="1" vertex="1">
          <mxGeometry x="1160" y="2025.3200000000002" width="180" height="57.75" as="geometry" />
        </mxCell>
        <mxCell id="7cZMRGCg5zAJAYEofahR-85" value="&lt;div&gt;&lt;span style=&quot;&quot;&gt;&lt;span style=&quot;white-space: pre;&quot;&gt;&amp;nbsp;&amp;nbsp;&amp;nbsp;&amp;nbsp;&lt;/span&gt;&lt;/span&gt;&lt;span style=&quot;&quot;&gt;&lt;span style=&quot;white-space: pre;&quot;&gt;&amp;nbsp;&amp;nbsp;&amp;nbsp;&amp;nbsp;&lt;/span&gt;&lt;/span&gt;&amp;nbsp;&amp;nbsp;&amp;nbsp;&amp;nbsp;&amp;nbsp;&amp;nbsp;&amp;nbsp;&amp;nbsp;&amp;nbsp; &lt;span style=&quot;white-space: pre;&quot;&gt; &lt;/span&gt;&lt;span style=&quot;white-space: pre;&quot;&gt; &lt;/span&gt;&amp;nbsp;&amp;nbsp;&amp;nbsp;&amp;nbsp;&amp;nbsp;&amp;nbsp; =&lt;br&gt;&lt;/div&gt;return (a.sor = b.sor) ∧ (a.szam = b.szam) " style="shape=note;size=14;whiteSpace=wrap;html=1;verticalAlign=top;align=left;" parent="1" vertex="1">
          <mxGeometry x="1160" y="2103.07" width="260" height="50" as="geometry" />
        </mxCell>
        <mxCell id="7cZMRGCg5zAJAYEofahR-86" value="Foglalas:" style="text;html=1;align=left;verticalAlign=middle;resizable=0;points=[];autosize=1;strokeColor=none;fillColor=none;fontSize=24;" parent="1" vertex="1">
          <mxGeometry x="1160" y="2200" width="120" height="40" as="geometry" />
        </mxCell>
        <mxCell id="7cZMRGCg5zAJAYEofahR-87" value="&lt;div&gt;&lt;span style=&quot;white-space: pre;&quot;&gt; &lt;/span&gt;&lt;span style=&quot;white-space: pre;&quot;&gt; &lt;/span&gt;&amp;nbsp;&amp;nbsp;&amp;nbsp; &lt;u&gt;Foglalas&lt;br&gt;&lt;/u&gt;&lt;/div&gt;&lt;div&gt;...&lt;/div&gt;&lt;div&gt;allapot:= Allapot.SZABAD&lt;br&gt;&lt;/div&gt;" style="shape=note;size=14;whiteSpace=wrap;html=1;verticalAlign=top;align=left;" parent="1" vertex="1">
          <mxGeometry x="1160" y="2240" width="180" height="60" as="geometry" />
        </mxCell>
        <mxCell id="7cZMRGCg5zAJAYEofahR-88" value="Foglalas:" style="text;html=1;align=left;verticalAlign=middle;resizable=0;points=[];autosize=1;strokeColor=none;fillColor=none;fontSize=24;" parent="1" vertex="1">
          <mxGeometry x="1160" y="2340" width="120" height="40" as="geometry" />
        </mxCell>
        <mxCell id="7cZMRGCg5zAJAYEofahR-89" value="&lt;div&gt;&lt;span style=&quot;white-space: pre;&quot;&gt; &lt;/span&gt;&lt;span style=&quot;white-space: pre;&quot;&gt; &lt;/span&gt;&amp;nbsp;&amp;nbsp;&amp;nbsp;&amp;nbsp;&amp;nbsp;&amp;nbsp; &lt;u&gt;Film&lt;br&gt;&lt;/u&gt;&lt;/div&gt;&lt;div&gt;...&lt;/div&gt;&lt;div&gt;nezettseg:= 0&lt;br&gt;&lt;/div&gt;" style="shape=note;size=14;whiteSpace=wrap;html=1;verticalAlign=top;align=left;" parent="1" vertex="1">
          <mxGeometry x="1160" y="2380" width="180" height="60" as="geometry" />
        </mxCell>
        <mxCell id="7cZMRGCg5zAJAYEofahR-90" value="&lt;div&gt;&lt;span style=&quot;white-space: pre;&quot;&gt; &lt;/span&gt;&lt;span style=&quot;white-space: pre;&quot;&gt; &lt;/span&gt;&lt;u&gt;Plusznezettseg&lt;/u&gt; &lt;u&gt;&lt;br&gt;&lt;/u&gt;&lt;/div&gt;nezettseg = nezettseg + 1" style="shape=note;size=14;whiteSpace=wrap;html=1;verticalAlign=top;align=left;" parent="1" vertex="1">
          <mxGeometry x="1160" y="2460" width="180" height="45" as="geometry" />
        </mxCell>
        <mxCell id="7cZMRGCg5zAJAYEofahR-91" value="Ules:" style="text;html=1;align=left;verticalAlign=middle;resizable=0;points=[];autosize=1;strokeColor=none;fillColor=none;fontSize=24;" parent="1" vertex="1">
          <mxGeometry x="1160" y="2550" width="80" height="40" as="geometry" />
        </mxCell>
        <mxCell id="7cZMRGCg5zAJAYEofahR-92" value="&lt;div&gt;&lt;span style=&quot;white-space: pre;&quot;&gt; &lt;/span&gt;&lt;span style=&quot;white-space: pre;&quot;&gt; &lt;/span&gt;&amp;nbsp;&amp;nbsp;&amp;nbsp;&amp;nbsp;&amp;nbsp;&amp;nbsp;&amp;nbsp; &lt;u&gt;Ules&lt;br&gt;&lt;/u&gt;&lt;/div&gt;..." style="shape=note;size=14;whiteSpace=wrap;html=1;verticalAlign=top;align=left;" parent="1" vertex="1">
          <mxGeometry x="1160" y="2590" width="180" height="47.75" as="geometry" />
        </mxCell>
        <mxCell id="7cZMRGCg5zAJAYEofahR-93" value="&lt;div&gt;&lt;span style=&quot;&quot;&gt;&lt;span style=&quot;white-space: pre;&quot;&gt;&amp;nbsp;&amp;nbsp;&amp;nbsp;&amp;nbsp;&lt;/span&gt;&lt;/span&gt;&lt;span style=&quot;&quot;&gt;&lt;span style=&quot;white-space: pre;&quot;&gt;&amp;nbsp;&amp;nbsp;&amp;nbsp;&amp;nbsp;&lt;/span&gt;&lt;/span&gt;&amp;nbsp;&amp;nbsp;&amp;nbsp;&amp;nbsp;&amp;nbsp;&amp;nbsp;&amp;nbsp;&amp;nbsp;&amp;nbsp; &lt;span style=&quot;white-space: pre;&quot;&gt; &lt;/span&gt;&lt;span style=&quot;white-space: pre;&quot;&gt; &lt;/span&gt;&amp;nbsp;&amp;nbsp;&amp;nbsp;&amp;nbsp;&amp;nbsp;&amp;nbsp; =&lt;br&gt;&lt;/div&gt;return (a.kezdet = b.kezdet) ∧ (a.veg = b.veg) " style="shape=note;size=14;whiteSpace=wrap;html=1;verticalAlign=top;align=left;" parent="1" vertex="1">
          <mxGeometry x="1160" y="2657.75" width="260" height="50" as="geometry" />
        </mxCell>
        <mxCell id="6wxo8OHEZgbpB6tvjWXo-1" value="&lt;div&gt;Test0&lt;/div&gt;" style="shape=umlActor;verticalLabelPosition=bottom;verticalAlign=top;html=1;outlineConnect=0;" vertex="1" parent="1">
          <mxGeometry x="1610" y="2300" width="30" height="60" as="geometry" />
        </mxCell>
        <mxCell id="6wxo8OHEZgbpB6tvjWXo-5" style="edgeStyle=orthogonalEdgeStyle;rounded=0;orthogonalLoop=1;jettySize=auto;html=1;exitX=0.5;exitY=0;exitDx=0;exitDy=0;dashed=1;endArrow=none;endFill=0;" edge="1" parent="1" source="6wxo8OHEZgbpB6tvjWXo-4">
          <mxGeometry relative="1" as="geometry">
            <mxPoint x="1625" y="2380" as="targetPoint" />
          </mxGeometry>
        </mxCell>
        <mxCell id="6wxo8OHEZgbpB6tvjWXo-4" value="" style="rounded=0;whiteSpace=wrap;html=1;" vertex="1" parent="1">
          <mxGeometry x="1620" y="2400" width="10" height="210" as="geometry" />
        </mxCell>
        <mxCell id="6wxo8OHEZgbpB6tvjWXo-21" style="edgeStyle=orthogonalEdgeStyle;rounded=0;orthogonalLoop=1;jettySize=auto;html=1;exitX=0.5;exitY=0;exitDx=0;exitDy=0;entryX=0.5;entryY=1;entryDx=0;entryDy=0;endArrow=none;endFill=0;" edge="1" parent="1" source="6wxo8OHEZgbpB6tvjWXo-7" target="6wxo8OHEZgbpB6tvjWXo-13">
          <mxGeometry relative="1" as="geometry" />
        </mxCell>
        <mxCell id="6wxo8OHEZgbpB6tvjWXo-7" value="" style="rounded=0;whiteSpace=wrap;html=1;" vertex="1" parent="1">
          <mxGeometry x="1950.5" y="2520" width="10" height="90" as="geometry" />
        </mxCell>
        <mxCell id="6wxo8OHEZgbpB6tvjWXo-22" style="edgeStyle=orthogonalEdgeStyle;rounded=0;orthogonalLoop=1;jettySize=auto;html=1;exitX=0.5;exitY=0;exitDx=0;exitDy=0;entryX=0.5;entryY=1;entryDx=0;entryDy=0;endArrow=none;endFill=0;" edge="1" parent="1" source="6wxo8OHEZgbpB6tvjWXo-8" target="6wxo8OHEZgbpB6tvjWXo-12">
          <mxGeometry relative="1" as="geometry" />
        </mxCell>
        <mxCell id="6wxo8OHEZgbpB6tvjWXo-24" style="edgeStyle=orthogonalEdgeStyle;rounded=0;orthogonalLoop=1;jettySize=auto;html=1;exitX=0.002;exitY=0.614;exitDx=0;exitDy=0;entryX=1.091;entryY=0.765;entryDx=0;entryDy=0;startArrow=open;startFill=0;endArrow=none;endFill=0;startSize=12;exitPerimeter=0;entryPerimeter=0;" edge="1" parent="1" source="6wxo8OHEZgbpB6tvjWXo-8" target="6wxo8OHEZgbpB6tvjWXo-4">
          <mxGeometry relative="1" as="geometry" />
        </mxCell>
        <mxCell id="6wxo8OHEZgbpB6tvjWXo-8" value="" style="rounded=0;whiteSpace=wrap;html=1;" vertex="1" parent="1">
          <mxGeometry x="2149.5" y="2480" width="10" height="130" as="geometry" />
        </mxCell>
        <mxCell id="6wxo8OHEZgbpB6tvjWXo-23" style="edgeStyle=orthogonalEdgeStyle;rounded=0;orthogonalLoop=1;jettySize=auto;html=1;exitX=0.5;exitY=0;exitDx=0;exitDy=0;entryX=0.5;entryY=1;entryDx=0;entryDy=0;endArrow=none;endFill=0;" edge="1" parent="1" source="6wxo8OHEZgbpB6tvjWXo-9" target="6wxo8OHEZgbpB6tvjWXo-11">
          <mxGeometry relative="1" as="geometry" />
        </mxCell>
        <mxCell id="6wxo8OHEZgbpB6tvjWXo-26" style="rounded=0;orthogonalLoop=1;jettySize=auto;html=1;exitX=0.143;exitY=0.927;exitDx=0;exitDy=0;entryX=1.2;entryY=0.939;entryDx=0;entryDy=0;entryPerimeter=0;endArrow=none;endFill=0;startSize=12;startArrow=open;startFill=0;exitPerimeter=0;" edge="1" parent="1" source="6wxo8OHEZgbpB6tvjWXo-9" target="6wxo8OHEZgbpB6tvjWXo-4">
          <mxGeometry relative="1" as="geometry" />
        </mxCell>
        <mxCell id="6wxo8OHEZgbpB6tvjWXo-9" value="" style="rounded=0;whiteSpace=wrap;html=1;" vertex="1" parent="1">
          <mxGeometry x="2340" y="2440" width="10" height="170" as="geometry" />
        </mxCell>
        <mxCell id="6wxo8OHEZgbpB6tvjWXo-14" style="edgeStyle=orthogonalEdgeStyle;rounded=0;orthogonalLoop=1;jettySize=auto;html=1;exitX=0;exitY=0.5;exitDx=0;exitDy=0;entryX=1.031;entryY=0.067;entryDx=0;entryDy=0;entryPerimeter=0;dashed=1;startArrow=open;startFill=0;endArrow=none;endFill=0;startSize=12;" edge="1" parent="1" source="6wxo8OHEZgbpB6tvjWXo-11" target="6wxo8OHEZgbpB6tvjWXo-4">
          <mxGeometry relative="1" as="geometry" />
        </mxCell>
        <mxCell id="6wxo8OHEZgbpB6tvjWXo-11" value="sz : Szinhaz" style="html=1;whiteSpace=wrap;" vertex="1" parent="1">
          <mxGeometry x="2299.5" y="2400" width="91" height="30" as="geometry" />
        </mxCell>
        <mxCell id="6wxo8OHEZgbpB6tvjWXo-16" style="edgeStyle=orthogonalEdgeStyle;rounded=0;orthogonalLoop=1;jettySize=auto;html=1;exitX=0;exitY=0.5;exitDx=0;exitDy=0;entryX=0.991;entryY=0.264;entryDx=0;entryDy=0;dashed=1;endArrow=none;endFill=0;startSize=12;startArrow=open;startFill=0;entryPerimeter=0;" edge="1" parent="1" source="6wxo8OHEZgbpB6tvjWXo-12" target="6wxo8OHEZgbpB6tvjWXo-4">
          <mxGeometry relative="1" as="geometry" />
        </mxCell>
        <mxCell id="6wxo8OHEZgbpB6tvjWXo-12" value="v : Vetitoterem" style="html=1;whiteSpace=wrap;" vertex="1" parent="1">
          <mxGeometry x="2109" y="2440" width="91" height="30" as="geometry" />
        </mxCell>
        <mxCell id="6wxo8OHEZgbpB6tvjWXo-19" style="edgeStyle=orthogonalEdgeStyle;rounded=0;orthogonalLoop=1;jettySize=auto;html=1;exitX=0;exitY=0.5;exitDx=0;exitDy=0;entryX=0.979;entryY=0.456;entryDx=0;entryDy=0;entryPerimeter=0;dashed=1;startArrow=open;startFill=0;endArrow=none;endFill=0;startSize=12;" edge="1" parent="1" source="6wxo8OHEZgbpB6tvjWXo-13" target="6wxo8OHEZgbpB6tvjWXo-4">
          <mxGeometry relative="1" as="geometry" />
        </mxCell>
        <mxCell id="6wxo8OHEZgbpB6tvjWXo-13" value="e1 : Eloadas" style="html=1;whiteSpace=wrap;" vertex="1" parent="1">
          <mxGeometry x="1910" y="2480" width="91" height="30" as="geometry" />
        </mxCell>
        <mxCell id="6wxo8OHEZgbpB6tvjWXo-15" value="&amp;lt;&amp;lt;create&amp;gt;&amp;gt;" style="text;html=1;align=center;verticalAlign=middle;resizable=0;points=[];autosize=1;strokeColor=none;fillColor=none;" vertex="1" parent="1">
          <mxGeometry x="2209.5" y="2390" width="90" height="30" as="geometry" />
        </mxCell>
        <mxCell id="6wxo8OHEZgbpB6tvjWXo-17" value="&amp;lt;&amp;lt;create&amp;gt;&amp;gt;" style="text;html=1;align=center;verticalAlign=middle;resizable=0;points=[];autosize=1;strokeColor=none;fillColor=none;" vertex="1" parent="1">
          <mxGeometry x="1969.5" y="2430" width="90" height="30" as="geometry" />
        </mxCell>
        <mxCell id="6wxo8OHEZgbpB6tvjWXo-20" value="&amp;lt;&amp;lt;create&amp;gt;&amp;gt;" style="text;html=1;align=center;verticalAlign=middle;resizable=0;points=[];autosize=1;strokeColor=none;fillColor=none;" vertex="1" parent="1">
          <mxGeometry x="1820" y="2470" width="90" height="30" as="geometry" />
        </mxCell>
        <mxCell id="6wxo8OHEZgbpB6tvjWXo-25" value="UjEloadas(e1)" style="text;html=1;align=center;verticalAlign=middle;resizable=0;points=[];autosize=1;strokeColor=none;fillColor=none;" vertex="1" parent="1">
          <mxGeometry x="2040" y="2533.13" width="100" height="30" as="geometry" />
        </mxCell>
        <mxCell id="6wxo8OHEZgbpB6tvjWXo-27" value="&lt;div&gt;Test2&lt;/div&gt;" style="shape=umlActor;verticalLabelPosition=bottom;verticalAlign=top;html=1;outlineConnect=0;" vertex="1" parent="1">
          <mxGeometry x="2510" y="2300" width="30" height="60" as="geometry" />
        </mxCell>
        <mxCell id="6wxo8OHEZgbpB6tvjWXo-28" style="edgeStyle=orthogonalEdgeStyle;rounded=0;orthogonalLoop=1;jettySize=auto;html=1;exitX=0.5;exitY=0;exitDx=0;exitDy=0;dashed=1;endArrow=none;endFill=0;" edge="1" source="6wxo8OHEZgbpB6tvjWXo-29" parent="1">
          <mxGeometry relative="1" as="geometry">
            <mxPoint x="2525" y="2380" as="targetPoint" />
          </mxGeometry>
        </mxCell>
        <mxCell id="6wxo8OHEZgbpB6tvjWXo-29" value="" style="rounded=0;whiteSpace=wrap;html=1;" vertex="1" parent="1">
          <mxGeometry x="2520" y="2400" width="10" height="450" as="geometry" />
        </mxCell>
        <mxCell id="6wxo8OHEZgbpB6tvjWXo-30" style="edgeStyle=orthogonalEdgeStyle;rounded=0;orthogonalLoop=1;jettySize=auto;html=1;exitX=0.5;exitY=0;exitDx=0;exitDy=0;entryX=0.5;entryY=1;entryDx=0;entryDy=0;endArrow=none;endFill=0;" edge="1" source="6wxo8OHEZgbpB6tvjWXo-31" target="6wxo8OHEZgbpB6tvjWXo-43" parent="1">
          <mxGeometry relative="1" as="geometry" />
        </mxCell>
        <mxCell id="6wxo8OHEZgbpB6tvjWXo-31" value="" style="rounded=0;whiteSpace=wrap;html=1;" vertex="1" parent="1">
          <mxGeometry x="2889.5" y="2520" width="10" height="330" as="geometry" />
        </mxCell>
        <mxCell id="6wxo8OHEZgbpB6tvjWXo-32" style="edgeStyle=orthogonalEdgeStyle;rounded=0;orthogonalLoop=1;jettySize=auto;html=1;exitX=0.5;exitY=0;exitDx=0;exitDy=0;entryX=0.5;entryY=1;entryDx=0;entryDy=0;endArrow=none;endFill=0;" edge="1" source="6wxo8OHEZgbpB6tvjWXo-34" target="6wxo8OHEZgbpB6tvjWXo-41" parent="1">
          <mxGeometry relative="1" as="geometry" />
        </mxCell>
        <mxCell id="6wxo8OHEZgbpB6tvjWXo-33" style="edgeStyle=orthogonalEdgeStyle;rounded=0;orthogonalLoop=1;jettySize=auto;html=1;entryX=1.048;entryY=0.378;entryDx=0;entryDy=0;startArrow=open;startFill=0;endArrow=none;endFill=0;startSize=12;entryPerimeter=0;" edge="1" target="6wxo8OHEZgbpB6tvjWXo-29" parent="1">
          <mxGeometry relative="1" as="geometry">
            <mxPoint x="3070" y="2570" as="sourcePoint" />
          </mxGeometry>
        </mxCell>
        <mxCell id="6wxo8OHEZgbpB6tvjWXo-73" style="edgeStyle=orthogonalEdgeStyle;rounded=0;orthogonalLoop=1;jettySize=auto;html=1;exitX=1.017;exitY=0.439;exitDx=0;exitDy=0;entryX=-0.193;entryY=0.548;entryDx=0;entryDy=0;entryPerimeter=0;exitPerimeter=0;startArrow=open;startFill=0;endArrow=none;endFill=0;startSize=12;dashed=1;" edge="1" parent="1" source="6wxo8OHEZgbpB6tvjWXo-31" target="6wxo8OHEZgbpB6tvjWXo-37">
          <mxGeometry relative="1" as="geometry" />
        </mxCell>
        <mxCell id="6wxo8OHEZgbpB6tvjWXo-34" value="" style="rounded=0;whiteSpace=wrap;html=1;" vertex="1" parent="1">
          <mxGeometry x="3070.5" y="2480" width="10" height="370" as="geometry" />
        </mxCell>
        <mxCell id="6wxo8OHEZgbpB6tvjWXo-35" style="edgeStyle=orthogonalEdgeStyle;rounded=0;orthogonalLoop=1;jettySize=auto;html=1;exitX=0.5;exitY=0;exitDx=0;exitDy=0;entryX=0.5;entryY=1;entryDx=0;entryDy=0;endArrow=none;endFill=0;" edge="1" source="6wxo8OHEZgbpB6tvjWXo-37" target="6wxo8OHEZgbpB6tvjWXo-39" parent="1">
          <mxGeometry relative="1" as="geometry" />
        </mxCell>
        <mxCell id="6wxo8OHEZgbpB6tvjWXo-36" style="rounded=0;orthogonalLoop=1;jettySize=auto;html=1;exitX=0;exitY=0.39;exitDx=0;exitDy=0;endArrow=none;endFill=0;startSize=12;startArrow=open;startFill=0;exitPerimeter=0;entryX=1;entryY=0.445;entryDx=0;entryDy=0;entryPerimeter=0;" edge="1" source="6wxo8OHEZgbpB6tvjWXo-37" target="6wxo8OHEZgbpB6tvjWXo-29" parent="1">
          <mxGeometry relative="1" as="geometry">
            <mxPoint x="2540" y="2590" as="targetPoint" />
          </mxGeometry>
        </mxCell>
        <mxCell id="6wxo8OHEZgbpB6tvjWXo-37" value="" style="rounded=0;whiteSpace=wrap;html=1;" vertex="1" parent="1">
          <mxGeometry x="3240" y="2440" width="10" height="410" as="geometry" />
        </mxCell>
        <mxCell id="6wxo8OHEZgbpB6tvjWXo-38" style="edgeStyle=orthogonalEdgeStyle;rounded=0;orthogonalLoop=1;jettySize=auto;html=1;exitX=0;exitY=0.5;exitDx=0;exitDy=0;dashed=1;startArrow=open;startFill=0;endArrow=none;endFill=0;startSize=12;" edge="1" source="6wxo8OHEZgbpB6tvjWXo-39" parent="1">
          <mxGeometry relative="1" as="geometry">
            <mxPoint x="2530" y="2416" as="targetPoint" />
          </mxGeometry>
        </mxCell>
        <mxCell id="6wxo8OHEZgbpB6tvjWXo-39" value="sz : Szinhaz" style="html=1;whiteSpace=wrap;" vertex="1" parent="1">
          <mxGeometry x="3199.5" y="2400" width="91" height="30" as="geometry" />
        </mxCell>
        <mxCell id="6wxo8OHEZgbpB6tvjWXo-40" style="edgeStyle=orthogonalEdgeStyle;rounded=0;orthogonalLoop=1;jettySize=auto;html=1;exitX=0;exitY=0.5;exitDx=0;exitDy=0;entryX=1.048;entryY=0.121;entryDx=0;entryDy=0;entryPerimeter=0;dashed=1;endArrow=none;endFill=0;startSize=12;startArrow=open;startFill=0;" edge="1" source="6wxo8OHEZgbpB6tvjWXo-41" target="6wxo8OHEZgbpB6tvjWXo-29" parent="1">
          <mxGeometry relative="1" as="geometry" />
        </mxCell>
        <mxCell id="6wxo8OHEZgbpB6tvjWXo-41" value="v : Vetitoterem" style="html=1;whiteSpace=wrap;" vertex="1" parent="1">
          <mxGeometry x="3030" y="2440" width="91" height="30" as="geometry" />
        </mxCell>
        <mxCell id="6wxo8OHEZgbpB6tvjWXo-42" style="edgeStyle=orthogonalEdgeStyle;rounded=0;orthogonalLoop=1;jettySize=auto;html=1;exitX=0;exitY=0.5;exitDx=0;exitDy=0;entryX=1.048;entryY=0.213;entryDx=0;entryDy=0;entryPerimeter=0;dashed=1;startArrow=open;startFill=0;endArrow=none;endFill=0;startSize=12;" edge="1" source="6wxo8OHEZgbpB6tvjWXo-43" target="6wxo8OHEZgbpB6tvjWXo-29" parent="1">
          <mxGeometry relative="1" as="geometry" />
        </mxCell>
        <mxCell id="6wxo8OHEZgbpB6tvjWXo-43" value="e : Eloadas" style="html=1;whiteSpace=wrap;" vertex="1" parent="1">
          <mxGeometry x="2849" y="2480" width="91" height="30" as="geometry" />
        </mxCell>
        <mxCell id="6wxo8OHEZgbpB6tvjWXo-44" value="&amp;lt;&amp;lt;create&amp;gt;&amp;gt;" style="text;html=1;align=center;verticalAlign=middle;resizable=0;points=[];autosize=1;strokeColor=none;fillColor=none;" vertex="1" parent="1">
          <mxGeometry x="3109.5" y="2390" width="90" height="30" as="geometry" />
        </mxCell>
        <mxCell id="6wxo8OHEZgbpB6tvjWXo-45" value="&amp;lt;&amp;lt;create&amp;gt;&amp;gt;" style="text;html=1;align=center;verticalAlign=middle;resizable=0;points=[];autosize=1;strokeColor=none;fillColor=none;" vertex="1" parent="1">
          <mxGeometry x="2940" y="2430" width="90" height="30" as="geometry" />
        </mxCell>
        <mxCell id="6wxo8OHEZgbpB6tvjWXo-46" value="&amp;lt;&amp;lt;create&amp;gt;&amp;gt;" style="text;html=1;align=center;verticalAlign=middle;resizable=0;points=[];autosize=1;strokeColor=none;fillColor=none;" vertex="1" parent="1">
          <mxGeometry x="2759" y="2470" width="90" height="30" as="geometry" />
        </mxCell>
        <mxCell id="6wxo8OHEZgbpB6tvjWXo-47" value="UjEloadas(e)" style="text;html=1;align=center;verticalAlign=middle;resizable=0;points=[];autosize=1;strokeColor=none;fillColor=none;" vertex="1" parent="1">
          <mxGeometry x="2969.13" y="2545" width="90" height="30" as="geometry" />
        </mxCell>
        <mxCell id="6wxo8OHEZgbpB6tvjWXo-48" style="edgeStyle=orthogonalEdgeStyle;rounded=0;orthogonalLoop=1;jettySize=auto;html=1;exitX=0.5;exitY=0;exitDx=0;exitDy=0;entryX=0.5;entryY=1;entryDx=0;entryDy=0;endArrow=none;endFill=0;" edge="1" source="6wxo8OHEZgbpB6tvjWXo-49" target="6wxo8OHEZgbpB6tvjWXo-50" parent="1">
          <mxGeometry relative="1" as="geometry" />
        </mxCell>
        <mxCell id="6wxo8OHEZgbpB6tvjWXo-49" value="" style="rounded=0;whiteSpace=wrap;html=1;" vertex="1" parent="1">
          <mxGeometry x="1790.5" y="2555" width="10" height="55" as="geometry" />
        </mxCell>
        <mxCell id="6wxo8OHEZgbpB6tvjWXo-50" value="e2 : Eloadas" style="html=1;whiteSpace=wrap;" vertex="1" parent="1">
          <mxGeometry x="1750" y="2515" width="91" height="30" as="geometry" />
        </mxCell>
        <mxCell id="6wxo8OHEZgbpB6tvjWXo-51" value="&amp;lt;&amp;lt;create&amp;gt;&amp;gt;" style="text;html=1;align=center;verticalAlign=middle;resizable=0;points=[];autosize=1;strokeColor=none;fillColor=none;" vertex="1" parent="1">
          <mxGeometry x="1660" y="2505" width="90" height="30" as="geometry" />
        </mxCell>
        <mxCell id="6wxo8OHEZgbpB6tvjWXo-52" style="edgeStyle=orthogonalEdgeStyle;rounded=0;orthogonalLoop=1;jettySize=auto;html=1;exitX=0;exitY=0.5;exitDx=0;exitDy=0;entryX=1.2;entryY=0.619;entryDx=0;entryDy=0;entryPerimeter=0;dashed=1;startArrow=open;startFill=0;endArrow=none;endFill=0;startSize=12;" edge="1" parent="1" source="6wxo8OHEZgbpB6tvjWXo-50" target="6wxo8OHEZgbpB6tvjWXo-4">
          <mxGeometry relative="1" as="geometry">
            <mxPoint x="1860" y="2670" as="sourcePoint" />
            <mxPoint x="1580" y="2671" as="targetPoint" />
          </mxGeometry>
        </mxCell>
        <mxCell id="6wxo8OHEZgbpB6tvjWXo-53" value="TeremNyitas(v)" style="text;html=1;align=center;verticalAlign=middle;resizable=0;points=[];autosize=1;strokeColor=none;fillColor=none;" vertex="1" parent="1">
          <mxGeometry x="2230" y="2567.5" width="100" height="30" as="geometry" />
        </mxCell>
        <mxCell id="6wxo8OHEZgbpB6tvjWXo-54" value="TeremNyitas(v)" style="text;html=1;align=center;verticalAlign=middle;resizable=0;points=[];autosize=1;strokeColor=none;fillColor=none;" vertex="1" parent="1">
          <mxGeometry x="3132.75" y="2570" width="100" height="30" as="geometry" />
        </mxCell>
        <mxCell id="6wxo8OHEZgbpB6tvjWXo-55" value="&lt;font style=&quot;font-size: 36px;&quot;&gt;Szekvencia diagram&lt;/font&gt;" style="rounded=0;whiteSpace=wrap;html=1;" vertex="1" parent="1">
          <mxGeometry x="2140" y="2210" width="480" height="60" as="geometry" />
        </mxCell>
        <mxCell id="6wxo8OHEZgbpB6tvjWXo-56" value="&amp;lt;&amp;lt;create&amp;gt;&amp;gt;" style="text;html=1;align=center;verticalAlign=middle;resizable=0;points=[];autosize=1;strokeColor=none;fillColor=none;" vertex="1" parent="1">
          <mxGeometry x="2578" y="2510" width="90" height="30" as="geometry" />
        </mxCell>
        <mxCell id="6wxo8OHEZgbpB6tvjWXo-57" value="jozsi : Szemely" style="html=1;whiteSpace=wrap;" vertex="1" parent="1">
          <mxGeometry x="2668" y="2520" width="91" height="30" as="geometry" />
        </mxCell>
        <mxCell id="6wxo8OHEZgbpB6tvjWXo-60" style="edgeStyle=orthogonalEdgeStyle;rounded=0;orthogonalLoop=1;jettySize=auto;html=1;exitX=0;exitY=0.25;exitDx=0;exitDy=0;endArrow=none;endFill=0;startArrow=open;startFill=0;startSize=12;entryX=1;entryY=0.516;entryDx=0;entryDy=0;entryPerimeter=0;" edge="1" parent="1" source="6wxo8OHEZgbpB6tvjWXo-58" target="6wxo8OHEZgbpB6tvjWXo-29">
          <mxGeometry relative="1" as="geometry">
            <mxPoint x="2490" y="2640" as="targetPoint" />
          </mxGeometry>
        </mxCell>
        <mxCell id="6wxo8OHEZgbpB6tvjWXo-62" style="edgeStyle=orthogonalEdgeStyle;rounded=0;orthogonalLoop=1;jettySize=auto;html=1;exitX=1;exitY=0.25;exitDx=0;exitDy=0;entryX=0;entryY=0.471;entryDx=0;entryDy=0;entryPerimeter=0;endArrow=open;endFill=0;endSize=12;" edge="1" parent="1" source="6wxo8OHEZgbpB6tvjWXo-58" target="6wxo8OHEZgbpB6tvjWXo-37">
          <mxGeometry relative="1" as="geometry" />
        </mxCell>
        <mxCell id="6wxo8OHEZgbpB6tvjWXo-75" style="edgeStyle=orthogonalEdgeStyle;rounded=0;orthogonalLoop=1;jettySize=auto;html=1;exitX=1;exitY=0.5;exitDx=0;exitDy=0;entryX=-0.114;entryY=0.646;entryDx=0;entryDy=0;entryPerimeter=0;endArrow=open;endFill=0;startSize=12;endSize=12;" edge="1" parent="1" source="6wxo8OHEZgbpB6tvjWXo-58" target="6wxo8OHEZgbpB6tvjWXo-37">
          <mxGeometry relative="1" as="geometry" />
        </mxCell>
        <mxCell id="6wxo8OHEZgbpB6tvjWXo-78" style="edgeStyle=orthogonalEdgeStyle;rounded=0;orthogonalLoop=1;jettySize=auto;html=1;exitX=1;exitY=0.75;exitDx=0;exitDy=0;entryX=-0.055;entryY=0.821;entryDx=0;entryDy=0;entryPerimeter=0;endArrow=open;endFill=0;endSize=12;" edge="1" parent="1" source="6wxo8OHEZgbpB6tvjWXo-58" target="6wxo8OHEZgbpB6tvjWXo-37">
          <mxGeometry relative="1" as="geometry" />
        </mxCell>
        <mxCell id="6wxo8OHEZgbpB6tvjWXo-126" style="edgeStyle=orthogonalEdgeStyle;rounded=0;orthogonalLoop=1;jettySize=auto;html=1;exitX=0.5;exitY=0;exitDx=0;exitDy=0;entryX=0.5;entryY=1;entryDx=0;entryDy=0;endArrow=none;endFill=0;" edge="1" parent="1" source="6wxo8OHEZgbpB6tvjWXo-58" target="6wxo8OHEZgbpB6tvjWXo-57">
          <mxGeometry relative="1" as="geometry" />
        </mxCell>
        <mxCell id="6wxo8OHEZgbpB6tvjWXo-58" value="" style="rounded=0;whiteSpace=wrap;html=1;" vertex="1" parent="1">
          <mxGeometry x="2708.5" y="2560" width="10" height="290" as="geometry" />
        </mxCell>
        <mxCell id="6wxo8OHEZgbpB6tvjWXo-59" style="edgeStyle=orthogonalEdgeStyle;rounded=0;orthogonalLoop=1;jettySize=auto;html=1;exitX=0;exitY=0.5;exitDx=0;exitDy=0;entryX=1.255;entryY=0.302;entryDx=0;entryDy=0;entryPerimeter=0;dashed=1;startArrow=open;startFill=0;endArrow=none;endFill=0;startSize=12;" edge="1" parent="1" source="6wxo8OHEZgbpB6tvjWXo-57" target="6wxo8OHEZgbpB6tvjWXo-29">
          <mxGeometry relative="1" as="geometry">
            <mxPoint x="2859" y="2505" as="sourcePoint" />
            <mxPoint x="2543" y="2506" as="targetPoint" />
          </mxGeometry>
        </mxCell>
        <mxCell id="6wxo8OHEZgbpB6tvjWXo-61" value="Foglal(sz, &quot;Pretty woman&quot;, reggel, Nagy, foglalas)" style="text;html=1;align=center;verticalAlign=middle;resizable=0;points=[];autosize=1;strokeColor=none;fillColor=none;" vertex="1" parent="1">
          <mxGeometry x="2530" y="2606.5" width="280" height="30" as="geometry" />
        </mxCell>
        <mxCell id="6wxo8OHEZgbpB6tvjWXo-63" value="Lefoglal(&quot;Pretty woman&quot;, reggel, Nagy, foglalas)" style="text;html=1;align=center;verticalAlign=middle;resizable=0;points=[];autosize=1;strokeColor=none;fillColor=none;" vertex="1" parent="1">
          <mxGeometry x="2980" y="2607.75" width="270" height="30" as="geometry" />
        </mxCell>
        <mxCell id="6wxo8OHEZgbpB6tvjWXo-64" value="FoglalttaAllitas(foglalas)" style="text;html=1;align=center;verticalAlign=middle;resizable=0;points=[];autosize=1;strokeColor=none;fillColor=none;" vertex="1" parent="1">
          <mxGeometry x="2899.5" y="2640" width="150" height="30" as="geometry" />
        </mxCell>
        <mxCell id="6wxo8OHEZgbpB6tvjWXo-67" value="HelybenFizet(sz, &quot;Pretty woman&quot;, reggel, Nagy, ujfoglalas)" style="text;html=1;align=center;verticalAlign=middle;resizable=0;points=[];autosize=1;strokeColor=none;fillColor=none;" vertex="1" parent="1">
          <mxGeometry x="2523.63" y="2677.75" width="320" height="30" as="geometry" />
        </mxCell>
        <mxCell id="6wxo8OHEZgbpB6tvjWXo-68" value="Lefoglal(&quot;Pretty woman&quot;, reggel, Nagy, ujfoglalas)" style="text;html=1;align=center;verticalAlign=middle;resizable=0;points=[];autosize=1;strokeColor=none;fillColor=none;" vertex="1" parent="1">
          <mxGeometry x="2971.38" y="2677.75" width="280" height="30" as="geometry" />
        </mxCell>
        <mxCell id="6wxo8OHEZgbpB6tvjWXo-69" value="FoglalttaAllitas(ujfoglalas)" style="text;html=1;align=center;verticalAlign=middle;resizable=0;points=[];autosize=1;strokeColor=none;fillColor=none;" vertex="1" parent="1">
          <mxGeometry x="2909.13" y="2715" width="150" height="30" as="geometry" />
        </mxCell>
        <mxCell id="6wxo8OHEZgbpB6tvjWXo-70" value="JegyEladas(&quot;Pretty woman&quot;, reggel, Nagy, ujfoglalas, penz)" style="text;html=1;align=center;verticalAlign=middle;resizable=0;points=[];autosize=1;strokeColor=none;fillColor=none;" vertex="1" parent="1">
          <mxGeometry x="2910.5" y="2750" width="330" height="30" as="geometry" />
        </mxCell>
        <mxCell id="6wxo8OHEZgbpB6tvjWXo-74" value="" style="endArrow=open;endFill=1;endSize=12;html=1;rounded=0;exitX=1.086;exitY=0.68;exitDx=0;exitDy=0;exitPerimeter=0;entryX=0;entryY=0.5;entryDx=0;entryDy=0;elbow=vertical;" edge="1" parent="1" source="6wxo8OHEZgbpB6tvjWXo-29" target="6wxo8OHEZgbpB6tvjWXo-58">
          <mxGeometry width="160" relative="1" as="geometry">
            <mxPoint x="2560" y="2750" as="sourcePoint" />
            <mxPoint x="2720" y="2750" as="targetPoint" />
          </mxGeometry>
        </mxCell>
        <mxCell id="6wxo8OHEZgbpB6tvjWXo-76" value="" style="endArrow=open;endFill=1;endSize=12;html=1;rounded=0;exitX=0;exitY=0.731;exitDx=0;exitDy=0;exitPerimeter=0;entryX=1.002;entryY=0.663;entryDx=0;entryDy=0;entryPerimeter=0;dashed=1;" edge="1" parent="1" source="6wxo8OHEZgbpB6tvjWXo-37" target="6wxo8OHEZgbpB6tvjWXo-31">
          <mxGeometry width="160" relative="1" as="geometry">
            <mxPoint x="3130" y="2740" as="sourcePoint" />
            <mxPoint x="2920" y="2720" as="targetPoint" />
          </mxGeometry>
        </mxCell>
        <mxCell id="6wxo8OHEZgbpB6tvjWXo-77" value="" style="endArrow=open;endFill=1;endSize=12;html=1;rounded=0;entryX=1.007;entryY=0.625;entryDx=0;entryDy=0;entryPerimeter=0;exitX=-0.045;exitY=0.67;exitDx=0;exitDy=0;exitPerimeter=0;elbow=vertical;dashed=1;" edge="1" parent="1" source="6wxo8OHEZgbpB6tvjWXo-31" target="6wxo8OHEZgbpB6tvjWXo-58">
          <mxGeometry width="160" relative="1" as="geometry">
            <mxPoint x="2780" y="2750" as="sourcePoint" />
            <mxPoint x="2940" y="2750" as="targetPoint" />
          </mxGeometry>
        </mxCell>
        <mxCell id="6wxo8OHEZgbpB6tvjWXo-79" value="" style="endArrow=open;endFill=1;endSize=12;html=1;rounded=0;exitX=0;exitY=0.731;exitDx=0;exitDy=0;exitPerimeter=0;entryX=1.002;entryY=0.663;entryDx=0;entryDy=0;entryPerimeter=0;dashed=1;" edge="1" parent="1">
          <mxGeometry width="160" relative="1" as="geometry">
            <mxPoint x="3238.63" y="2821" as="sourcePoint" />
            <mxPoint x="2898.63" y="2820" as="targetPoint" />
          </mxGeometry>
        </mxCell>
        <mxCell id="6wxo8OHEZgbpB6tvjWXo-80" value="EladottaAllitas(ujfoglalas)" style="text;html=1;align=center;verticalAlign=middle;resizable=0;points=[];autosize=1;strokeColor=none;fillColor=none;" vertex="1" parent="1">
          <mxGeometry x="2909.13" y="2790" width="150" height="30" as="geometry" />
        </mxCell>
        <mxCell id="6wxo8OHEZgbpB6tvjWXo-81" value="&lt;div&gt;Test1&lt;/div&gt;" style="shape=umlActor;verticalLabelPosition=bottom;verticalAlign=top;html=1;outlineConnect=0;" vertex="1" parent="1">
          <mxGeometry x="1610" y="2650" width="30" height="60" as="geometry" />
        </mxCell>
        <mxCell id="6wxo8OHEZgbpB6tvjWXo-82" style="edgeStyle=orthogonalEdgeStyle;rounded=0;orthogonalLoop=1;jettySize=auto;html=1;exitX=0.5;exitY=0;exitDx=0;exitDy=0;dashed=1;endArrow=none;endFill=0;" edge="1" source="6wxo8OHEZgbpB6tvjWXo-83" parent="1">
          <mxGeometry relative="1" as="geometry">
            <mxPoint x="1625" y="2730" as="targetPoint" />
          </mxGeometry>
        </mxCell>
        <mxCell id="6wxo8OHEZgbpB6tvjWXo-83" value="" style="rounded=0;whiteSpace=wrap;html=1;" vertex="1" parent="1">
          <mxGeometry x="1620" y="2750" width="10" height="350" as="geometry" />
        </mxCell>
        <mxCell id="6wxo8OHEZgbpB6tvjWXo-84" style="edgeStyle=orthogonalEdgeStyle;rounded=0;orthogonalLoop=1;jettySize=auto;html=1;exitX=0.5;exitY=0;exitDx=0;exitDy=0;entryX=0.5;entryY=1;entryDx=0;entryDy=0;endArrow=none;endFill=0;" edge="1" source="6wxo8OHEZgbpB6tvjWXo-85" target="6wxo8OHEZgbpB6tvjWXo-98" parent="1">
          <mxGeometry relative="1" as="geometry" />
        </mxCell>
        <mxCell id="6wxo8OHEZgbpB6tvjWXo-85" value="" style="rounded=0;whiteSpace=wrap;html=1;" vertex="1" parent="1">
          <mxGeometry x="1989.5" y="2870" width="10" height="230" as="geometry" />
        </mxCell>
        <mxCell id="6wxo8OHEZgbpB6tvjWXo-86" style="edgeStyle=orthogonalEdgeStyle;rounded=0;orthogonalLoop=1;jettySize=auto;html=1;exitX=0.5;exitY=0;exitDx=0;exitDy=0;entryX=0.5;entryY=1;entryDx=0;entryDy=0;endArrow=none;endFill=0;" edge="1" source="6wxo8OHEZgbpB6tvjWXo-89" target="6wxo8OHEZgbpB6tvjWXo-96" parent="1">
          <mxGeometry relative="1" as="geometry" />
        </mxCell>
        <mxCell id="6wxo8OHEZgbpB6tvjWXo-87" style="edgeStyle=orthogonalEdgeStyle;rounded=0;orthogonalLoop=1;jettySize=auto;html=1;entryX=1.04;entryY=0.487;entryDx=0;entryDy=0;startArrow=open;startFill=0;endArrow=none;endFill=0;startSize=12;entryPerimeter=0;" edge="1" target="6wxo8OHEZgbpB6tvjWXo-83" parent="1">
          <mxGeometry relative="1" as="geometry">
            <mxPoint x="2170" y="2920" as="sourcePoint" />
          </mxGeometry>
        </mxCell>
        <mxCell id="6wxo8OHEZgbpB6tvjWXo-88" style="edgeStyle=orthogonalEdgeStyle;rounded=0;orthogonalLoop=1;jettySize=auto;html=1;entryX=0;entryY=0.723;entryDx=0;entryDy=0;entryPerimeter=0;startArrow=open;startFill=0;endArrow=none;endFill=0;startSize=12;dashed=1;" edge="1" target="6wxo8OHEZgbpB6tvjWXo-92" parent="1">
          <mxGeometry relative="1" as="geometry">
            <mxPoint x="2000" y="3014" as="sourcePoint" />
          </mxGeometry>
        </mxCell>
        <mxCell id="6wxo8OHEZgbpB6tvjWXo-89" value="" style="rounded=0;whiteSpace=wrap;html=1;" vertex="1" parent="1">
          <mxGeometry x="2170.5" y="2830" width="10" height="270" as="geometry" />
        </mxCell>
        <mxCell id="6wxo8OHEZgbpB6tvjWXo-90" style="edgeStyle=orthogonalEdgeStyle;rounded=0;orthogonalLoop=1;jettySize=auto;html=1;exitX=0.5;exitY=0;exitDx=0;exitDy=0;entryX=0.5;entryY=1;entryDx=0;entryDy=0;endArrow=none;endFill=0;" edge="1" source="6wxo8OHEZgbpB6tvjWXo-92" target="6wxo8OHEZgbpB6tvjWXo-94" parent="1">
          <mxGeometry relative="1" as="geometry" />
        </mxCell>
        <mxCell id="6wxo8OHEZgbpB6tvjWXo-91" style="rounded=0;orthogonalLoop=1;jettySize=auto;html=1;exitX=0;exitY=0.5;exitDx=0;exitDy=0;endArrow=none;endFill=0;startSize=12;startArrow=open;startFill=0;entryX=1.04;entryY=0.555;entryDx=0;entryDy=0;entryPerimeter=0;" edge="1" source="6wxo8OHEZgbpB6tvjWXo-92" target="6wxo8OHEZgbpB6tvjWXo-83" parent="1">
          <mxGeometry relative="1" as="geometry">
            <mxPoint x="1640" y="2940" as="targetPoint" />
          </mxGeometry>
        </mxCell>
        <mxCell id="6wxo8OHEZgbpB6tvjWXo-92" value="" style="rounded=0;whiteSpace=wrap;html=1;" vertex="1" parent="1">
          <mxGeometry x="2340" y="2790" width="10" height="310" as="geometry" />
        </mxCell>
        <mxCell id="6wxo8OHEZgbpB6tvjWXo-93" style="edgeStyle=orthogonalEdgeStyle;rounded=0;orthogonalLoop=1;jettySize=auto;html=1;exitX=0;exitY=0.5;exitDx=0;exitDy=0;dashed=1;startArrow=open;startFill=0;endArrow=none;endFill=0;startSize=12;" edge="1" source="6wxo8OHEZgbpB6tvjWXo-94" parent="1">
          <mxGeometry relative="1" as="geometry">
            <mxPoint x="1630" y="2765" as="targetPoint" />
          </mxGeometry>
        </mxCell>
        <mxCell id="6wxo8OHEZgbpB6tvjWXo-94" value="sz : Szinhaz" style="html=1;whiteSpace=wrap;" vertex="1" parent="1">
          <mxGeometry x="2299.5" y="2750" width="91" height="30" as="geometry" />
        </mxCell>
        <mxCell id="6wxo8OHEZgbpB6tvjWXo-95" style="edgeStyle=orthogonalEdgeStyle;rounded=0;orthogonalLoop=1;jettySize=auto;html=1;exitX=0;exitY=0.5;exitDx=0;exitDy=0;entryX=1;entryY=0.158;entryDx=0;entryDy=0;entryPerimeter=0;dashed=1;endArrow=none;endFill=0;startSize=12;startArrow=open;startFill=0;" edge="1" source="6wxo8OHEZgbpB6tvjWXo-96" target="6wxo8OHEZgbpB6tvjWXo-83" parent="1">
          <mxGeometry relative="1" as="geometry" />
        </mxCell>
        <mxCell id="6wxo8OHEZgbpB6tvjWXo-96" value="v : Vetitoterem" style="html=1;whiteSpace=wrap;" vertex="1" parent="1">
          <mxGeometry x="2130" y="2790" width="91" height="30" as="geometry" />
        </mxCell>
        <mxCell id="6wxo8OHEZgbpB6tvjWXo-97" style="edgeStyle=orthogonalEdgeStyle;rounded=0;orthogonalLoop=1;jettySize=auto;html=1;exitX=0;exitY=0.5;exitDx=0;exitDy=0;entryX=1;entryY=0.27;entryDx=0;entryDy=0;entryPerimeter=0;dashed=1;startArrow=open;startFill=0;endArrow=none;endFill=0;startSize=12;" edge="1" source="6wxo8OHEZgbpB6tvjWXo-98" target="6wxo8OHEZgbpB6tvjWXo-83" parent="1">
          <mxGeometry relative="1" as="geometry" />
        </mxCell>
        <mxCell id="6wxo8OHEZgbpB6tvjWXo-98" value="e : Eloadas" style="html=1;whiteSpace=wrap;" vertex="1" parent="1">
          <mxGeometry x="1949" y="2830" width="91" height="30" as="geometry" />
        </mxCell>
        <mxCell id="6wxo8OHEZgbpB6tvjWXo-99" value="&amp;lt;&amp;lt;create&amp;gt;&amp;gt;" style="text;html=1;align=center;verticalAlign=middle;resizable=0;points=[];autosize=1;strokeColor=none;fillColor=none;" vertex="1" parent="1">
          <mxGeometry x="2209.5" y="2740" width="90" height="30" as="geometry" />
        </mxCell>
        <mxCell id="6wxo8OHEZgbpB6tvjWXo-100" value="&amp;lt;&amp;lt;create&amp;gt;&amp;gt;" style="text;html=1;align=center;verticalAlign=middle;resizable=0;points=[];autosize=1;strokeColor=none;fillColor=none;" vertex="1" parent="1">
          <mxGeometry x="2040" y="2780" width="90" height="30" as="geometry" />
        </mxCell>
        <mxCell id="6wxo8OHEZgbpB6tvjWXo-101" value="&amp;lt;&amp;lt;create&amp;gt;&amp;gt;" style="text;html=1;align=center;verticalAlign=middle;resizable=0;points=[];autosize=1;strokeColor=none;fillColor=none;" vertex="1" parent="1">
          <mxGeometry x="1859" y="2820" width="90" height="30" as="geometry" />
        </mxCell>
        <mxCell id="6wxo8OHEZgbpB6tvjWXo-102" value="UjEloadas(e)" style="text;html=1;align=center;verticalAlign=middle;resizable=0;points=[];autosize=1;strokeColor=none;fillColor=none;" vertex="1" parent="1">
          <mxGeometry x="2069.13" y="2895" width="90" height="30" as="geometry" />
        </mxCell>
        <mxCell id="6wxo8OHEZgbpB6tvjWXo-103" value="TeremNyitas(v)" style="text;html=1;align=center;verticalAlign=middle;resizable=0;points=[];autosize=1;strokeColor=none;fillColor=none;" vertex="1" parent="1">
          <mxGeometry x="2232.75" y="2920" width="100" height="30" as="geometry" />
        </mxCell>
        <mxCell id="6wxo8OHEZgbpB6tvjWXo-104" value="&amp;lt;&amp;lt;create&amp;gt;&amp;gt;" style="text;html=1;align=center;verticalAlign=middle;resizable=0;points=[];autosize=1;strokeColor=none;fillColor=none;" vertex="1" parent="1">
          <mxGeometry x="1678" y="2860" width="90" height="30" as="geometry" />
        </mxCell>
        <mxCell id="6wxo8OHEZgbpB6tvjWXo-105" value="pisti : Szemely" style="html=1;whiteSpace=wrap;" vertex="1" parent="1">
          <mxGeometry x="1768" y="2870" width="91" height="30" as="geometry" />
        </mxCell>
        <mxCell id="6wxo8OHEZgbpB6tvjWXo-106" style="edgeStyle=orthogonalEdgeStyle;rounded=0;orthogonalLoop=1;jettySize=auto;html=1;exitX=-0.13;exitY=0.383;exitDx=0;exitDy=0;endArrow=none;endFill=0;startArrow=open;startFill=0;startSize=12;entryX=1.04;entryY=0.667;entryDx=0;entryDy=0;entryPerimeter=0;exitPerimeter=0;" edge="1" source="6wxo8OHEZgbpB6tvjWXo-110" target="6wxo8OHEZgbpB6tvjWXo-83" parent="1">
          <mxGeometry relative="1" as="geometry">
            <mxPoint x="1590" y="2990" as="targetPoint" />
          </mxGeometry>
        </mxCell>
        <mxCell id="6wxo8OHEZgbpB6tvjWXo-107" style="edgeStyle=orthogonalEdgeStyle;rounded=0;orthogonalLoop=1;jettySize=auto;html=1;entryX=0;entryY=0.622;entryDx=0;entryDy=0;entryPerimeter=0;endArrow=open;endFill=0;endSize=12;" edge="1" target="6wxo8OHEZgbpB6tvjWXo-92" parent="1">
          <mxGeometry relative="1" as="geometry">
            <mxPoint x="1820" y="2983" as="sourcePoint" />
          </mxGeometry>
        </mxCell>
        <mxCell id="6wxo8OHEZgbpB6tvjWXo-108" style="rounded=0;orthogonalLoop=1;jettySize=auto;html=1;entryX=0;entryY=0.852;entryDx=0;entryDy=0;entryPerimeter=0;endArrow=open;endFill=0;startSize=12;endSize=12;exitX=1;exitY=0.75;exitDx=0;exitDy=0;" edge="1" source="6wxo8OHEZgbpB6tvjWXo-110" target="6wxo8OHEZgbpB6tvjWXo-92" parent="1">
          <mxGeometry relative="1" as="geometry">
            <mxPoint x="1840" y="3070" as="sourcePoint" />
          </mxGeometry>
        </mxCell>
        <mxCell id="6wxo8OHEZgbpB6tvjWXo-125" style="edgeStyle=orthogonalEdgeStyle;rounded=0;orthogonalLoop=1;jettySize=auto;html=1;exitX=0.5;exitY=0;exitDx=0;exitDy=0;entryX=0.5;entryY=1;entryDx=0;entryDy=0;endArrow=none;endFill=0;" edge="1" parent="1" source="6wxo8OHEZgbpB6tvjWXo-110" target="6wxo8OHEZgbpB6tvjWXo-105">
          <mxGeometry relative="1" as="geometry" />
        </mxCell>
        <mxCell id="6wxo8OHEZgbpB6tvjWXo-110" value="" style="rounded=0;whiteSpace=wrap;html=1;" vertex="1" parent="1">
          <mxGeometry x="1808.5" y="2910" width="10" height="190" as="geometry" />
        </mxCell>
        <mxCell id="6wxo8OHEZgbpB6tvjWXo-111" style="edgeStyle=orthogonalEdgeStyle;rounded=0;orthogonalLoop=1;jettySize=auto;html=1;exitX=0;exitY=0.5;exitDx=0;exitDy=0;entryX=1;entryY=0.388;entryDx=0;entryDy=0;entryPerimeter=0;dashed=1;startArrow=open;startFill=0;endArrow=none;endFill=0;startSize=12;" edge="1" source="6wxo8OHEZgbpB6tvjWXo-105" target="6wxo8OHEZgbpB6tvjWXo-83" parent="1">
          <mxGeometry relative="1" as="geometry">
            <mxPoint x="1959" y="2855" as="sourcePoint" />
            <mxPoint x="1643" y="2856" as="targetPoint" />
          </mxGeometry>
        </mxCell>
        <mxCell id="6wxo8OHEZgbpB6tvjWXo-112" value="Foglal(sz, &quot;Pretty woman&quot;, reggel, Nagy, foglalas)" style="text;html=1;align=center;verticalAlign=middle;resizable=0;points=[];autosize=1;strokeColor=none;fillColor=none;" vertex="1" parent="1">
          <mxGeometry x="1623.63" y="3027.75" width="280" height="30" as="geometry" />
        </mxCell>
        <mxCell id="6wxo8OHEZgbpB6tvjWXo-113" value="Lefoglal(&quot;Pretty woman&quot;, reggel, Nagy, foglalas)" style="text;html=1;align=center;verticalAlign=middle;resizable=0;points=[];autosize=1;strokeColor=none;fillColor=none;" vertex="1" parent="1">
          <mxGeometry x="2080" y="2957.75" width="270" height="30" as="geometry" />
        </mxCell>
        <mxCell id="6wxo8OHEZgbpB6tvjWXo-114" value="FoglalttaAllitas(foglalas)" style="text;html=1;align=center;verticalAlign=middle;resizable=0;points=[];autosize=1;strokeColor=none;fillColor=none;" vertex="1" parent="1">
          <mxGeometry x="2001" y="2987.75" width="150" height="30" as="geometry" />
        </mxCell>
        <mxCell id="6wxo8OHEZgbpB6tvjWXo-115" value="&lt;div&gt;Lemond(sz, &quot;Pretty woman&quot;, reggel, Nagy, foglalas)&lt;/div&gt;" style="text;html=1;align=center;verticalAlign=middle;resizable=0;points=[];autosize=1;strokeColor=none;fillColor=none;" vertex="1" parent="1">
          <mxGeometry x="1630" y="2957.75" width="290" height="30" as="geometry" />
        </mxCell>
        <mxCell id="6wxo8OHEZgbpB6tvjWXo-116" value="Lemondas(&quot;Pretty woman&quot;, reggel, Nagy, foglalas)" style="text;html=1;align=center;verticalAlign=middle;resizable=0;points=[];autosize=1;strokeColor=none;fillColor=none;" vertex="1" parent="1">
          <mxGeometry x="2071.38" y="3027.75" width="280" height="30" as="geometry" />
        </mxCell>
        <mxCell id="6wxo8OHEZgbpB6tvjWXo-117" value="SzabaddaAllitas(foglalas)" style="text;html=1;align=center;verticalAlign=middle;resizable=0;points=[];autosize=1;strokeColor=none;fillColor=none;" vertex="1" parent="1">
          <mxGeometry x="2009.13" y="3065" width="150" height="30" as="geometry" />
        </mxCell>
        <mxCell id="6wxo8OHEZgbpB6tvjWXo-119" value="" style="endArrow=open;endFill=1;endSize=12;html=1;rounded=0;exitX=1.2;exitY=0.862;exitDx=0;exitDy=0;exitPerimeter=0;entryX=0;entryY=0.75;entryDx=0;entryDy=0;elbow=vertical;" edge="1" source="6wxo8OHEZgbpB6tvjWXo-83" target="6wxo8OHEZgbpB6tvjWXo-110" parent="1">
          <mxGeometry width="160" relative="1" as="geometry">
            <mxPoint x="1660" y="3100" as="sourcePoint" />
            <mxPoint x="1820" y="3100" as="targetPoint" />
          </mxGeometry>
        </mxCell>
        <mxCell id="6wxo8OHEZgbpB6tvjWXo-120" value="" style="endArrow=open;endFill=1;endSize=12;html=1;rounded=0;exitX=0;exitY=0.965;exitDx=0;exitDy=0;exitPerimeter=0;entryX=1.05;entryY=0.963;entryDx=0;entryDy=0;entryPerimeter=0;dashed=1;" edge="1" source="6wxo8OHEZgbpB6tvjWXo-92" target="6wxo8OHEZgbpB6tvjWXo-85" parent="1">
          <mxGeometry width="160" relative="1" as="geometry">
            <mxPoint x="2230" y="3090" as="sourcePoint" />
            <mxPoint x="2020" y="3070" as="targetPoint" />
          </mxGeometry>
        </mxCell>
      </root>
    </mxGraphModel>
  </diagram>
</mxfile>
